<svg xmlns="http://www.w3.org/2000/svg" width="2809" height="2800" fill="none"><path fill="#7D97F4" d="M651.07 1237.87s167.872-176.75 128.449-300.442c-39.422-123.689-170.248-297.166 58.701-561.922 134.036-155 190.4-224.796 214.1-256.028 9.24-12.183 27.53-12.211 36.77-.026 65.36 86.199 266.02 379.099 161.47 602.419-123.94 264.749-599.49 515.999-599.49 515.999Z"/><path fill="#fff" d="M1083.61 246.897c7.58 87.496 3.1 175.287-6.82 262.364-2.91 21.718-5.59 43.489-9.5 65.067l-2.73 16.219-1.36 8.11-1.6 8.067-6.46 32.26-1.66 8.058-1.9 8.004-3.81 16.008-3.8 16.01-1.91 8.005-2.15 7.941c-5.95 21.144-11.2 42.384-18.28 63.383-1.6 5.291-3.56 10.453-5.39 15.661-1.87 5.192-3.67 10.415-5.61 15.581l-6.08 15.396-3.05 7.695-3.286 7.594-6.575 15.187-7.02 14.98c-2.314 5.007-4.699 9.978-7.259 14.861l-7.521 14.727c-20.697 38.922-43.934 76.476-69.991 111.935-25.86 35.6-54.05 69.44-84.135 101.45a1038.869 1038.869 0 0 1-46.832 46.34c-16.114 14.99-32.583 29.34-50.259 42.88a5.894 5.894 0 0 1-8.267-1.1c-1.936-2.52-1.511-6.12.925-8.13l.132-.11c8.18-6.73 16.328-14.01 24.26-21.32 7.969-7.31 15.852-14.73 23.562-22.33a1035.978 1035.978 0 0 0 44.896-46.93c29.013-32.13 56.383-65.75 81.23-101.136 24.935-35.31 47.616-72.161 67.667-110.356 19.674-38.362 37.241-77.867 50.593-118.818 6.83-20.353 12.34-41.408 18.36-62.203l2.19-7.823 1.95-7.89 3.89-15.781 3.9-15.782 1.95-7.891 1.7-7.948c9.66-42.277 17.12-85.025 23.66-127.928 6.11-42.967 10.66-86.183 13.3-129.541 2.91-43.309 4.04-86.917 2.42-130.192v-.158a3.341 3.341 0 0 1 3.21-3.466 3.352 3.352 0 0 1 3.46 3.05Z" opacity=".5"/><path fill="#91B3FA" d="M894.55 1838.7c21.776 19.29-150.355-384.92-89.274-928.308 28.783-256.06 113.09-563.569 6.027-720.58C722.198 59.137 309.248 12.166 173.223.085c-16.997-1.51-28.086 17.428-18.408 31.483 47.71 69.291 146.611 228.968 147.015 362.5.531 176.006 127.215 322.818 258.542 389.328 131.328 66.51 201.168 115.159 207.55 356.294 6.382 241.13 64.752 644.17 126.628 699.01Z"/><path fill="#fff" d="M336.029 120.246c82.22 27.157 158.757 70.879 224.39 127.986 32.882 28.466 62.205 61.239 86.955 97.266 24.438 36.206 44.345 75.791 57.159 117.73l4.731 15.74c1.542 5.256 2.592 10.642 3.907 15.958 1.185 5.325 2.57 10.704 3.585 15.984l3.072 15.848c4.144 21.121 8.184 42.261 12.008 63.444a4153.535 4153.535 0 0 1 21.165 127.397c12.83 85.147 23.097 170.666 28.16 256.762a3.477 3.477 0 0 1-6.926.592l-.012-.107c-4.665-42.575-10.196-85.199-16.515-127.636a5456.803 5456.803 0 0 0-19.947-127.191l-10.921-63.437-11.646-63.309c-3.872-21.105-7.962-42.169-12.154-63.214l-3.108-15.79c-1.03-5.268-2.358-10.296-3.519-15.456-1.244-5.116-2.215-10.306-3.676-15.365l-4.475-15.153c-12.034-40.434-31.241-78.436-54.266-113.792-11.9-17.436-24.427-34.532-38.543-50.333l-5.178-6.02-5.413-5.816c-3.626-3.862-7.154-7.82-10.862-11.608-7.523-7.473-14.957-15.048-22.885-22.119-31.18-28.871-65.869-53.932-102.169-76.292-36.319-22.293-74.78-41.672-114.611-56.747l-.17-.064a2.79 2.79 0 0 1-1.622-3.597 2.799 2.799 0 0 1 3.486-1.661Z" opacity=".5"/><path fill="#7D97F4" d="M570.348 1772.23c9.245 13.13-.942-174.1 57.56-304.61 58.502-130.51 140.637-362.3 97.229-548.188-43.408-185.892-157.503-259.069-369.164-218.261-176.385 34.007-280.426 43.499-331.29 29.174-12.593-3.547-25.01 6.376-24.676 19.457 1.776 69.62 21.55 237.547 166.564 300.458 184.975 80.24 461.669 74.61 478.26 205.6 16.591 130.99-19.671 181.04-41.15 228.14-21.479 47.1-94.512 201.37-33.333 288.23Z"/><path fill="#fff" d="M327.458 884.016c14.729-4.321 29.576-7.424 44.6-10.061 15.007-2.614 30.144-4.662 45.386-5.814 30.449-2.42 61.368-1.973 91.931 3.076 15.259 2.573 30.422 6.295 45.154 11.604 14.686 5.391 28.934 12.378 42.059 21.274 3.197 2.346 6.551 4.477 9.61 7.017 3.015 2.56 6.221 5.027 9.067 7.681l16.602 16.181 15.469 17.346 14.116 18.527c17.914 25.425 31.197 54.173 39.169 84.153 8.14 29.99 10.673 61.05 10.18 91.66l-.189 11.5c-.008 3.83-.531 7.63-.772 11.45-.671 7.62-1.106 15.26-1.975 22.84l-3.165 22.66c-.892 7.58-2.76 14.98-4.167 22.46-5.739 29.9-14.094 59.12-23.13 88.02a2.84 2.84 0 0 1-5.472-1.5l.022-.09c7.075-29.29 14.375-58.5 18.645-88.2 2.609-14.78 3.936-29.69 5.668-44.53.648-7.43.865-14.89 1.322-22.33.133-3.72.55-7.44.453-11.16l-.123-11.16c-.233-29.7-3.822-59.3-11.749-87.62-7.935-28.32-20.905-54.99-37.8-78.95l-13.425-17.442-14.763-16.392-15.915-15.359c-2.678-2.487-5.458-4.648-8.176-6.997-2.729-2.31-5.771-4.242-8.637-6.39-11.83-8.13-24.844-14.64-38.458-19.736-13.59-5.187-27.792-9.005-42.252-11.736-28.951-5.496-58.82-6.91-88.636-6.019-29.808.948-59.81 4.15-89.167 9.75l-.094.018a2.951 2.951 0 0 1-1.388-5.731Z" opacity=".5"/><path fill="url(#a)" d="M2276.69 635.706c119.38 0 216.15-96.776 216.15-216.154 0-119.379-96.77-216.154-216.15-216.154-119.38 0-216.16 96.775-216.16 216.154 0 119.378 96.78 216.154 216.16 216.154Z"/><path fill="#fff" d="M2272.85 692.765c-2.15 0-4.3-.025-6.44-.075a2.453 2.453 0 0 1-2.39-2.511 2.45 2.45 0 0 1 2.51-2.395c4.31.1 8.66.097 12.97-.007l.06-.001c1.32 0 2.42 1.06 2.45 2.394a2.458 2.458 0 0 1-2.4 2.513c-2.24.055-4.5.082-6.76.082ZM2253.41 692.078c-.06 0-.12-.002-.18-.006-4.36-.31-8.78-.73-13.13-1.249a2.455 2.455 0 1 1 .58-4.873c4.27.51 8.61.923 12.9 1.227a2.464 2.464 0 0 1 2.28 2.621 2.461 2.461 0 0 1-2.45 2.28ZM2292.62 692.055a2.46 2.46 0 0 1-2.45-2.277 2.459 2.459 0 0 1 2.27-2.624c4.29-.31 8.64-.729 12.91-1.244a2.46 2.46 0 0 1 2.73 2.142 2.458 2.458 0 0 1-2.15 2.73c-4.34.525-8.76.951-13.13 1.266-.06.005-.12.007-.18.007ZM2227.44 688.974c-.13 0-.27-.011-.41-.034-4.33-.731-8.69-1.577-12.96-2.513a2.457 2.457 0 0 1-1.87-2.924 2.459 2.459 0 0 1 2.93-1.871c4.19.92 8.47 1.75 12.72 2.468a2.446 2.446 0 0 1 2.01 2.828 2.452 2.452 0 0 1-2.42 2.046ZM2318.58 688.918c-1.17 0-2.21-.845-2.42-2.043a2.465 2.465 0 0 1 2.01-2.83 266.85 266.85 0 0 0 12.72-2.484 2.448 2.448 0 0 1 2.93 1.868 2.458 2.458 0 0 1-1.87 2.924 275.23 275.23 0 0 1-12.95 2.528c-.14.026-.28.037-.42.037ZM2201.9 683.373c-.22 0-.43-.028-.65-.086a270.658 270.658 0 0 1-12.65-3.761 2.453 2.453 0 1 1 1.51-4.669c4.09 1.324 8.27 2.566 12.43 3.692a2.451 2.451 0 0 1 1.72 3.01 2.442 2.442 0 0 1-2.36 1.814ZM2344.12 683.287c-1.08 0-2.07-.718-2.37-1.81a2.46 2.46 0 0 1 1.73-3.012c4.16-1.133 8.34-2.38 12.42-3.707a2.45 2.45 0 0 1 3.09 1.575 2.455 2.455 0 0 1-1.58 3.092 271.654 271.654 0 0 1-12.64 3.776c-.22.059-.44.086-.65.086ZM2176.99 675.304c-.29 0-.59-.051-.87-.16a269.316 269.316 0 0 1-12.25-4.985 2.44 2.44 0 0 1-1.27-3.23 2.448 2.448 0 0 1 3.22-1.269c3.95 1.717 7.99 3.364 12.03 4.894a2.454 2.454 0 0 1-.86 4.75ZM2368.99 675.199c-.99 0-1.92-.603-2.29-1.583a2.452 2.452 0 0 1 1.42-3.166c4.02-1.528 8.05-3.172 11.97-4.885a2.466 2.466 0 0 1 3.24 1.266 2.459 2.459 0 0 1-1.27 3.231c-4 1.745-8.1 3.419-12.19 4.976-.29.109-.59.161-.88.161ZM2152.96 664.84c-.37 0-.74-.082-1.09-.255a275.788 275.788 0 0 1-11.7-6.148 2.457 2.457 0 0 1-.95-3.338 2.457 2.457 0 0 1 3.34-.95 270.5 270.5 0 0 0 11.49 6.037 2.458 2.458 0 0 1 1.11 3.287 2.457 2.457 0 0 1-2.2 1.367ZM2392.91 664.756c-.9 0-1.77-.501-2.2-1.365a2.46 2.46 0 0 1 1.11-3.288c3.86-1.911 7.71-3.938 11.45-6.026a2.454 2.454 0 1 1 2.39 4.286 273.778 273.778 0 0 1-11.66 6.136c-.35.175-.72.257-1.09.257ZM2130.08 652.104c-.44 0-.89-.119-1.3-.37-3.71-2.312-7.43-4.75-11.04-7.245a2.451 2.451 0 0 1-.63-3.414 2.461 2.461 0 0 1 3.42-.625c3.54 2.452 7.19 4.846 10.85 7.116a2.45 2.45 0 0 1 .78 3.38 2.437 2.437 0 0 1-2.08 1.158ZM2415.73 652.039a2.452 2.452 0 0 1-1.3-4.537 270.94 270.94 0 0 0 10.82-7.106 2.45 2.45 0 0 1 3.41.623 2.44 2.44 0 0 1-.62 3.414c-3.6 2.492-7.31 4.926-11.02 7.235-.4.251-.85.371-1.29.371ZM2108.54 637.223c-.52 0-1.04-.164-1.49-.505a275.608 275.608 0 0 1-10.29-8.271 2.454 2.454 0 0 1-.29-3.458 2.457 2.457 0 0 1 3.46-.293c3.29 2.777 6.69 5.51 10.11 8.124a2.452 2.452 0 0 1 .45 3.44 2.44 2.44 0 0 1-1.95.963ZM2437.22 637.179c-.74 0-1.47-.332-1.95-.963a2.453 2.453 0 0 1 .45-3.44c3.42-2.615 6.82-5.346 10.1-8.119a2.458 2.458 0 0 1 3.46.293 2.463 2.463 0 0 1-.29 3.458 287.938 287.938 0 0 1-10.28 8.265c-.45.341-.97.506-1.49.506ZM2088.55 620.349c-.6 0-1.2-.217-1.67-.657a281.97 281.97 0 0 1-9.45-9.217 2.454 2.454 0 0 1 3.51-3.43c3.01 3.082 6.13 6.128 9.28 9.052a2.46 2.46 0 0 1 .13 3.469 2.46 2.46 0 0 1-1.8.783ZM2457.19 620.312a2.44 2.44 0 0 1-1.79-.782 2.45 2.45 0 0 1 .12-3.469c3.16-2.941 6.28-5.988 9.28-9.054.95-.97 2.5-.987 3.47-.042.97.947.99 2.501.04 3.47a284.381 284.381 0 0 1-9.44 9.218c-.48.441-1.08.659-1.68.659ZM2070.27 601.642a2.46 2.46 0 0 1-1.84-.825c-2.9-3.278-5.77-6.669-8.51-10.076a2.453 2.453 0 1 1 3.82-3.077c2.69 3.346 5.51 6.676 8.37 9.896.89 1.014.8 2.565-.21 3.464-.47.415-1.05.618-1.63.618ZM2475.47 601.6a2.46 2.46 0 0 1-1.63-.617 2.458 2.458 0 0 1-.21-3.465c2.87-3.233 5.68-6.565 8.37-9.906a2.456 2.456 0 0 1 3.45-.375 2.45 2.45 0 0 1 .38 3.45 278.204 278.204 0 0 1-8.53 10.087c-.48.547-1.16.826-1.83.826ZM2053.88 581.277c-.75 0-1.5-.35-1.98-1.01a274.29 274.29 0 0 1-7.51-10.842 2.459 2.459 0 0 1 .7-3.398 2.454 2.454 0 0 1 3.4.703c2.36 3.58 4.84 7.163 7.38 10.649.79 1.095.55 2.63-.54 3.428-.44.318-.94.47-1.45.47ZM2491.87 581.211c-.5 0-1.01-.153-1.45-.47a2.466 2.466 0 0 1-.54-3.428c2.55-3.497 5.03-7.087 7.38-10.67a2.46 2.46 0 0 1 3.4-.705 2.452 2.452 0 0 1 .71 3.398c-2.4 3.648-4.93 7.303-7.52 10.863a2.446 2.446 0 0 1-1.98 1.012ZM2039.53 559.442c-.84 0-1.65-.43-2.11-1.206a268.123 268.123 0 0 1-6.43-11.509 2.456 2.456 0 0 1 1.03-3.315 2.462 2.462 0 0 1 3.32 1.027c2 3.8 4.12 7.602 6.31 11.302.68 1.167.3 2.672-.87 3.361-.39.231-.82.34-1.25.34ZM2506.24 559.328a2.46 2.46 0 0 1-2.12-3.701c2.19-3.714 4.32-7.529 6.32-11.337a2.46 2.46 0 0 1 3.32-1.03 2.454 2.454 0 0 1 1.03 3.314 275.18 275.18 0 0 1-6.44 11.545 2.445 2.445 0 0 1-2.11 1.209ZM2027.36 536.34c-.92 0-1.81-.525-2.22-1.418a263.947 263.947 0 0 1-5.28-12.069 2.453 2.453 0 0 1 1.35-3.199 2.443 2.443 0 0 1 3.19 1.344c1.62 3.953 3.36 7.94 5.18 11.85a2.444 2.444 0 0 1-1.18 3.262c-.34.156-.69.23-1.04.23ZM2518.43 536.147a2.454 2.454 0 0 1-2.22-3.49c1.82-3.919 3.57-7.923 5.19-11.903a2.453 2.453 0 0 1 3.2-1.347 2.456 2.456 0 0 1 1.34 3.198 280.578 280.578 0 0 1-5.28 12.122 2.47 2.47 0 0 1-2.23 1.42ZM2017.48 512.156c-1.01 0-1.96-.63-2.31-1.638a266.553 266.553 0 0 1-4.09-12.551 2.452 2.452 0 1 1 4.7-1.406c1.23 4.118 2.58 8.264 4.01 12.324a2.45 2.45 0 0 1-2.31 3.271ZM2528.32 511.877c-.27 0-.55-.045-.82-.14a2.469 2.469 0 0 1-1.5-3.129c1.43-4.06 2.78-8.208 4-12.328a2.464 2.464 0 0 1 3.06-1.651 2.45 2.45 0 0 1 1.65 3.052c-1.25 4.196-2.62 8.42-4.08 12.555a2.447 2.447 0 0 1-2.31 1.641ZM2009.99 487.099c-1.11 0-2.11-.748-2.38-1.868a259.635 259.635 0 0 1-2.85-12.888 2.456 2.456 0 0 1 1.94-2.879c1.32-.263 2.61.607 2.88 1.938.82 4.197 1.76 8.454 2.79 12.655a2.458 2.458 0 0 1-2.38 3.042ZM2535.79 486.813a2.455 2.455 0 0 1-2.39-3.04c1.03-4.191 1.97-8.451 2.78-12.66a2.466 2.466 0 0 1 2.88-1.94c1.33.26 2.2 1.547 1.94 2.878-.83 4.286-1.79 8.623-2.83 12.891a2.46 2.46 0 0 1-2.38 1.871ZM2004.96 461.433a2.45 2.45 0 0 1-2.42-2.1c-.64-4.335-1.17-8.743-1.59-13.101a2.457 2.457 0 0 1 2.21-2.679c1.32-.116 2.54.856 2.67 2.206.42 4.281.94 8.61 1.56 12.867a2.448 2.448 0 0 1-2.43 2.807ZM2540.78 461.141a2.46 2.46 0 0 1-2.43-2.806c.62-4.258 1.14-8.587 1.55-12.868.13-1.349 1.32-2.348 2.67-2.21a2.454 2.454 0 0 1 2.21 2.676c-.42 4.36-.94 8.769-1.57 13.105a2.46 2.46 0 0 1-2.43 2.103ZM2002.44 435.404a2.46 2.46 0 0 1-2.45-2.335c-.21-4.351-.32-8.79-.33-13.193 0-1.356 1.1-2.456 2.45-2.458 1.36 0 2.46 1.096 2.46 2.45.01 4.327.12 8.688.32 12.963a2.446 2.446 0 0 1-2.45 2.573ZM2543.27 435.109l-.12-.003a2.456 2.456 0 0 1-2.33-2.568c.21-4.274.31-8.634.31-12.958v-.581a2.456 2.456 0 0 1 4.91 0v.581c0 4.403-.11 8.842-.32 13.193a2.447 2.447 0 0 1-2.45 2.336ZM2002.42 409.25l-.12-.002a2.46 2.46 0 0 1-2.34-2.565c.21-4.386.52-8.815.93-13.165.13-1.35 1.34-2.35 2.68-2.212a2.465 2.465 0 0 1 2.21 2.674c-.41 4.273-.71 8.622-.91 12.93a2.456 2.456 0 0 1-2.45 2.34ZM2543.24 408.373c-1.3 0-2.39-1.021-2.45-2.333-.21-4.296-.53-8.644-.95-12.925a2.453 2.453 0 0 1 2.2-2.682c1.35-.144 2.55.854 2.68 2.202.43 4.359.76 8.788.97 13.163a2.447 2.447 0 0 1-2.45 2.575ZM2004.88 383.215a2.457 2.457 0 0 1-2.43-2.803c.62-4.322 1.36-8.701 2.19-13.016a2.45 2.45 0 0 1 2.88-1.943 2.45 2.45 0 0 1 1.94 2.875c-.82 4.237-1.54 8.537-2.15 12.781a2.455 2.455 0 0 1-2.43 2.106ZM2540.69 382.347c-1.2 0-2.24-.877-2.42-2.098-.63-4.264-1.37-8.562-2.2-12.774a2.459 2.459 0 0 1 1.94-2.881 2.445 2.445 0 0 1 2.88 1.934c.84 4.29 1.6 8.666 2.23 13.009a2.45 2.45 0 0 1-2.43 2.81ZM2009.85 357.539a2.46 2.46 0 0 1-2.39-3.037c1.04-4.242 2.2-8.528 3.45-12.742a2.453 2.453 0 0 1 3.05-1.655c1.3.385 2.04 1.75 1.65 3.05a280.191 280.191 0 0 0-3.38 12.512 2.453 2.453 0 0 1-2.38 1.872ZM2535.64 356.688c-1.1 0-2.1-.747-2.38-1.864-1.04-4.18-2.19-8.386-3.42-12.501a2.454 2.454 0 0 1 1.65-3.055c1.28-.392 2.66.345 3.05 1.645 1.26 4.191 2.43 8.473 3.49 12.731a2.462 2.462 0 0 1-1.79 2.972c-.2.048-.4.072-.6.072ZM2017.29 332.465a2.45 2.45 0 0 1-2.32-3.266c1.45-4.139 3.03-8.302 4.68-12.375a2.455 2.455 0 0 1 4.55 1.847 267.912 267.912 0 0 0-4.6 12.151 2.446 2.446 0 0 1-2.31 1.643Z"/><path fill="url(#b)" d="M2528.12 331.639c-1.01 0-1.95-.629-2.31-1.636a263.935 263.935 0 0 0-4.62-12.109 2.452 2.452 0 0 1 1.34-3.201 2.45 2.45 0 0 1 3.2 1.34 271.99 271.99 0 0 1 4.71 12.332 2.457 2.457 0 0 1-2.32 3.274Z"/><path fill="url(#c)" d="M2027.15 308.185c-.35 0-.7-.074-1.04-.229a2.46 2.46 0 0 1-1.19-3.258c1.85-3.989 3.82-7.977 5.86-11.853a2.45 2.45 0 1 1 4.34 2.28 278.718 278.718 0 0 0-5.75 11.639 2.444 2.444 0 0 1-2.22 1.421Z"/><path fill="url(#d)" d="M2518.22 307.465c-.93 0-1.81-.524-2.23-1.415a260.459 260.459 0 0 0-5.76-11.585 2.463 2.463 0 0 1 1.02-3.316 2.458 2.458 0 0 1 3.32 1.025c2.04 3.873 4.02 7.842 5.87 11.797a2.462 2.462 0 0 1-1.18 3.262c-.34.158-.69.232-1.04.232Z"/><path fill="url(#e)" d="M2039.31 284.991a2.45 2.45 0 0 1-2.11-3.699c2.22-3.778 4.57-7.554 6.97-11.223a2.46 2.46 0 0 1 3.4-.709 2.46 2.46 0 0 1 .71 3.397 268.238 268.238 0 0 0-6.85 11.024 2.462 2.462 0 0 1-2.12 1.21Z"/><path fill="url(#f)" d="M2506.02 284.373c-.83 0-1.65-.43-2.11-1.204a278.93 278.93 0 0 0-6.86-10.98 2.462 2.462 0 0 1 .7-3.4 2.456 2.456 0 0 1 3.4.7c2.41 3.656 4.76 7.418 6.99 11.18.69 1.166.3 2.671-.87 3.362-.39.232-.82.342-1.25.342Z"/><path fill="url(#g)" d="M2053.66 263.092c-.5 0-1.01-.152-1.44-.468a2.448 2.448 0 0 1-.54-3.428c2.57-3.547 5.27-7.079 8.01-10.496a2.453 2.453 0 0 1 3.45-.378 2.45 2.45 0 0 1 .38 3.45 272.883 272.883 0 0 0-7.87 10.307 2.452 2.452 0 0 1-1.99 1.013Z"/><path fill="url(#h)" d="M2491.65 262.555c-.76 0-1.5-.349-1.98-1.007a270.666 270.666 0 0 0-7.89-10.275 2.45 2.45 0 0 1 .37-3.451 2.453 2.453 0 0 1 3.45.369c2.76 3.418 5.46 6.939 8.03 10.464.8 1.094.56 2.63-.53 3.429a2.48 2.48 0 0 1-1.45.471Z"/><path fill="url(#i)" d="M2070.04 242.685a2.455 2.455 0 0 1-1.84-4.081 280.55 280.55 0 0 1 8.99-9.673 2.453 2.453 0 1 1 3.51 3.425c-3 3.081-5.97 6.278-8.82 9.5-.49.549-1.16.829-1.84.829Z"/><path fill="url(#j)" d="M2475.24 242.207c-.68 0-1.35-.278-1.84-.823a266.665 266.665 0 0 0-8.84-9.476 2.45 2.45 0 0 1 .04-3.47 2.452 2.452 0 0 1 3.47.037c3.06 3.127 6.09 6.373 9 9.647.9 1.013.81 2.564-.2 3.465-.47.416-1.05.62-1.63.62Z"/><path fill="url(#k)" d="M2088.3 223.952c-.66 0-1.32-.262-1.8-.781a2.459 2.459 0 0 1 .12-3.468c3.2-2.981 6.52-5.93 9.87-8.762a2.457 2.457 0 0 1 3.46.288 2.464 2.464 0 0 1-.29 3.459 268.212 268.212 0 0 0-9.69 8.606c-.47.44-1.07.658-1.67.658Z"/><path fill="url(#l)" d="M2456.94 223.519c-.6 0-1.2-.216-1.67-.655a265.498 265.498 0 0 0-9.72-8.587 2.462 2.462 0 0 1-.29-3.458 2.447 2.447 0 0 1 3.45-.296c3.35 2.817 6.68 5.758 9.9 8.744.99.921 1.05 2.474.13 3.468a2.46 2.46 0 0 1-1.8.784Z"/><path fill="url(#m)" d="M2108.26 207.064c-.74 0-1.47-.331-1.95-.961a2.454 2.454 0 0 1 .45-3.441c3.47-2.662 7.06-5.276 10.66-7.772a2.451 2.451 0 0 1 3.41.619c.77 1.114.5 2.642-.62 3.415-3.53 2.45-7.05 5.018-10.46 7.633-.45.342-.97.507-1.49.507Z"/><path fill="url(#n)" d="M2436.93 206.665c-.52 0-1.05-.164-1.49-.503a269.877 269.877 0 0 0-10.5-7.617 2.45 2.45 0 0 1-.63-3.413 2.45 2.45 0 0 1 3.41-.628c3.61 2.483 7.2 5.093 10.7 7.757a2.462 2.462 0 0 1 .46 3.439c-.48.633-1.21.965-1.95.965Z"/><path fill="url(#o)" d="M2129.73 192.18c-.81 0-1.61-.409-2.08-1.155a2.451 2.451 0 0 1 .78-3.381c3.73-2.325 7.55-4.582 11.35-6.706a2.455 2.455 0 0 1 2.4 4.285 265.814 265.814 0 0 0-11.15 6.585c-.4.252-.85.372-1.3.372Z"/><path fill="url(#p)" d="M2415.37 191.81c-.44 0-.89-.119-1.29-.368-3.66-2.269-7.42-4.48-11.19-6.573a2.455 2.455 0 0 1-.95-3.337 2.446 2.446 0 0 1 3.33-.954c3.84 2.131 7.67 4.383 11.4 6.693 1.15.714 1.5 2.227.79 3.378a2.464 2.464 0 0 1-2.09 1.161Z"/><path fill="url(#q)" d="M2152.53 179.441a2.454 2.454 0 0 1-1.09-4.653c3.92-1.951 7.94-3.826 11.93-5.576a2.46 2.46 0 0 1 3.24 1.264 2.46 2.46 0 0 1-1.27 3.232 273.62 273.62 0 0 0-11.72 5.475c-.35.175-.72.258-1.09.258Z"/><path fill="url(#r)" d="M2392.48 179.098c-.37 0-.74-.082-1.09-.254a267.755 267.755 0 0 0-11.78-5.46 2.455 2.455 0 0 1 1.96-4.502c4.03 1.751 8.07 3.622 12 5.561 1.21.6 1.71 2.072 1.11 3.287a2.458 2.458 0 0 1-2.2 1.368Z"/><path fill="url(#s)" d="M2176.44 168.973c-.99 0-1.92-.602-2.3-1.581a2.462 2.462 0 0 1 1.42-3.167 268.92 268.92 0 0 1 12.45-4.401 2.443 2.443 0 0 1 3.09 1.571 2.452 2.452 0 0 1-1.57 3.094c-4.09 1.336-8.2 2.789-12.22 4.321-.29.111-.58.163-.87.163Z"/><path fill="url(#t)" d="M2368.44 168.662c-.28 0-.58-.051-.86-.159a265.24 265.24 0 0 0-12.27-4.29 2.458 2.458 0 0 1-1.58-3.089 2.457 2.457 0 0 1 3.09-1.582c4.18 1.35 8.39 2.821 12.49 4.37a2.452 2.452 0 0 1 1.43 3.163 2.45 2.45 0 0 1-2.3 1.587Z"/><path fill="url(#u)" d="M2201.3 160.858a2.46 2.46 0 0 1-2.37-1.808 2.465 2.465 0 0 1 1.72-3.014c4.23-1.155 8.54-2.221 12.82-3.17 1.32-.3 2.63.542 2.92 1.864a2.455 2.455 0 0 1-1.86 2.927c-4.2.931-8.44 1.978-12.58 3.112-.22.06-.44.089-.65.089Z"/><path fill="url(#v)" d="M2343.53 160.619c-.22 0-.43-.028-.64-.085a265.723 265.723 0 0 0-12.6-3.07 2.452 2.452 0 0 1-1.87-2.92 2.452 2.452 0 0 1 2.92-1.875c4.28.933 8.59 1.984 12.82 3.126 1.31.353 2.09 1.7 1.73 3.008a2.443 2.443 0 0 1-2.36 1.816Z"/><path fill="url(#w)" d="M2226.83 155.196c-1.17 0-2.21-.843-2.42-2.039a2.454 2.454 0 0 1 2.01-2.833c4.31-.738 8.7-1.382 13.05-1.912a2.455 2.455 0 0 1 2.74 2.138 2.462 2.462 0 0 1-2.14 2.733c-4.28.522-8.59 1.154-12.83 1.879a2.38 2.38 0 0 1-.41.034Z"/><path fill="url(#x)" d="M2317.98 155.044c-.14 0-.28-.01-.41-.034a270.85 270.85 0 0 0-12.83-1.835 2.452 2.452 0 0 1-2.15-2.725 2.445 2.445 0 0 1 2.72-2.149c4.35.515 8.75 1.144 13.07 1.869a2.444 2.444 0 0 1 2.01 2.826 2.451 2.451 0 0 1-2.41 2.048Z"/><path fill="url(#y)" d="M2252.79 152.032c-1.28 0-2.35-.984-2.45-2.274a2.456 2.456 0 0 1 2.27-2.627c4.36-.319 8.79-.538 13.18-.649 1.35-.044 2.48 1.036 2.52 2.391a2.46 2.46 0 0 1-2.39 2.516c-4.32.109-8.67.323-12.95.637-.06.004-.12.006-.18.006Z"/><path fill="url(#z)" d="M2292.01 151.968c-.06 0-.12-.002-.18-.006-4.28-.299-8.64-.5-12.95-.595a2.458 2.458 0 0 1-2.4-2.508c.03-1.356 1.16-2.449 2.51-2.399 4.39.097 8.82.3 13.18.605a2.448 2.448 0 0 1 2.28 2.619 2.454 2.454 0 0 1-2.44 2.284Z"/><path fill="#91B3FA" d="M2736.25 1317.29h-592.59v1142.85h592.59V1317.29Z"/><path fill="url(#A)" d="M2775.12 1416.05h-669.85l-122.6-514.988h649.03l169.81 471.798c8.94 20.15-5.14 43.19-26.39 43.19Z"/><path fill="url(#B)" d="m2631.7 908.116-730.87 3.063-20.25-63.474 706.27 3.974c24.77 0 44.85 15.321 44.85 34.219v22.218Z"/><g opacity=".89"><path fill="#fff" d="M2609.91 2149.74h-336.38c-.62 0-1.12-.51-1.12-1.13v-519.8c0-.62.5-1.12 1.12-1.12h336.38c.62 0 1.12.5 1.12 1.12v519.8c0 .62-.5 1.13-1.12 1.13Z" opacity=".71"/><path fill="#7D97F4" d="M2427.95 2121.52h-130.23c-.34 0-.62-.28-.62-.63v-464.36c0-.34.28-.62.62-.62h130.23c.34 0 .62.28.62.62v464.36c0 .35-.28.63-.62.63ZM2585.71 2121.52h-130.22c-.35 0-.63-.28-.63-.63v-464.36c0-.34.28-.62.63-.62h130.22c.35 0 .63.28.63.62v464.36c0 .35-.28.63-.63.63Z"/></g><path fill="#91B3FA" d="M78.464 2460.14h582.415V1317.29H68.288v1132.67c0 5.62 4.556 10.18 10.176 10.18Z"/><path fill="url(#C)" d="M32.909 1416.05h670.105l239.213-547.187-765.842 32.198L6.511 1372.85c-8.944 20.16 5.139 43.2 26.398 43.2Z"/><path fill="url(#D)" d="m176.386 908.115 775.966-12.804 60.748-52.895-788.388 9.263c-26.69 0-48.326 15.321-48.326 34.219v22.217Z"/><g opacity=".89"><path fill="#fff" d="M194.631 2149.74h336.377c.62 0 1.123-.51 1.123-1.13v-519.8c0-.62-.503-1.12-1.123-1.12H194.631c-.62 0-1.123.5-1.123 1.12v519.8c0 .62.503 1.13 1.123 1.13Z" opacity=".71"/><path fill="#7D97F4" d="M376.591 2121.52h130.225c.345 0 .624-.28.624-.63v-464.36c0-.34-.279-.62-.624-.62H376.591a.623.623 0 0 0-.624.62v464.36c0 .35.28.63.624.63Z"/><path fill="#91B3FA" d="M218.823 2121.52h130.225c.345 0 .624-.28.624-.63v-464.36c0-.34-.279-.62-.624-.62H218.823a.623.623 0 0 0-.624.62v464.36c0 .35.28.63.624.63Z"/></g><path fill="#BDD0FB" d="M1402.27 602.487S598.881 1209 578.978 1209v1260.01c0 22.96 18.612 41.57 41.57 41.57H2188.72c20.34 0 36.84-16.49 36.84-36.84V1209l-823.29-606.513Z"/><path fill="#7D97F4" d="M1620.72 2460.14H1110.2v-75.88c0-5.92 4.8-10.72 10.72-10.72h489.07c5.93 0 10.73 4.8 10.73 10.72v75.88Z"/><path fill="#91B3FA" d="M1620.72 2528.83H1110.2v-83.44c0-1.75 1.42-3.17 3.17-3.17h504.18c1.75 0 3.17 1.42 3.17 3.17v83.44Z"/><path fill="url(#E)" d="M1539.68 2373.54h-348.45v-676.21c0-1.96 1.6-3.56 3.56-3.56h341.33c1.97 0 3.56 1.6 3.56 3.56v676.21Z"/><path fill="#BDD0FB" d="M1515.08 1648.02h-299.24c-13.59 0-24.6-11.02-24.6-24.6v-21.49c0-12.93 10-23.65 22.89-24.55l299.24-20.79c14.23-.98 26.31 10.29 26.31 24.55v42.28c0 13.58-11.01 24.6-24.6 24.6Z" opacity=".9"/><path fill="#7D97F4" d="M1816.39 1346.05h-3.31c-86.06 0-161.4 60.92-161.4 146.98v154.99h164.71v-301.97ZM1651.68 1693.77v455.97c0 15.35 18.03 39.15 33.38 39.15h131.33v-495.12h-164.71ZM1861.37 1346.05H1853v301.97h164.71v-154.99c0-86.06-70.28-146.98-156.34-146.98ZM1853 2188.89h136.39c15.36 0 28.32-23.8 28.32-39.15v-455.97H1853v495.12ZM909.175 1346.05h-3.311c-86.06 0-161.402 60.92-161.402 146.98v154.99h164.713v-301.97Z" opacity=".9"/><path fill="#7D97F4" d="M744.462 1693.77v455.97c0 15.35 18.023 39.15 33.376 39.15h131.337v-495.12H744.462Z"/><path fill="#7D97F4" d="M954.148 1346.05h-8.37v301.97h164.712v-154.99c0-86.06-70.28-146.98-156.342-146.98ZM945.778 2188.89h136.392c15.36 0 28.32-23.8 28.32-39.15v-455.97H945.778v495.12Z" opacity=".9"/><path fill="url(#F)" d="M1317.07 2190.8h-52.59c-17.53 0-31.8-14.27-31.8-31.8v-388.79c0-17.53 14.26-31.8 31.8-31.8h52.59c17.54 0 31.81 14.27 31.81 31.8V2159c0 17.53-14.27 31.8-31.81 31.8Zm-52.59-448.57c-15.43 0-27.98 12.55-27.98 27.98V2159c0 15.43 12.55 27.98 27.98 27.98h52.59c15.43 0 27.99-12.55 27.99-27.98v-388.79c0-15.43-12.56-27.98-27.99-27.98h-52.59Z"/><path fill="url(#G)" d="M1463.83 2190.8h-52.59c-17.54 0-31.81-14.27-31.81-31.8v-388.79c0-17.53 14.27-31.8 31.81-31.8h52.59c17.54 0 31.8 14.27 31.8 31.8V2159c0 17.53-14.26 31.8-31.8 31.8Zm-52.59-448.57c-15.43 0-27.99 12.55-27.99 27.98V2159c0 15.43 12.56 27.98 27.99 27.98h52.59c15.43 0 27.98-12.55 27.98-27.98v-388.79c0-15.43-12.55-27.98-27.98-27.98h-52.59Z"/><path fill="url(#H)" d="M1317.07 2321.88h-52.59c-17.53 0-31.8-14.27-31.8-31.81v-44.72c0-17.53 14.26-31.8 31.8-31.8h52.59c17.54 0 31.81 14.27 31.81 31.8v44.72c0 17.54-14.27 31.81-31.81 31.81Zm-52.59-104.51c-15.43 0-27.98 12.55-27.98 27.98v44.72c0 15.43 12.55 27.99 27.98 27.99h52.59c15.43 0 27.99-12.56 27.99-27.99v-44.72c0-15.43-12.56-27.98-27.99-27.98h-52.59Z"/><path fill="url(#I)" d="M1463.83 2321.88h-52.59c-17.54 0-31.81-14.27-31.81-31.81v-44.72c0-17.53 14.27-31.8 31.81-31.8h52.59c17.54 0 31.8 14.27 31.8 31.8v44.72c0 17.54-14.26 31.81-31.8 31.81Zm-52.59-104.51c-15.43 0-27.99 12.55-27.99 27.98v44.72c0 15.43 12.56 27.99 27.99 27.99h52.59c15.43 0 27.98-12.56 27.98-27.99v-44.72c0-15.43-12.55-27.98-27.98-27.98h-52.59Z"/><path fill="#fff" d="M2031.96 2217.37h-396.5c-22.73 0-41.23-18.5-41.23-41.23v-686.5c0-108.56 88.32-196.88 196.88-196.88h85.2c108.56 0 196.88 88.32 196.88 196.88v686.5c0 22.73-18.49 41.23-41.23 41.23Zm-240.85-920.79c-106.45 0-193.06 86.6-193.06 193.06v686.5c0 20.63 16.78 37.41 37.41 37.41h396.5c20.63 0 37.41-16.78 37.41-37.41v-686.5c0-106.46-86.6-193.06-193.06-193.06h-85.2ZM1124.92 2217.37h-396.5c-22.736 0-41.231-18.5-41.231-41.23v-686.5c0-108.56 88.32-196.88 196.88-196.88h85.198c108.563 0 196.883 88.32 196.883 196.88v686.5c0 22.73-18.5 41.23-41.23 41.23Zm-240.851-920.79c-106.455 0-193.062 86.6-193.062 193.06v686.5c0 20.63 16.784 37.41 37.413 37.41h396.5c20.63 0 37.41-16.78 37.41-37.41v-686.5c0-106.46-86.61-193.06-193.064-193.06h-85.197Z"/><path fill="url(#J)" d="M1898.98 615.733h-136.2v221.759h136.2V615.733Z"/><path fill="url(#K)" d="M1943.87 651.665h-220.14v-62.003a6.088 6.088 0 0 1 6.09-6.095h204.77c5.12 0 9.28 4.154 9.28 9.278v58.82Z"/><path fill="url(#L)" d="m528.501 1272.59 873.769-670.102 829.4 643.342c30.15 23.39 74.37 7.01 82.01-30.37l11.64-56.9-923.05-703.154-893.469 682.434c-15.998 12.22-21.802 33.66-14.157 52.28l33.857 82.47Z"/><path fill="#7D97F4" d="M323.247 1563.17c-24.548 6.58-49.159 17.85-58.595 31.25-42.57 60.45 22.79 144.17 45.27 199.74 38.62 95.45 51.396 199.52 23.001 299.35-30.767 108.18-50.12 214.67-35.773 325.51 7.391 57.11 26.059 117.68 69.474 163.17 82.047 85.96 294.16 37.81 336.189-59.1 33.519-77.3 22.127-161.25-.349-238.32-37.81-129.66-100.444-252.66-139.238-382.04-29.666-98.94-13.674-296.24-152.237-339.22-25.339-7.86-61.7-7.32-87.742-.34Z"/><path fill="#91B3FA" d="M506.678 2785.7a6.45 6.45 0 0 1-6.568-8.22c95.904-335.01 46.552-635.71-11.735-828.97-63.219-209.61-150.297-341.62-151.17-342.93a6.447 6.447 0 0 1 1.79-8.94 6.439 6.439 0 0 1 8.942 1.79c.881 1.32 88.853 134.6 152.652 345.91 58.88 195.02 108.743 498.48 11.921 836.69a6.452 6.452 0 0 1-5.832 4.67Z"/><path fill="#91B3FA" d="M562.98 2409.44c-6.619-77.8 27.199-164.39 46.538-244.93 10.224-42.58 16.456-85.1 12.396-128.94-4.037-43.6-21.234-91.59.286-133.34 43.363-84.11 130.297-38.81 177.287 29.76 54.53 79.56 62.657 204.25 78.993 300.92 9.848 58.28 26.499 118.49 29.836 177.44 5.528 97.65-20.803 163.46-70.131 205.82-47.314 40.64-115.598 45.21-167.975 11.35-47.315-30.58-96.55-92.57-107.23-218.08Z"/><path fill="#7D97F4" d="M746.078 2783.62a6.54 6.54 0 0 1-3.112.03 6.45 6.45 0 0 1-4.79-7.76c1.087-4.6 107.24-463.63-18.619-845.25a6.454 6.454 0 0 1 4.106-8.15c3.315-1.11 7.028.73 8.143 4.11 127.018 385.15 20.017 847.63 18.921 852.26a6.468 6.468 0 0 1-4.649 4.76Z" opacity=".9"/><path fill="url(#M)" d="M2194.56 1929.97c14.02 14.49 34.51 26.87 48.92 34.57-20.9 26.7-49.32 53.55-87.1 80l-10.54 24.71-35.7-41.42s62.34-32.28 84.42-97.86Z"/><path fill="url(#N)" d="M2019.96 2729.13c-.02-.75.01-1.51.19-2.28 10.62-45.16 66.47-74.08 66.47-74.08l22.34 1.39c13.47 39.44 12.21 63.77 10.33 74.63-.05.31-.14.6-.22.89-18.38 1.94-56.24 3.63-99.11-.55Z"/><path fill="#7D97F4" d="M2119.07 2729.68c-.93 3.64-3.56 6.49-6.96 7.27-26.09 5.92-67.78 2.16-85.28.16-3.87-.44-6.74-3.96-6.87-7.98 42.87 4.18 80.73 2.49 99.11.55Z"/><path fill="url(#O)" d="m2117.4 2620.79-8.72 45.64c-.64 3.34-3.16 5.88-6.25 6.22-3.8.42-9.2.71-14.65 0-4.88-.63-8.36-5.53-7.58-10.86l5.92-40.5 31.28-.5Z"/><path fill="#7D97F4" d="M1923.36 2732.38c24.63-1.09 37.33-4.2 43.87-6.99.06 2.44.09 4.94.05 7.52-.04 2.76-2.05 5-4.56 5.03l-135.31 1.3c-4.32.04-6.92-4.92-5.11-8.91 17.76 1.18 62.99 3.73 101.06 2.05Z"/><path fill="url(#P)" d="M1822.29 2730.33c.16-.35.3-.7.52-1.03 11.68-16.89 41.58-50.62 101.48-66.01l28.83-1.38s13.21 22.12 14.11 63.48c-6.54 2.79-19.24 5.9-43.87 6.99-38.07 1.68-83.3-.87-101.07-2.05Z"/><path fill="url(#Q)" d="M1957.77 2618.11c-.29 2.15-3.72 34.9-5.04 47.6-.32 3.01-2.46 5.38-5.21 5.75-4.9.67-12.84 1.33-19.82.02-3.76-.71-6.53-4.28-6.6-8.47l-.83-51.29 37.5 6.39Z"/><path fill="url(#R)" d="M1971.3 2021.32s-65.32 265.55-58.7 598.27c.12 6.07 4.47 11.24 10.42 12.39 8.78 1.7 21.68 3.68 32.32 3.21 5.68-.25 10.36-4.54 11.23-10.16 8.83-57.37 59.63-380.57 90.68-433.41 0 0 25.61 286.72 21.3 435.75-.1 3.71 2.66 6.88 6.35 7.24 5.59.56 14.54.91 25.89-.49 4.31-.52 7.74-3.84 8.29-8.15 6.17-48.53 41.52-337.39 36.48-544.98-.29-11.71-31.97-62.12-31.97-62.12l-152.29 2.45Z"/><path fill="url(#S)" d="M1869.38 1702.87c10.89-18.68 21.77-37.35 32.66-56.02 85.54-63.85 216.37-34.34 266.88-28.8 16.57 1.81 31.82 9.72 42.91 22.15 44 49.29 141 184.63 31.65 324.34-14.41-7.7-34.9-20.08-48.92-34.57 11.79-34.99 12.08-79.47-14.67-133.58-.81 4.33-1.83 8.63-3.09 12.86-33.84 113.53-34.23 207.56-33.8 229.22a7.151 7.151 0 0 1-4.38 6.76c-46.62 19.56-137.13 9.82-167.52 5.79-5.58-.74-9.4-5.85-8.72-11.43 13.14-108.06-66.09-284.19-86.98-328.29-1.5-3.17-3.55-6.01-6.02-8.43Z"/><path fill="url(#T)" d="m2086.36 1528.57 10.53 92.25s-51.73 16.49-89.97-9.57l25.23-84.41 54.21 1.73Z"/><path fill="url(#U)" d="M2024.35 1424.23c-1.24 1.19-51.15 103.25-51.15 103.25l58.88 27.26 61.68-89.7s-48.79-60.87-69.41-40.81Z"/><path fill="url(#V)" d="M2067.95 1467.92c1.08 2.68.87 5.69-.57 8.19l-28.36 49.05a9.19 9.19 0 0 1-1.56 2.01c-3.42 3.28-15.14 12.87-24.52.23-7.99-10.77-15.49-20.56-23.42-24.52-4.63-2.31-10.25-.31-12.51 4.34-4.64 9.6-13.63 29.14-19.18 47.63-1.38 4.63 1.07 9.54 5.59 11.29 11.9 4.6 35.43 12.89 56.22 15.42 3.42.42 6.77-1.08 8.75-3.89 8.73-12.37 33.34-46.95 41.79-55.64 7.85-8.08 22.62-5.32 29.28-3.52 2.53.68 5.21.29 7.43-1.1 6.67-4.16 18.25-14.44 7.23-31.37-2.74-4.2-1.47-9.89 2.68-12.71 7.44-5.07 15.44-14.48 7.43-29.38-8.11-15.08-22.18-16.22-31.72-14.9-4.23.58-8.56-1.57-10.25-5.48-.75-1.74-2.2-3.22-4.87-3.71-5.03-.94-8.39-5.47-7.49-10.51 1.55-8.63.1-19.8-13.77-27.13-25.43-13.45-47.15 9.48-52.45 28.64-5.31 19.15 23.09 32.17 40.86 34.13 13.05 1.45 20.41 15.54 23.41 22.93Z"/><path fill="url(#W)" d="M2056.76 1538.58s13.44-31.52 27.81-30.55c14.37.98 25.89 15.09 8.37 31.44-21.8 20.35-36.18-.89-36.18-.89Z"/><path fill="url(#X)" d="M2059.7 2184.84a2.63 2.63 0 0 0 2.51-2.01c5.41-22.35 48.22-47.5 48.65-47.75a2.63 2.63 0 0 0 .95-3.59 2.615 2.615 0 0 0-3.59-.94c-1.84 1.07-45.18 26.53-51.11 51.05-.34 1.4.52 2.82 1.93 3.16.22.06.44.08.66.08Z"/><path fill="url(#Y)" d="M1694.17 1734.76c98.12 13.11 160.93-49.68 207.87-87.91 61.97-50.48 111.2-27.2 111.2-27.2l-64.88 128.83c-98.45 95.86-201.27 76.58-266.38 47.08-1.39-24.66 4.87-45.42 12.19-60.8Z"/><path fill="url(#Z)" d="m1555.65 1678.57 32.75 16.95c39.31 23.08 74.35 35.04 105.77 39.24-7.32 15.38-13.58 36.14-12.19 60.8-41.45-18.78-67.61-41.7-67.61-41.7-74.24-42.67-58.72-75.29-58.72-75.29Z"/><path fill="url(#aa)" d="M1460.76 1725.86c1.98-7 7.04-12.72 13.75-15.54l65.45-27.56s.86-8.46-14.15-13.96c-15-5.5-11.78-22.26-11.78-22.26s20.52 8.96 50.59 23.22c17.19 8.16 27 22.89 32.26 34.01l-16.6 22.58c-40.41 12.85-81.45 15.84-122.97 11.67l3.45-12.16Z"/><path fill="url(#ab)" d="M2208.82 1700.66c10.01-16.54 27.49-27.4 38.03-43.62 13.28-20.42 13.73-47.47 5.03-70.22-7.22-18.88-20.07-35.18-27.43-54.01-9.91-25.33-10.1-36.23-5.58-61.67 3.97-22.4 12.68-46.26 34.18-59.11 26.6-15.89 59.14-18.91 89.59-13.16 31.6 5.97 62.24 19.39 85.36 41.75 23.12 22.36 38.2 53.73 37.81 85.89-.26 21.76-7.26 44.19-.29 64.8 5.43 16.03 19.52 28.82 36 32.67 18.31 4.28 37.35-1.98 56.15-1.74 18.64.24 37.12 7.16 51.35 19.2 12.6 10.67 21.94 25.63 24.06 42.01 2.13 16.37-3.57 33.99-16.16 44.67-8.61 7.31-20.72 12.26-23.9 23.1-3.56 12.12 6.88 24.3 18.51 29.22 11.64 4.93 24.73 5.35 36.57 9.75 26.49 9.86 42.54 39.72 40.47 67.91-2.07 28.19-19.9 53.71-43.29 69.58-23.39 15.87-51.78 22.99-79.95 25.29-28.17 2.3-56.48.05-84.72-1.28-32.29-1.52-65.23-1.95-95.85-12.31-30.97-10.47-57.73-30.51-82.69-51.64-11.81-10.01-23.79-20.95-29.09-35.49-3.86-10.56-3.87-22.29-8.3-32.62-9.5-22.17-35.84-31.6-51.08-50.3-15.44-18.95-17.45-47.75-4.78-68.67Z"/><path fill="#BDD0FB" d="M2559.19 1740.5c.06 0 .12 0 .18-.01 13.36-2.46 25.13-12.24 29.99-24.92 4.87-12.68 2.65-27.82-5.63-38.58-12.31-15.98-33.98-20.11-55.12-22.98l-38.31-5.2c-21.62-2.93-43.77-7.13-56.21-23.1-13.26-17.05-10.61-40.33-8.05-62.85.29-2.57.58-5.13.84-7.66 3.35-32.16-.01-60.13-10.01-83.11-12.19-28.04-34.91-48.68-60.79-55.19a.956.956 0 0 0-1.18.71c-.13.52.18 1.05.71 1.18 25.29 6.37 47.52 26.58 59.47 54.07 9.86 22.68 13.18 50.31 9.86 82.14-.26 2.52-.55 5.07-.84 7.64-2.61 22.91-5.3 46.59 8.45 64.26 12.89 16.56 35.46 20.86 57.48 23.85l38.31 5.19c20.74 2.81 41.98 6.85 53.84 22.24 7.88 10.23 9.98 24.63 5.36 36.69-4.62 12.06-15.82 21.36-28.52 23.7-.53.1-.88.6-.79 1.13.09.48.5.8.96.8Z"/><path fill="#BDD0FB" d="M2547.11 1728.74c.48 0 .96-.17 1.33-.52 4.69-4.39 10-9.37 13.14-15.67 2.87-5.73 4.29-14.23-.29-20.92-2.98-4.35-7.85-6.85-12.67-8.9-11.71-4.98-24-8.54-36.56-10.59-8.17-1.33-16.53-2.03-24.61-2.7-10.44-.87-21.24-1.77-31.56-4.05-12.36-2.73-34.52-10.2-44.16-29.6-7.79-15.68-4.9-33.16-1.83-51.68 2.48-15 5.05-30.53 1.53-45.28a1.952 1.952 0 0 0-2.36-1.44c-1.04.25-1.69 1.3-1.44 2.35 3.34 13.98.83 29.11-1.59 43.74-3.03 18.31-6.16 37.24 2.2 54.05 10.36 20.86 33.77 28.79 46.8 31.67 10.59 2.34 21.52 3.25 32.09 4.13 8.01.67 16.29 1.36 24.31 2.66 12.24 2 24.24 5.47 35.65 10.33 3.98 1.7 8.45 3.82 10.98 7.52 2.99 4.36 3 11.02.02 16.96-2.83 5.68-7.65 10.2-12.31 14.56-.79.74-.83 1.98-.09 2.76.38.42.9.62 1.42.62Z"/><path fill="url(#ac)" d="M2236.72 1662.94c18.24-5.79 71.45-16.79 122.97 29.24 8.73 7.8 12.45 19.82 9.56 31.17-12.83 50.42-46.41 199.3-13.84 262.96 0 0-54.59 62.18-116.03 13.77 0 0-29.12-118.15-65.6-169.64-25.18-35.54 37.06-135.59 52.83-159.77 2.39-3.67 5.95-6.4 10.11-7.73Z"/><path fill="url(#ad)" d="M2285.73 1562.4s28.34 76.24 30.92 110.03c0 0-29.74 14.11-58.34-8.43 0 0-4.2-76.54-8.7-90.19l36.12-11.41Z"/><path fill="url(#ae)" d="M2246.39 1458.46s-69.31 100.36-26.46 128.5 92.19-43.18 92.19-43.18 15.57-54.58-1.93-72.73c-17.5-18.14-63.8-12.59-63.8-12.59Z"/><path fill="url(#af)" d="M2278.82 1434.22s-32.44 8.24-36.77 23.05c-4.33 14.81 46.65 27.66 60.88 28.1l12.42 59.29s32.97-56.49 19.03-88.59c-13.94-32.09-55.56-21.85-55.56-21.85Z"/><path fill="url(#ag)" d="M2298.25 1536.7s27.09-32.41 38.4-11.75c11.31 20.66-24.25 36.88-36.82 26.85l-1.58-15.1Z"/><path fill="url(#ah)" d="M2172.6 2250.2c.29 5.38-8.47 48.23-13.25 71.09-1.92 9.2-.33 18.77 4.47 26.85l182.98 296.96a40.91 40.91 0 0 1 4.86 11.59c3.49 14.02 10.82 48.39 7.79 79.82l-8.91 19.29 39.72-9.7 6.94-107.17-11.39-6.7a53.579 53.579 0 0 1-22.09-25.04c-16.74-38.87-58.35-137.83-69.44-186.2-12.61-54.98-74.6-98.8-74.6-98.8l10.36-25.62-57.44-46.37Z"/><path fill="url(#ai)" d="M2433.96 2708.56s-22.08-33.78-24.82-47.02c-2.75-13.24-10.18-36.59-23.33-29.31 0 0-5.22 64.62-2.65 89.8 2.56 25.18-28.11 24.86-28.11 24.86s-8.43 1.33-14.52 7.61c-4.2 4.34-1.03 11.71 5.01 12 10.04.48 25.98.39 42.66-3.11 5.83-1.22 10.08-6.27 10.34-12.22l3.22-74.33 27.7 33.84 4.5-2.12Z"/><path fill="url(#aj)" d="M2279.79 2296.24s10.6 268.1 12.07 306.18c1.46 38.07-4.05 122.6-41.82 148.44l16.81 12.04s20.48-17.99 40.22-52.28c22.17-38.52 28.95-45.61 28.95-45.61l-7.81-15.36a34.044 34.044 0 0 1-3.11-21.8c7.6-40.07 32.99-173.35 40.03-202.08 8.32-33.91 8.23-79.02-23.22-116.27-31.44-37.25-62.12-13.26-62.12-13.26Z"/><path fill="url(#ak)" d="M2322.76 2774.09c1.18-.01 2.17-.87 2.32-2.05 1.13-8.96 5.84-44.89 10.02-54.25 4.79-10.71 20.26-55.71-.96-59.17 0 0-51.38 77.73-61.31 88.25-9.94 10.53-22.79 3.99-22.79 3.99s-9.8 3.07-17.07 12.67c-3.46 4.57-.06 11.15 5.67 11.11l35.45-.23c10.29-.07 19.45-6.47 23.12-16.09 5.99-15.68 16.34-38.71 28.67-49.05l-5.49 62.25c-.13 1.39.97 2.58 2.37 2.57Z"/><path fill="url(#al)" d="M2230.52 1971.29s8.4 25.33-3.19 67.46l-71.84 267.01a8.248 8.248 0 0 0 5.31 9.94c22.9 7.8 98.11 29.69 200.17 21 5.13-.44 9.39-4.15 10.43-9.2 6.24-30.41 27.54-134.16 31.93-155.48 16.72-81.23 35.43-168.85-53.93-220.2-40.51 18.13-78.39 29.04-118.88 19.47Z"/><path fill="url(#am)" d="M2367.11 1702.08s87.76 70.57 110.84 168.57c23.07 97.99-124.8 110.83-124.8 110.83s-20.45-22.12-44.18-13.73-2.48-39.14 25.43-39.46c27.92-.33 15.35 21.95 54.55 3.43 38.18-18.05 61.09-72.32-38.37-152.43-5.77-4.64-10.4-10.6-13.25-17.44-19.84-47.69-5.22-79.4 29.78-59.77Z"/><path fill="url(#an)" d="M1594.38 2146.94s49.76 134.06 125.42 117.61c0 0 7.81 45.61-4.93 50.99 0 0-113.5 3.29-124.78-152.59l4.29-16.01Z"/><path fill="url(#ao)" d="M1596.52 2178.36c-.22 2.32 8.42 3.93 11.17-5.98-.75-4.3-2.1-23.13-5.39-26.06-17.56-15.58-48.88-33.11-48.88-33.11-3.5 5.35 1.09 8.87 1.09 8.87l15.63 10.55c-1.63 5.4-4.01 10.17-4.28 16.34-.2 4.67 1.52 9.24 4.62 12.79 3.11 3.55 7.3 8.14 11.08 11.63 7.14 6.59 14.96 4.97 14.96 4.97Z"/><path fill="url(#ap)" d="m1597.11 2156.45-5.76-9.04-13.76-7.35c-2.15 1.75-3.06 4.08.44 7.74s11.19 22.39 11.19 22.39l7.89-13.74Z"/><path fill="url(#aq)" fill-rule="evenodd" d="M1719.08 2090.92s24.02-21.7-6.87-45.22c-29.02-22.1-50.23 7.56-40.61 26.64.68 1.36-.09 3-1.57 3.32-2.54.55-4.73 3.08-.73 12 .34.77.23 1.66-.27 2.34-3.56 4.77-15.43 23.89 20.37 26.81.64.05 1.29-.17 1.77-.6l27.91-25.29Z" clip-rule="evenodd"/><path fill="url(#ar)" fill-rule="evenodd" d="M1845.28 2122.77s2.3-27.69 17.12-36.72c14.82-9.02 43.59-16.7 55.64 13.41 5.75 14.36 3.85 21.19.29 24.41-3.25 2.94-3.62 7.5-1.47 11.33 2.44 4.36 2.77 9.75-4.59 14.65-2.17 1.44-3.63 3.57-4.09 5.97-1.93 10.04-12.2 34.13-67.1 7.8l4.2-40.85Z" clip-rule="evenodd"/><path fill="url(#as)" fill-rule="evenodd" d="M1781.8 2072.99c10.81-4.64 33.69-9.36 51.5 21.78 1.24 2.17 3.04 3.97 5.23 5.18 10.61 5.85 41.31 27.1 13.35 65.46a13.329 13.329 0 0 0-2.43 5.94c-.94 6.5-4.03 20.9-13.33 24.45a13.334 13.334 0 0 0-6.65 5.56c-6.25 10.29-24.07 31.93-54.05 9.33a13.395 13.395 0 0 0-5.15-2.38l-41.4-9.12c-2.21-.49-4.49-.39-6.65.24-5.07 1.48-15.29 2.77-19.1-9.14-.77-2.42-2.21-4.58-4.15-6.23-6.94-5.9-21.68-21.9-10.53-44.33 1.25-2.51 1.71-5.34 1.27-8.11-1.3-8.4-1.99-27.05 15.45-35.1 2.62-1.21 4.8-3.19 6.13-5.75 5.82-11.19 24.77-39.86 58.16-18.83 3.71 2.33 8.32 2.77 12.35 1.05Z" clip-rule="evenodd"/><path fill="url(#at)" fill-rule="evenodd" d="m1725.57 2730.9 6.03 6.96-4.14 15.12a10.664 10.664 0 0 1-8.38 7.69c-13.46 2.46-43.97 6.92-59.67.16 0 0-4.88-32.71 49.2-22.97l16.96-6.96Z" clip-rule="evenodd"/><path fill="url(#au)" fill-rule="evenodd" d="m1819.9 2748.27 3.21 7.88-1.3 28.35c-.19 3.99-3.4 7.33-7.73 8-5.92.91-14.52 1.83-22.61 1.21-6.34-.49-10.31-6.44-7.83-11.76l9.55-20.45c1.42-3.06 4.03-5.4 7.22-6.5l19.49-6.73Z" clip-rule="evenodd"/><path fill="url(#av)" fill-rule="evenodd" d="m1792.44 2195.55 6.16 61s-33.16 11.25-55-1.44l5.9-61.25 42.94 1.69Z" clip-rule="evenodd"/><path fill="url(#aw)" fill-rule="evenodd" d="M1845.63 2529.52s-15.74 175.48-26.14 229.17c0 0-7.77 5.67-19.41-1.64l-14.13-234.17 59.68 6.64Z" clip-rule="evenodd"/><path fill="url(#ax)" fill-rule="evenodd" d="m1775.68 2540.06-43.12 196.51s-11.73 12.17-26.98 0l7.44-206.58 62.66 10.07Z" clip-rule="evenodd"/><path fill="url(#ay)" fill-rule="evenodd" d="m1830.23 2261.15 10.79 1.2c20.89 22.4 59.2 176.3 73.02 209.03l56.24-9.19c2.2-.45 4 1.74 3.15 3.82-2.5 6.1-11.86 23.71-48.36 23.71-17.06 0 9.56 13.23-.64 17.77 0 0-22.41-8.07-22.44-22.26 0 0-64.25-146.34-77.46-161.74-13.21-15.4 5.7-62.34 5.7-62.34Z" clip-rule="evenodd"/><path fill="url(#az)" fill-rule="evenodd" d="M1841.02 2262.35s-57.15-21.17-128.49.75c0 0-8 54.01-3.88 79.72l122.93 4.45 9.44-84.92Z" clip-rule="evenodd"/><path fill="url(#aA)" fill-rule="evenodd" d="M1710.33 2359.7s-39.29 126.12-45.12 210.16c-.3 4.32 2.95 8.05 7.27 8.36 8.18.58 22.6 2.6 42.19 9.12 31.76 10.58 58.06 7.09 81.81.27 18.64-5.35 65.25-10.03 84.44-11.8 4.57-.42 7.8-4.65 6.99-9.17-5.58-31.1-26.78-141.45-58.93-216.47l-118.65 9.53Z" clip-rule="evenodd"/><path fill="url(#aB)" fill-rule="evenodd" d="m1708.24 2339.91 2.08 19.79s37.81.14 121.33-2.67l.43-14.31s-92.52 1.81-123.84-2.81Z" clip-rule="evenodd"/><path fill="url(#aC)" fill-rule="evenodd" d="M1708.52 2136.42c-9.5 36.67-6.73 78.82 36.43 88.28 29.85 6.54 61.23-23.88 70.72-60.55 9.49-36.68-6.76-64.62-36.35-72.27-29.59-7.66-61.31 7.86-70.8 44.54Z" clip-rule="evenodd"/><path fill="url(#aD)" fill-rule="evenodd" d="M1711.76 2147.73s-1.41-22.18-12.47-15.34 4.27 33.42 11.11 34.98c6.84 1.56 1.36-19.64 1.36-19.64Z" clip-rule="evenodd"/><path fill="url(#aE)" fill-rule="evenodd" d="M1806.39 2173.31s3.31-16.92 15.29-9.1c11.99 7.82-10.88 35.46-24.97 29.31l9.68-20.21Z" clip-rule="evenodd"/><path fill="url(#aF)" fill-rule="evenodd" d="M1824.13 2159.86s-34.31 37.15-52.14-39.94c0 0-17.79 23.03-25.91 2.66 0 0-35.42 12.14-39.33-2.76-3.92-14.9 47.88-55.29 89.53-26.3s27.85 66.34 27.85 66.34Z" clip-rule="evenodd"/><path fill="url(#aG)" d="M2320.17 2010.03s98.86 141.56 182.98 160.8c0 0-6.69 40.44-21.35 46.63 0 0-80.54-19.24-166.57-189.01l4.94-18.42Z"/><path fill="url(#aH)" d="M2337.17 2049.93c-.24 2.67 9.7 4.52 12.87-6.88-.87-4.95-2.42-26.63-6.21-30-20.22-17.93-56.27-38.11-56.27-38.11-4.03 6.15 1.26 10.21 1.26 10.21l17.99 12.14c-1.87 6.22-4.61 11.72-4.92 18.81-.24 5.38 1.75 10.64 5.32 14.72 3.58 4.09 8.4 9.37 12.74 13.38 8.23 7.6 17.22 5.73 17.22 5.73Z"/><path fill="url(#aI)" d="m2337.86 2024.71-6.64-10.4-15.84-8.47c-2.47 2.02-3.51 4.7.52 8.91 4.03 4.21 12.87 25.77 12.87 25.77l9.09-15.81Z"/><path fill="url(#aJ)" fill-rule="evenodd" d="M2738.42 2578.24c4.43-3.98 11.43-9.81 17.92-13.32a3.81 3.81 0 0 1 4.84 1.02c6.74 8.73 29.26 38.97 34.28 59.77.42 1.73-.46 3.49-2.03 4.32-5.81 3.02-21.12 6.29-42.94-24.08l-13.12-18.53c-2.04-2.88-1.58-6.82 1.05-9.18Z" clip-rule="evenodd"/><path fill="url(#aK)" fill-rule="evenodd" d="M2605.38 2510.36s7.34 99.03 47.68 132.03c35.32 28.9 90.32-23.73 103.47-37.28 1.91-1.97 2.84-4.77 2.29-7.47-1.32-6.51-4.48-11.57-10.02-14.74-3.9-2.23-8.81-1.72-12.11 1.33-10.95 10.12-39.64 34.68-54.29 28.82-18.34-7.33-29.34-102.69-29.34-102.69h-47.68Z" clip-rule="evenodd"/><path fill="url(#aL)" fill-rule="evenodd" d="M2700.74 2209.62s55.01-25.67 85.24-166.4l-15.05-7.71s-58.39 114.92-88.53 141.1c-30.14 26.19 18.34 33.01 18.34 33.01Z" clip-rule="evenodd"/><path fill="url(#aM)" fill-rule="evenodd" d="m2774.34 2052.45 11.64-9.23s15.88-15.41 21.45-28.51c5.57-13.1-10.79-24.91-16.96-27.69-6.17-2.78-9.56 3.08-8.33 16.25 0 0-14.06 16.34-12.03 40.17l4.23 9.01Z" clip-rule="evenodd"/><path fill="url(#aN)" fill-rule="evenodd" d="M2586.19 2765.05s4.37 16.22 4.07 28.21a3.83 3.83 0 0 1-3.31 3.71c-10.95 1.51-48.34 5.99-68.88.01a3.808 3.808 0 0 1-2.74-3.75c.19-6.45 4.73-21.58 42.25-25.45l28.61-2.73Z" clip-rule="evenodd"/><path fill="url(#aO)" fill-rule="evenodd" d="M2521.64 2516.86c-4.62 3.01 30.21 247.63 38.65 249.41 0 0 9.66 8.97 24.55-1.26-8.6-79.72-13.83-160.59-9.2-243.23l-54-4.92Z" clip-rule="evenodd"/><path fill="url(#aP)" fill-rule="evenodd" d="M2643.81 2368.39s-113.6 5.19-140.66 14.69c0 0 3.34 92.37 14.45 149.12a5.664 5.664 0 0 0 4.28 4.46c7.28 1.69 25.63 4.1 54.72-4.04 2.58-.73 4.3-3.18 4.12-5.86l-3-36.79a4.48 4.48 0 0 1 4.16-4.78l3.05-.46a4.472 4.472 0 0 1 4.78 4.43l5.75 37.31a5.661 5.661 0 0 0 3.85 5.33c8.54 2.89 30.76 8.29 60.06-.64 2.36-.71 4-2.89 4.02-5.36.3-45.29-7.84-99.46-19.58-157.41Z" clip-rule="evenodd"/><path fill="url(#aQ)" fill-rule="evenodd" d="M2601.23 2376.35s14.36 39.93 49.01 42.69l-7.66-45.53s-26.84-.2-41.35 2.84Z" clip-rule="evenodd"/><path fill="url(#aR)" fill-rule="evenodd" d="M2697.07 2158.28s-51.34 33-113.69 29.34c-52-3.06-83.59-16.32-101.16-31.28-6.28-5.35-15.21-6.22-22.15-1.76-7.59 4.89-17.7 12.49-28.32 23.58-2.66 2.79-3.21 7.05-1.18 10.33 15.15 24.47 31.3 41.57 48.42 51.52 5.8 6.39 8.9 14.77 8.68 23.39l-3.17 120.19c-.08 3.33 2.23 6.23 5.51 6.85 22.79 4.32 109.28 19.38 163.05 9.89v-129.62c0-9.64 5.33-18.4 13.76-23.08 11.29-6.27 28.11-18.55 44.92-41.67l-14.67-47.68Z" clip-rule="evenodd"/><path fill="url(#aS)" fill-rule="evenodd" d="M2506.59 2110.84s4.37-12.33-6.77-14.53c-11.14-2.2-.51 30.55-.51 30.55l7.28-16.02Z" clip-rule="evenodd"/><path fill="url(#aT)" fill-rule="evenodd" d="m2595.69 2144.31 4.4 48.34s-25.52 14.9-47.46 1.87l3.89-42.22 39.17-7.99Z" clip-rule="evenodd"/><path fill="url(#aU)" fill-rule="evenodd" d="M2500.93 2110.72c-5.1-3.37-9.31-7.25-11.86-11.88-3.99-7.24-8.06-15.86-4.68-23.4 2.27-5.06 7.7-8.91 7.71-14.46.02-4.07-3-7.51-4.01-11.46-1.59-6.24 2.24-12.87 7.62-16.41 5.38-3.53 11.98-4.58 18.38-5.2 2.98-.29 6.09-.53 8.67-2.04 3.01-1.76 4.84-4.94 7.15-7.55 9.09-10.22 27.33-10.09 36.27.27 4.61 5.34 7.11 12.89 13.39 16.09 3.46 1.75 7.48 1.85 11.28 2.62 8.75 1.78 16.37 7.16 22.77 13.38 9.58 9.3 17.24 19 19.72 32.37 1.32 7.08 1.32 14.34 1.32 21.55 0 9.17-.09 18.71-4.16 26.93-4.01 8.1-11.56 14.14-15.02 22.5-1.13 2.71-1.8 5.64-3.37 8.12-1.58 2.49-4.41 4.5-7.3 3.96-3.47-.66-5.23-4.41-7.09-7.41-9.21-14.86-39.93-21.67-55.3-29.05-11.54-5.56-29.12-10.73-41.49-18.93Z" clip-rule="evenodd"/><path fill="url(#aV)" fill-rule="evenodd" d="M2522.11 2069.9s-53.22 80.19 1.77 104.76c51.9 23.18 73.76-30.07 73.76-30.07s22.82-23.64 15.16-41.85c-7.67-18.2-77.72-42.8-90.69-32.84Z" clip-rule="evenodd"/><path fill="url(#aW)" fill-rule="evenodd" d="M2603.18 2128.34c-2.98-.65-5.91-2.57-8.46-6.17-3.78-5.34-4.57-12.18-7.2-18.17-4.21-9.62-13.3-16.72-23.44-19.46-9.17-2.48-18.86-1.63-28.36-1.83-12.93-.28-42.11-9.66-18.43-22.36 17.03-9.13 36.6-.56 53.48 4.13 16.15 4.48 34.89 13.66 45.46 27.27 4.56 5.87 7.3 14.01 5.7 21.42-1.95 9.06-10.53 16.97-18.75 15.17Z" clip-rule="evenodd"/><path fill="url(#aX)" fill-rule="evenodd" d="m2590.81 2151.75 9.25-25.44s17.88-8.21 15.53 5.62c-2.36 13.84-18.42 21.49-24.78 19.82Z" clip-rule="evenodd"/><defs><linearGradient id="a" x1="2355.17" x2="1661.42" y1="306.197" y2="1308.28" gradientUnits="userSpaceOnUse"><stop stop-color="#FF928E"/><stop offset="1" stop-color="#FE7062"/></linearGradient><linearGradient id="b" x1="2521" x2="2530.58" y1="323.074" y2="323.074" gradientUnits="userSpaceOnUse"><stop stop-color="#FEBBBA"/><stop offset="1" stop-color="#FF928E"/></linearGradient><linearGradient id="c" x1="2024.69" x2="2035.41" y1="299.858" y2="299.858" gradientUnits="userSpaceOnUse"><stop stop-color="#FEBBBA"/><stop offset="1" stop-color="#FF928E"/></linearGradient><linearGradient id="d" x1="2509.95" x2="2520.67" y1="299.166" y2="299.166" gradientUnits="userSpaceOnUse"><stop stop-color="#FEBBBA"/><stop offset="1" stop-color="#FF928E"/></linearGradient><linearGradient id="e" x1="2036.86" x2="2048.68" y1="276.975" y2="276.975" gradientUnits="userSpaceOnUse"><stop stop-color="#FEBBBA"/><stop offset="1" stop-color="#FF928E"/></linearGradient><linearGradient id="f" x1="2496.65" x2="2508.48" y1="276.379" y2="276.379" gradientUnits="userSpaceOnUse"><stop stop-color="#FEBBBA"/><stop offset="1" stop-color="#FF928E"/></linearGradient><linearGradient id="g" x1="2051.21" x2="2064.06" y1="255.437" y2="255.437" gradientUnits="userSpaceOnUse"><stop stop-color="#FEBBBA"/><stop offset="1" stop-color="#FF928E"/></linearGradient><linearGradient id="h" x1="2481.24" x2="2494.1" y1="254.916" y2="254.916" gradientUnits="userSpaceOnUse"><stop stop-color="#FEBBBA"/><stop offset="1" stop-color="#FF928E"/></linearGradient><linearGradient id="i" x1="2067.59" x2="2081.4" y1="235.437" y2="235.437" gradientUnits="userSpaceOnUse"><stop stop-color="#FEBBBA"/><stop offset="1" stop-color="#FF928E"/></linearGradient><linearGradient id="j" x1="2463.86" x2="2477.69" y1="234.972" y2="234.972" gradientUnits="userSpaceOnUse"><stop stop-color="#FEBBBA"/><stop offset="1" stop-color="#FF928E"/></linearGradient><linearGradient id="k" x1="2085.84" x2="2100.53" y1="217.156" y2="217.156" gradientUnits="userSpaceOnUse"><stop stop-color="#FEBBBA"/><stop offset="1" stop-color="#FF928E"/></linearGradient><linearGradient id="l" x1="2444.68" x2="2459.39" y1="216.732" y2="216.732" gradientUnits="userSpaceOnUse"><stop stop-color="#FEBBBA"/><stop offset="1" stop-color="#FF928E"/></linearGradient><linearGradient id="m" x1="2105.8" x2="2121.27" y1="200.759" y2="200.759" gradientUnits="userSpaceOnUse"><stop stop-color="#FEBBBA"/><stop offset="1" stop-color="#FF928E"/></linearGradient><linearGradient id="n" x1="2423.88" x2="2439.38" y1="200.368" y2="200.368" gradientUnits="userSpaceOnUse"><stop stop-color="#FEBBBA"/><stop offset="1" stop-color="#FF928E"/></linearGradient><linearGradient id="o" x1="2127.28" x2="2143.43" y1="186.403" y2="186.403" gradientUnits="userSpaceOnUse"><stop stop-color="#FEBBBA"/><stop offset="1" stop-color="#FF928E"/></linearGradient><linearGradient id="p" x1="2401.63" x2="2417.83" y1="186.039" y2="186.039" gradientUnits="userSpaceOnUse"><stop stop-color="#FEBBBA"/><stop offset="1" stop-color="#FF928E"/></linearGradient><linearGradient id="q" x1="2150.08" x2="2166.81" y1="174.223" y2="174.223" gradientUnits="userSpaceOnUse"><stop stop-color="#FEBBBA"/><stop offset="1" stop-color="#FF928E"/></linearGradient><linearGradient id="r" x1="2378.14" x2="2394.93" y1="173.888" y2="173.888" gradientUnits="userSpaceOnUse"><stop stop-color="#FEBBBA"/><stop offset="1" stop-color="#FF928E"/></linearGradient><linearGradient id="s" x1="2173.98" x2="2191.22" y1="164.337" y2="164.337" gradientUnits="userSpaceOnUse"><stop stop-color="#FEBBBA"/><stop offset="1" stop-color="#FF928E"/></linearGradient><linearGradient id="t" x1="2353.61" x2="2370.9" y1="164.042" y2="164.042" gradientUnits="userSpaceOnUse"><stop stop-color="#FEBBBA"/><stop offset="1" stop-color="#FF928E"/></linearGradient><linearGradient id="u" x1="2198.84" x2="2216.45" y1="156.832" y2="156.832" gradientUnits="userSpaceOnUse"><stop stop-color="#FEBBBA"/><stop offset="1" stop-color="#FF928E"/></linearGradient><linearGradient id="v" x1="2328.36" x2="2345.98" y1="156.615" y2="156.615" gradientUnits="userSpaceOnUse"><stop stop-color="#FEBBBA"/><stop offset="1" stop-color="#FF928E"/></linearGradient><linearGradient id="w" x1="2224.38" x2="2242.23" y1="151.794" y2="151.794" gradientUnits="userSpaceOnUse"><stop stop-color="#FEBBBA"/><stop offset="1" stop-color="#FF928E"/></linearGradient><linearGradient id="x" x1="2302.57" x2="2320.43" y1="151.665" y2="151.665" gradientUnits="userSpaceOnUse"><stop stop-color="#FEBBBA"/><stop offset="1" stop-color="#FF928E"/></linearGradient><linearGradient id="y" x1="2250.33" x2="2268.31" y1="149.257" y2="149.257" gradientUnits="userSpaceOnUse"><stop stop-color="#FEBBBA"/><stop offset="1" stop-color="#FF928E"/></linearGradient><linearGradient id="z" x1="2276.48" x2="2294.46" y1="149.213" y2="149.213" gradientUnits="userSpaceOnUse"><stop stop-color="#FEBBBA"/><stop offset="1" stop-color="#FF928E"/></linearGradient><linearGradient id="A" x1="2468.07" x2="2772.5" y1="928.335" y2="40.413" gradientUnits="userSpaceOnUse"><stop stop-color="#E1473D"/><stop offset="1" stop-color="#E9605A"/></linearGradient><linearGradient id="B" x1="2515.36" x2="2358.07" y1="2178.33" y2="1381.73" gradientUnits="userSpaceOnUse"><stop stop-color="#E1473D"/><stop offset="1" stop-color="#E9605A"/></linearGradient><linearGradient id="C" x1="442.258" x2="761.909" y1="1277.95" y2="-305.09" gradientUnits="userSpaceOnUse"><stop stop-color="#E1473D"/><stop offset="1" stop-color="#E9605A"/></linearGradient><linearGradient id="D" x1="625.75" x2="605.455" y1="2487.68" y2="1432.33" gradientUnits="userSpaceOnUse"><stop stop-color="#E1473D"/><stop offset="1" stop-color="#E9605A"/></linearGradient><linearGradient id="E" x1="2890.92" x2="2061.43" y1="921.69" y2="1526.81" gradientUnits="userSpaceOnUse"><stop stop-color="#E1473D"/><stop offset="1" stop-color="#E9605A"/></linearGradient><linearGradient id="F" x1="1232.68" x2="1348.88" y1="1964.61" y2="1964.61" gradientUnits="userSpaceOnUse"><stop stop-color="#FEBBBA"/><stop offset="1" stop-color="#FF928E"/></linearGradient><linearGradient id="G" x1="1379.44" x2="1495.63" y1="1964.61" y2="1964.61" gradientUnits="userSpaceOnUse"><stop stop-color="#FEBBBA"/><stop offset="1" stop-color="#FF928E"/></linearGradient><linearGradient id="H" x1="1232.68" x2="1348.88" y1="2267.71" y2="2267.71" gradientUnits="userSpaceOnUse"><stop stop-color="#FEBBBA"/><stop offset="1" stop-color="#FF928E"/></linearGradient><linearGradient id="I" x1="1379.44" x2="1495.63" y1="2267.71" y2="2267.71" gradientUnits="userSpaceOnUse"><stop stop-color="#FEBBBA"/><stop offset="1" stop-color="#FF928E"/></linearGradient><linearGradient id="J" x1="1815.63" x2="2373.76" y1="750.453" y2="-122.249" gradientUnits="userSpaceOnUse"><stop stop-color="#E1473D"/><stop offset="1" stop-color="#E9605A"/></linearGradient><linearGradient id="K" x1="1820.98" x2="1856.83" y1="308.066" y2="1186.55" gradientUnits="userSpaceOnUse"><stop stop-color="#E1473D"/><stop offset="1" stop-color="#E9605A"/></linearGradient><linearGradient id="L" x1="2384.57" x2="2212.06" y1="-484.238" y2="-189.955" gradientUnits="userSpaceOnUse"><stop stop-color="#FF928E"/><stop offset="1" stop-color="#FE7062"/></linearGradient><linearGradient id="M" x1="2244.02" x2="2109.71" y1="1998.42" y2="2000.58" gradientUnits="userSpaceOnUse"><stop stop-color="#FEBBBA"/><stop offset="1" stop-color="#FF928E"/></linearGradient><linearGradient id="N" x1="2120.1" x2="2019.38" y1="2691.64" y2="2693.26" gradientUnits="userSpaceOnUse"><stop stop-color="#09005D"/><stop offset="1" stop-color="#1A0F91"/></linearGradient><linearGradient id="O" x1="2090.24" x2="2112.19" y1="2577.43" y2="2745.02" gradientUnits="userSpaceOnUse"><stop stop-color="#FEBBBA"/><stop offset="1" stop-color="#FF928E"/></linearGradient><linearGradient id="P" x1="1966.77" x2="1821.79" y1="2696.79" y2="2699.13" gradientUnits="userSpaceOnUse"><stop stop-color="#09005D"/><stop offset="1" stop-color="#1A0F91"/></linearGradient><linearGradient id="Q" x1="1933.82" x2="1955.76" y1="2597.91" y2="2765.5" gradientUnits="userSpaceOnUse"><stop stop-color="#FEBBBA"/><stop offset="1" stop-color="#FF928E"/></linearGradient><linearGradient id="R" x1="1692.86" x2="2323.57" y1="1833.79" y2="2778.72" gradientUnits="userSpaceOnUse"><stop stop-color="#09005D"/><stop offset="1" stop-color="#1A0F91"/></linearGradient><linearGradient id="S" x1="2384.87" x2="1765.85" y1="1932.8" y2="1738.45" gradientUnits="userSpaceOnUse"><stop stop-color="#4F52FF"/><stop offset="1" stop-color="#4042E2"/></linearGradient><linearGradient id="T" x1="2030.45" x2="2109.02" y1="1504.74" y2="1821" gradientUnits="userSpaceOnUse"><stop stop-color="#FEBBBA"/><stop offset="1" stop-color="#FF928E"/></linearGradient><linearGradient id="U" x1="2041.64" x2="2008.85" y1="1443.09" y2="1656.73" gradientUnits="userSpaceOnUse"><stop stop-color="#FEBBBA"/><stop offset="1" stop-color="#FF928E"/></linearGradient><linearGradient id="V" x1="2081.33" x2="1972.81" y1="1543.33" y2="1431.69" gradientUnits="userSpaceOnUse"><stop stop-color="#09005D"/><stop offset="1" stop-color="#1A0F91"/></linearGradient><linearGradient id="W" x1="2075.43" x2="2079.43" y1="1673.57" y2="1525.23" gradientUnits="userSpaceOnUse"><stop stop-color="#FEBBBA"/><stop offset="1" stop-color="#FF928E"/></linearGradient><linearGradient id="X" x1="2042.08" x2="2095.16" y1="2084.62" y2="2175.61" gradientUnits="userSpaceOnUse"><stop stop-color="#09005D"/><stop offset="1" stop-color="#1A0F91"/></linearGradient><linearGradient id="Y" x1="2400.73" x2="1781.71" y1="1882.27" y2="1687.92" gradientUnits="userSpaceOnUse"><stop stop-color="#4F52FF"/><stop offset="1" stop-color="#4042E2"/></linearGradient><linearGradient id="Z" x1="1453.4" x2="1912.19" y1="1506.28" y2="2074.17" gradientUnits="userSpaceOnUse"><stop stop-color="#FEBBBA"/><stop offset="1" stop-color="#FF928E"/></linearGradient><linearGradient id="aa" x1="1394" x2="1852.78" y1="1554.27" y2="2122.16" gradientUnits="userSpaceOnUse"><stop stop-color="#FEBBBA"/><stop offset="1" stop-color="#FF928E"/></linearGradient><linearGradient id="ab" x1="4024.16" x2="3185.24" y1="-1678.2" y2="107.887" gradientUnits="userSpaceOnUse"><stop stop-color="#09005D"/><stop offset="1" stop-color="#1A0F91"/></linearGradient><linearGradient id="ac" x1="2708.63" x2="2548.51" y1="1564.85" y2="1666.33" gradientUnits="userSpaceOnUse"><stop stop-color="#FF928E"/><stop offset="1" stop-color="#FE7062"/></linearGradient><linearGradient id="ad" x1="2245" x2="2286.64" y1="1711.61" y2="1614.99" gradientUnits="userSpaceOnUse"><stop stop-color="#FEBBBA"/><stop offset="1" stop-color="#FF928E"/></linearGradient><linearGradient id="ae" x1="2239.02" x2="2329.73" y1="1478.54" y2="1666.89" gradientUnits="userSpaceOnUse"><stop stop-color="#FEBBBA"/><stop offset="1" stop-color="#FF928E"/></linearGradient><linearGradient id="af" x1="2278.63" x2="2888.7" y1="1448.22" y2="2115.36" gradientUnits="userSpaceOnUse"><stop stop-color="#09005D"/><stop offset="1" stop-color="#1A0F91"/></linearGradient><linearGradient id="ag" x1="14759.8" x2="13479.2" y1="-13049.7" y2="-11548.2" gradientUnits="userSpaceOnUse"><stop stop-color="#FEBBBA"/><stop offset="1" stop-color="#FF928E"/></linearGradient><linearGradient id="ah" x1="2506.59" x2="2175.46" y1="2902.19" y2="2326.56" gradientUnits="userSpaceOnUse"><stop stop-color="#FEBBBA"/><stop offset="1" stop-color="#FF928E"/></linearGradient><linearGradient id="ai" x1="2433.89" x2="2338.21" y1="2698.38" y2="2699.01" gradientUnits="userSpaceOnUse"><stop stop-color="#09005D"/><stop offset="1" stop-color="#1A0F91"/></linearGradient><linearGradient id="aj" x1="2450.99" x2="2877.22" y1="2447.41" y2="2251.21" gradientUnits="userSpaceOnUse"><stop stop-color="#FEBBBA"/><stop offset="1" stop-color="#FF928E"/></linearGradient><linearGradient id="ak" x1="2345.3" x2="2231.24" y1="2716.25" y2="2717" gradientUnits="userSpaceOnUse"><stop stop-color="#09005D"/><stop offset="1" stop-color="#1A0F91"/></linearGradient><linearGradient id="al" x1="2602.61" x2="2149.14" y1="1719.29" y2="2367.11" gradientUnits="userSpaceOnUse"><stop stop-color="#4F52FF"/><stop offset="1" stop-color="#4042E2"/></linearGradient><linearGradient id="am" x1="2461.26" x2="1989.01" y1="2006.62" y2="1330.19" gradientUnits="userSpaceOnUse"><stop stop-color="#FEBBBA"/><stop offset="1" stop-color="#FF928E"/></linearGradient><linearGradient id="an" x1="1628.71" x2="1746.99" y1="2206.27" y2="2369.77" gradientUnits="userSpaceOnUse"><stop stop-color="#FEBBBA"/><stop offset="1" stop-color="#FF928E"/></linearGradient><linearGradient id="ao" x1="1633.75" x2="1762.53" y1="2219.51" y2="2397.53" gradientUnits="userSpaceOnUse"><stop stop-color="#FEBBBA"/><stop offset="1" stop-color="#FF928E"/></linearGradient><linearGradient id="ap" x1="1575.69" x2="1597.11" y1="2155.12" y2="2155.12" gradientUnits="userSpaceOnUse"><stop stop-color="#FEBBBA"/><stop offset="1" stop-color="#FF928E"/></linearGradient><linearGradient id="aq" x1="1649.36" x2="1742.37" y1="2041.87" y2="2123.94" gradientUnits="userSpaceOnUse"><stop stop-color="#09005D"/><stop offset="1" stop-color="#1A0F91"/></linearGradient><linearGradient id="ar" x1="1919.91" x2="1845.61" y1="2133.07" y2="2119.72" gradientUnits="userSpaceOnUse"><stop stop-color="#09005D"/><stop offset="1" stop-color="#1A0F91"/></linearGradient><linearGradient id="as" x1="-1591.63" x2="-1240.7" y1="-1229.06" y2="-876.946" gradientUnits="userSpaceOnUse"><stop stop-color="#09005D"/><stop offset="1" stop-color="#1A0F91"/></linearGradient><linearGradient id="at" x1="1710.67" x2="1706.16" y1="2321.94" y2="2448.23" gradientUnits="userSpaceOnUse"><stop stop-color="#FF928E"/><stop offset="1" stop-color="#FE7062"/></linearGradient><linearGradient id="au" x1="1818.89" x2="1814.38" y1="2325.81" y2="2452.1" gradientUnits="userSpaceOnUse"><stop stop-color="#FF928E"/><stop offset="1" stop-color="#FE7062"/></linearGradient><linearGradient id="av" x1="1776.89" x2="1771.07" y1="2314.7" y2="2255.57" gradientUnits="userSpaceOnUse"><stop stop-color="#FEBBBA"/><stop offset="1" stop-color="#FF928E"/></linearGradient><linearGradient id="aw" x1="1845.63" x2="1785.95" y1="2641.83" y2="2641.83" gradientUnits="userSpaceOnUse"><stop stop-color="#FEBBBA"/><stop offset="1" stop-color="#FF928E"/></linearGradient><linearGradient id="ax" x1="1775.68" x2="1705.59" y1="2635.98" y2="2635.98" gradientUnits="userSpaceOnUse"><stop stop-color="#FEBBBA"/><stop offset="1" stop-color="#FF928E"/></linearGradient><linearGradient id="ay" x1="2001.06" x2="1805.84" y1="2553.98" y2="2285.75" gradientUnits="userSpaceOnUse"><stop stop-color="#FEBBBA"/><stop offset="1" stop-color="#FF928E"/></linearGradient><linearGradient id="az" x1="1983.53" x2="1893.32" y1="2141.29" y2="2211.2" gradientUnits="userSpaceOnUse"><stop stop-color="#FF928E"/><stop offset="1" stop-color="#FE7062"/></linearGradient><linearGradient id="aA" x1="1828.68" x2="1756.52" y1="2372.27" y2="2597.79" gradientUnits="userSpaceOnUse"><stop stop-color="#FF928E"/><stop offset="1" stop-color="#FE7062"/></linearGradient><linearGradient id="aB" x1="2020.95" x2="1910.44" y1="1913.06" y2="2104.75" gradientUnits="userSpaceOnUse"><stop stop-color="#E1473D"/><stop offset="1" stop-color="#E9605A"/></linearGradient><linearGradient id="aC" x1="1751.88" x2="1764.41" y1="2234.34" y2="2113.77" gradientUnits="userSpaceOnUse"><stop stop-color="#FEBBBA"/><stop offset="1" stop-color="#FF928E"/></linearGradient><linearGradient id="aD" x1="1696.81" x2="1709.58" y1="2221.41" y2="2106.5" gradientUnits="userSpaceOnUse"><stop stop-color="#FEBBBA"/><stop offset="1" stop-color="#FF928E"/></linearGradient><linearGradient id="aE" x1="1805.2" x2="1817.98" y1="2233.46" y2="2118.55" gradientUnits="userSpaceOnUse"><stop stop-color="#FEBBBA"/><stop offset="1" stop-color="#FF928E"/></linearGradient><linearGradient id="aF" x1="-1582.15" x2="-1231.22" y1="-1238.49" y2="-886.379" gradientUnits="userSpaceOnUse"><stop stop-color="#09005D"/><stop offset="1" stop-color="#1A0F91"/></linearGradient><linearGradient id="aG" x1="2383.12" x2="2533.18" y1="2071.26" y2="2278.69" gradientUnits="userSpaceOnUse"><stop stop-color="#FEBBBA"/><stop offset="1" stop-color="#FF928E"/></linearGradient><linearGradient id="aH" x1="2380.03" x2="2528.26" y1="2097.3" y2="2302.21" gradientUnits="userSpaceOnUse"><stop stop-color="#FEBBBA"/><stop offset="1" stop-color="#FF928E"/></linearGradient><linearGradient id="aI" x1="2313.2" x2="2337.86" y1="2023.18" y2="2023.18" gradientUnits="userSpaceOnUse"><stop stop-color="#FEBBBA"/><stop offset="1" stop-color="#FF928E"/></linearGradient><linearGradient id="aJ" x1="2747.33" x2="2784.3" y1="2570.02" y2="2635.2" gradientUnits="userSpaceOnUse"><stop stop-color="#4F52FF"/><stop offset="1" stop-color="#4042E2"/></linearGradient><linearGradient id="aK" x1="2679.97" x2="2684.45" y1="2332.51" y2="2783.26" gradientUnits="userSpaceOnUse"><stop stop-color="#FEBBBA"/><stop offset="1" stop-color="#FF928E"/></linearGradient><linearGradient id="aL" x1="2818.73" x2="2650.57" y1="1995.21" y2="2268.66" gradientUnits="userSpaceOnUse"><stop stop-color="#FEBBBA"/><stop offset="1" stop-color="#FF928E"/></linearGradient><linearGradient id="aM" x1="2805.06" x2="2636.9" y1="1986.81" y2="2260.25" gradientUnits="userSpaceOnUse"><stop stop-color="#FEBBBA"/><stop offset="1" stop-color="#FF928E"/></linearGradient><linearGradient id="aN" x1="2590.32" x2="2515.38" y1="2782.64" y2="2782.29" gradientUnits="userSpaceOnUse"><stop stop-color="#4F52FF"/><stop offset="1" stop-color="#4042E2"/></linearGradient><linearGradient id="aO" x1="2544.81" x2="2580.16" y1="2476.51" y2="2925.92" gradientUnits="userSpaceOnUse"><stop stop-color="#FEBBBA"/><stop offset="1" stop-color="#FF928E"/></linearGradient><linearGradient id="aP" x1="2659.38" x2="2507.87" y1="2450.5" y2="2460.91" gradientUnits="userSpaceOnUse"><stop stop-color="#09005D"/><stop offset="1" stop-color="#1A0F91"/></linearGradient><linearGradient id="aQ" x1="2654.26" x2="2616.2" y1="2352.63" y2="2412.77" gradientUnits="userSpaceOnUse"><stop stop-color="#09005D"/><stop offset="1" stop-color="#1A0F91"/></linearGradient><linearGradient id="aR" x1="3144.82" x2="2842.63" y1="1882.35" y2="2085.31" gradientUnits="userSpaceOnUse"><stop stop-color="#FF928E"/><stop offset="1" stop-color="#FE7062"/></linearGradient><linearGradient id="aS" x1="2472.03" x2="2553" y1="2162.45" y2="2003.76" gradientUnits="userSpaceOnUse"><stop stop-color="#FEBBBA"/><stop offset="1" stop-color="#FF928E"/></linearGradient><linearGradient id="aT" x1="2651.63" x2="2465.5" y1="2161.83" y2="2190.98" gradientUnits="userSpaceOnUse"><stop stop-color="#FEBBBA"/><stop offset="1" stop-color="#FF928E"/></linearGradient><linearGradient id="aU" x1="2532.01" x2="2629.86" y1="2114.33" y2="2041.45" gradientUnits="userSpaceOnUse"><stop stop-color="#09005D"/><stop offset="1" stop-color="#1A0F91"/></linearGradient><linearGradient id="aV" x1="2527.39" x2="2591.65" y1="2173.35" y2="2047.41" gradientUnits="userSpaceOnUse"><stop stop-color="#FEBBBA"/><stop offset="1" stop-color="#FF928E"/></linearGradient><linearGradient id="aW" x1="2545.25" x2="2627.08" y1="2110.97" y2="2036.07" gradientUnits="userSpaceOnUse"><stop stop-color="#09005D"/><stop offset="1" stop-color="#1A0F91"/></linearGradient><linearGradient id="aX" x1="2574.49" x2="2637.74" y1="2195.48" y2="2071.52" gradientUnits="userSpaceOnUse"><stop stop-color="#FEBBBA"/><stop offset="1" stop-color="#FF928E"/></linearGradient></defs></svg>