<svg xmlns="http://www.w3.org/2000/svg" width="1940" height="1680" fill="none"><path fill="url(#a)" d="M1387.87 26.037C945.222-77.95 551.673 147.994 353.032 377.274 154.391 606.553 57.364 906.743 117.827 1301.75c61.84 404 289.748 457.66 461.039 286.6 268.432-268.05 334.311-331.74 594.404-372.05 316.12-49 600.84-57.5 733.27-384.638 95.14-235.012 6.75-682.192-518.67-805.625Z" opacity=".15"/><path fill="url(#b)" d="M1600.91 627.317c86.59 273.546 20.02 545.853-108.64 697.643-190.84 225.15-503.402 324.77-771.96 251.04-340.234-93.41-441.203-356.12-440.303-510.83.83-142.596 48.606-360.5 286.279-484.184 214.629-111.692 328.084-201.85 389.251-332.623 61.173-130.775 105.653-216.064 250.233-139.305 144.58 76.759 330.74 314.79 395.14 518.259Z" opacity=".15"/><path fill="url(#c)" d="M1563.85 350.26c247.33 187.689 414.36 534.376 251.35 929.13-137.39 332.71-676.04 474.27-954.934 138.45-325.434-391.85-581.586-214.88-735.34-337.67-153.752-122.788-148.764-334.034-75.23-494.342 73.534-160.307 307.128-363.43 614.536-419.613 269.453-49.246 675.708 14.131 899.618 184.045Z" opacity=".15"/><path fill="#585E8C" d="M1533.29 1240.12c236.9 215.71-328.48 117.67-579.78 196-323.221 100.74-303.975-87.19-467.83-46.03-93.495 23.49-232.701-77.3-103.171-151.83 58.102-33.43 221.173-32.46 550.312-32.46s529.949-29.89 600.469 34.32Z"/><path fill="#fff" d="M566.658 1203.07c.873 6.88 3.853 43.27 5.303 45.29 1.45 2.03 24.182 1.01 32.285-2.48 8.103-3.48 19.469-8.1 19.019-12.49-.45-4.39-4.164-14.06-1.35-13.61 2.813.45 16.053 1.57 19.731 1.12 3.677-.45 1.426-16.51.976-20.92-.45-4.4-15.53-13.63-30.272-12.05-14.745 1.57-46.752 6.8-45.692 15.14ZM570.09 1188.72c-4.598 4.01-13.336 5.9-14.686-8.78-1.351-14.69-10.297-142.47-11.816-163.07-1.519-20.592-7.09-121.616-8.271-138.542-1.182-16.926-9.284-184.004-9.96-191.958-.675-7.954-1.646-34.457-1.161-36.482.485-2.026 24.625-28.035 24.625-28.035s27.852 561.127 21.269 566.867ZM561.481 281.047c-.578-3.692-16.543 3.207-18.4 5.064-1.857 1.857.675 33.402 0 39.828-.675 6.425-1.35 71.247-4.22 84.076-2.87 12.829-11.648 30.916-12.66 40.357-1.013 9.441-2.473 95.363-2.473 95.363l14.289 11.816s1.688-99.427 2.363-105.673c.675-6.246 16.712-44.396 15.699-56.044-1.013-11.648 2.363-71.911 3.376-81.196 1.013-9.283 5.064-14.178 2.026-33.591Z"/><path fill="#fff" d="M506.957 531.893c3.604 3.481 39.626 34.806 47.941 37.088 8.315 2.282 3.714 4.101 11.141 9.165 7.427 5.064 17.256 8.44 17.913 11.479.656 3.039-8.284 21.746-12.854 23.512-4.571 1.766-5.565 6.782-21.939 1.764-16.374-5.019-53.512-21.562-66.341-31.184-12.829-9.622-49.967-33.255-68.704-60.432-18.737-27.178-21.945-39.332-19.244-51.992 2.701-12.66 41.695-79.845 50.135-91.999 7.596 8.778 12.492 15.192 23.971 26.671s30.132 18.569 26.376 23.633c-3.756 5.064-25.194 37.644-29.583 43.046-4.389 5.402-8.272 6.415-4.727 10.635s8.44 5.908 19.581 20.763c11.141 14.853 18.352 20.141 26.334 27.851ZM616.633 677.066c-1.778 6.956.216 37.306 7.813 65.159 7.596 27.853 25.152 102.128 28.022 115.126 2.87 12.998 9.284 29.035 2.363 60.77-6.921 31.735-38.023 128.559-39.597 137.039-1.574 8.48 4.317 38.86 8.706 26.87 4.389-11.98 45.409-147.197 46.084-162.727.675-15.53 2.194-34.605-3.545-68.198-5.74-33.592-42.297-203.58-49.846-174.039ZM595.074 440.812c-7.826 3.957-26.616 18.213-27.291 21.139-.675 2.926 88.904 121.428 90.255 123.453 1.351 2.026 28.718-16.859 28.416-21.357-.302-4.497-79.619-129.181-91.38-123.235ZM509.039 236.089c-6.351 5.065-13.003 7.651-22.282 4.389-9.279-3.262-12.026-19.21-2.251-29.372 9.775-10.162 20.369-9.678 20.482-12.717.112-3.039-7.765-14.742 1.576-17.781 9.341-3.038 18.794-1.013 22.17 3.151 3.376 4.164 9.116-4.164 6.64-8.665-2.476-4.502-3.489-7.315-.788-15.755 2.701-8.44-1.351-18.906-1.351-24.421 0-5.514 1.125-27.347 22.395-49.516 21.269-22.17 11.029-22.453 33.874-28.839 22.845-6.386 35.87-5.331 44.452 4.756 8.582 10.086 42.877 45.128 44.902 53.455 2.026 8.328-.563 9.903 1.238 13.054s8.811 6.527 12.677 23.52c3.866 16.993 6.229 43.285-16.503 69.302-22.733 26.017-39.163 18.027-40.514 24.892-1.35 6.865-6.977 25.321-3.376 25.884 3.601.563 14.067 5.288 13.955 8.552-.113 3.264-5.739 33.199-41.301 34.887-35.562 1.688-36.8-36.912-31.961-38.825 4.839-1.913 14.18-1.688 16.318-5.514 2.138-3.826 10.016-25.884 7.54-29.035s-15.98-11.704-22.958-16.431c-6.978-4.726-56.044 3.939-64.934 11.029ZM700.24 429.428c-2.763 1.553-6.724 2.075-9.003 16.784s-2.701 45.449 4.614 69.307c7.315 23.858 19.694 83.053 24.083 95.994 4.389 12.942 10.353 46.647 17.274 64.371 6.921 17.725 25.067 67.806 26.08 72.096 1.013 4.289 12.999 7.021 11.817 0 3.798 6.484 13.673 5.049 11.732-3.729 7.934 8.44 13.336 1.688 10.888-5.908-2.448-7.596-5.233-16.374-4.473-20.341.76-3.967-.76-17.64-2.701-23.042-1.941-5.402-13.167-43.214-14.517-50.557-1.35-7.343-21.945-81.618-24.139-94.109-2.194-12.492-8.778-67.354-10.804-85.416-2.026-18.062-6.021-55.931-8.834-55.256-2.813.675-11.479 5.514-17.331 10.578-5.852 5.064-10.685 6.979-14.686 9.228ZM1155.65 137.731c.74 3.619 13.36 1.278 20.12 6.547 6.75 5.269 11.47 9.298 8.6 19.184-2.87 9.887-15.8 20.015-21.23 25.248-5.44 5.233-27.13 24.814-37.13 28.528-10 3.714-11.07 5.402-9.94 10.128 1.12 4.727 2.13 11.479-4.11 18.738-6.25 7.259-14.73 16.374-19.77 15.361-5.05-1.013-9.61-27.515-11.13-35.112-1.51-7.596-15.36-10.297-22.28-16.374-6.92-6.077-16.2-17.218-21.77-21.607-5.57-4.389-15.03-13.105-17.56-22.251-2.53-9.146-.34-21.728 10.8-22.886 11.15-1.158 7.08-10.4 8.44-14.114 1.36-3.714-1.85-1.151-.67-18.722 1.18-17.57 5.23-34.524 22.11-44.363 16.88-9.839 35.52-20.537 55.94-20.136 20.41.401 35.89 6.692 45.18 24.531 9.28 17.84-7.66 57.341-5.6 67.3ZM917.437 1291.19c-8.878.35-23.07.72-22.057-8.05 1.013-8.78 58.182-22.06 69.661-25.21 11.479-3.15 20.935-11.03 23.86-14.63 2.924-3.6 2.924-6.03.786-7.12-2.138-1.1-4.839-2.45-5.289-18.2-.45-15.76 1.801-140.68 1.463-164.65-.338-23.97 8.44-163.737 9.791-200.199 1.35-36.462 19.578-186.699 21.608-204.593 2.02-17.893 6.41-60.77 8.27-60.264 1.86.506 14.85 12.661 18.23 20.763 3.38 8.103-29.88 229.239-29.2 290.009.67 60.77-13.96 327.484-9.68 334.464 4.28 6.97 44.34-5.63 47.04.9 2.7 6.52 3.92 12.15 1.85 21.38-2.08 9.23-110.255 34.36-136.333 35.4ZM1156.86 1291.19c-10.72-.07-28.7 2.14-27.18-4.59 1.52-6.73 6.75-10.3 39.5-18.47 32.75-8.18 45.75-13.75 49.63-16.95 3.88-3.21 10.97-14.81 8.95-15-2.03-.2-5.57 1.66-9.62-8.47-4.06-10.13-30.9-186.36-32.92-195.64-2.03-9.29-18.74-123.739-20.43-140.619-1.68-16.88-20.42-159.522-23.12-179.61-2.7-20.088-10.48-55.537-12.08-62.627-1.6-7.09-14.07-20.65-19.32-23.295-5.26-2.645-23.46-6.246-26.5-12.154-3.04-5.908 21.94-12.66 39.67-.844 17.72 11.816 29.54 28.697 34.09 62.458 4.56 33.761 16.38 116.476 19.92 139.265 3.55 22.789 33.37 261.536 37.87 278.646 4.5 17.1 18.91 129.86 20.71 133.46 1.8 3.61 37.24 1.81 42.25 6.76 5.02 4.95 7.07 7.23 6.27 14.98-.8 7.75-107.09 42.82-127.69 42.7Z"/><path fill="#C98A5A" d="m893.016 379.293 136.394 4.053 59.76 180.9-138.253 4.447-57.901-189.4Z"/><path fill="#fff" d="M910.319 434.661c.792 3.292-.084 13.758 7.596 13.927 7.681.169 20.913-.391 24.763-.997 3.85-.606 24.444 15.937 4.778 18.553 15.277 4.305 19.159 16.627 7.09 17.978 21.185 4.284 16.796 15.446-1.857 15.446s-33.001.422-39.754-3.461c-6.752-3.883-11.31-17.303-12.576-26.587-1.266-9.284.928-24.393 1.266-29.879.338-5.487 7.596-9.538 8.694-4.98ZM1012.36 457.45c4.91-.301 32.41 3.252 36.46 1.71 4.05-1.542 5.24-2.723 3.04-8.125-2.19-5.402-4.61-17.678 1.09-15.024 5.7 2.654 7.18 7.712 25.58 11.621 18.4 3.909 25.4 2.727 28.82 7.96 3.42 5.233 7.14 21.269 6.63 34.099-.5 12.829.51 14.517-9.28 14.855-9.79.338-28.01-1.091-47.61-1.688-19.59-.598-31.22-3.894-36.8-5.999-5.57-2.104-12.32-11.726-.67-14.427-17.22-7.18-8.18-11.799-2.32-12.314-11.18-5.075-13.21-12.162-4.94-12.668Z"/><path fill="#ED7372" d="m526.932 439.219-1.013-51.542-30.133 40.059s-22.76-15.639-30.413-23.741c-7.653-8.103-22.958-24.083-18.569-29.485 4.389-5.402 48.054-57.282 51.992-60.883 3.938-3.601 31.301-23.97 40.859-25.884 2.738 7.093 4.432 47.835 3.503 55.594-.929 7.759-.57 59.815-3.503 67.072-2.932 7.258-12.524 38.941-12.723 28.81ZM563.423 287.743c.528 3.587 7.511 48.699 7.511 50.543 0 1.844 4.389 42.188 6.415 43.201 2.026 1.013 73.599-.432 74.443-2.917.844-2.485 1.013-96.003 0-97.522-1.013-1.519-5.575 0-5.575 0s-3.602 30.605-38.261 33.871c-34.659 3.266-36.853-31.339-37.866-33.702-1.013-2.364-7.936-2.087-6.667 6.526ZM694.037 430.31c2.486 1.346 14.585-5.799 21.964-11.01 7.379-5.211 16.245-7.766 15.519-20.257-.727-12.492-4.609-47.041-15.075-66.397-10.466-19.356-21.755-32.861-26.83-36.574-5.074-3.714-18.842-11.185-21.496-11.079-2.654.106 1.01 8.546 2.216 18.337 1.207 9.791 15.172 68.21 17.244 75.963 8.103 30.319 2.788 49.03 6.458 51.017Z"/><path fill="#C98A5A" d="m550.902 617.071-42.539 47.222-11.929-9.003 38.978-45.34 15.49 7.121ZM566.249 573.828l30.568-36.343 13.279 21.023-27.241 29.511c.002 0-20.46-7.567-16.606-14.191Z"/><path fill="#A4EBC4" d="M1026.03 577.339c-.33 3.001-2.54 4.291 5.74 14.911 8.29 10.62 13.8 20.427 16.88 19.946 3.09-.48 56.89-46.711 58.07-46.036 1.19.675 58.41 52.161 60.94 50.642 2.53-1.519 36.63-44.396 37.48-48.11.84-3.714-3.38-73.213-3.89-81.34 13.34-4.92 40.86-14.373 51.66-24.67 10.8-10.297 15.36-25.827 9.96-41.695-5.4-15.868-13.95-48.333-38.83-87.368-24.87-39.035-36.46-55.779-44.56-59.662-8.1-3.883-39.05-16.973-41.36-19.919-2.31-2.947-19.04-21.9-20.26-22.789-1.21-.888-6.12 14.932-14.54 24.093-8.41 9.161-13.32 9.514-15.67 1.903-2.35-7.612-5.07-21.945-6.92-20.594-1.86 1.35-17.9 17.725-21.44 20.426-3.55 2.701-18.91 3.882-27.01 11.985-8.1 8.103-20.76 16.881-43.214 53.343-22.451 36.462-30.554 57.732-30.554 57.732l72.758 1.688s13.67 47.266 14.85 49.629c1.18 2.363 6.92 3.039 16.71 9.115 9.79 6.077 32.42 10.149 38.75 11.236 6.32 1.087 8.16 4.97 8.85 9.696.68 4.727 2.49 23.295 2.6 29.203.11 5.908-.23 12.492-5.8 12.829-5.57.338-38.19-.22-38.19-.22l20.13 60.932-62.97 2.758-.17 10.336Z"/><path fill="#C4E9F2" d="M723.31 1290.34H578.362s-5.177-5.74-5.852-13.62c-.675-7.88.004-24.33-.549-27.32-.553-3 15.838 1.64 29.125-2.45 13.288-4.1 21.861-12 21.851-15.54-.01-3.53-3.959-11.98-1.023-11.63 2.936.35 20.78 2.62 23.745-.01 9.566 12.39 28.472 39.06 32.861 44.57 4.389 5.52 12.829 4.17 26.559 6.75 13.729 2.59 18.823 4.46 18.231 19.25Z"/><path fill="#EB71DD" d="M688.135 560.141c-7.487-4.769-14.004-16.142-19.141-23.215-9.955-13.706-18.005-28.683-28.357-42.11-3.444-4.468-6.936-8.9-10.439-13.322-7.788-9.833-17.626-20.328-23.733-31.277-1.785-3.201-3.921-6.234-6.139-9.16-3.148-4.152-2.39-1.646-7.053.914-3.206 1.76-6.149 4.027-9.099 6.216-3.15 2.339-6.119 1.853-9.258 4.209-6.209 4.66-7.448 9.611-2.562 15.359 6.859 8.071 12.44 17.041 18.927 25.333 7.724 9.873 15.01 19.999 21.738 30.566 6.461 10.146 13.687 19.747 21.196 29.154 5.972 7.481 11.221 15.475 15.402 24.152 2.328 4.831 4.648 5.703 9.427 3.326 6.586-3.274 12.954-6.984 19.423-10.492 1.94-1.052 3.816-2.32 5.88-3.026 4.196-1.435 7.041.551 6.558 4.965-1.738 15.869 2.733 31.105 4.387 46.623 1.688 15.841 3.549 31.663 5.171 47.511.84 8.211 1.728 16.194 4.365 24.269 2.995 9.174 3.299 19.257 4.5 28.979 1.892 15.322 3.696 30.659 5.274 46.016 1.428 13.899 2.368 27.876 5.195 41.568 5.314 25.729 8.178 51.801 11.219 77.838 1.518 12.996-.653 25.838-3.189 38.686-7.615 38.579-20.926 75.581-30.878 113.517-11.509 43.86-24.258 87.4-37.418 130.81-.994 3.28-1.979 6.62-3.506 9.66-2.886 5.75-6.688 6.55-11.812 2.48-7.645-6.08-16.146-10.97-24.412-18.39-.333 5.35-.44 9.61-.898 13.83-.839 7.73-1.54 8.3-8.977 10.39-8.969 2.53-17.885 5.19-27.19 6.32-2.982.35-5.844.29-8.759-.3-6.506-1.31-7.066-1.85-7.535-8.58-1.467-21.02-2.873-42.06-4.339-63.08-1.977-28.37-3.786-56.74-6.059-85.08a1245.916 1245.916 0 0 1-3.005-49.92c-1.078-26.945-2.845-53.862-4.062-80.803-.785-17.398-.748-34.837-1.724-52.222-1.429-25.444-3.472-50.854-5.177-76.284-.59-8.806-1.068-17.634-1.448-26.435-.668-15.432-2.171-30.842-1.769-46.319.542-20.87-2.157-41.644-1.924-62.517.051-4.524.962-7.948 4.553-10.921 3.189-2.641 5.808-5.97 8.695-8.98 2.134-2.226 4.461-3.788 7.816-2.77 3.829 1.162 6.691-.859 9.174-3.344 3.988-3.992 8.235-7.834 11.582-12.329 3.347-4.496 7.435-9.268 3.663-15.738-.915-1.57.897-2.608 1.863-3.605 5.638-5.815 11.374-11.537 16.983-17.38 6.644-6.922 7.131-11.704 2.206-19.673-3.249-5.258-6.965-5.851-11.154-1.056-6.93 7.932-14.767 15.108-20.439 24.118-1.298 2.062-2.916 3.923-4.582 6.136-8.85-7.977-18.691-14.08-29.204-19.125-2.822-1.355-3.697-3.594-3.595-6.595.208-6.132.172-12.272.353-18.404.138-4.655.636-9.302.664-13.955.135-22.576 2.587-45.08 2.063-67.672-.064-2.763.72-5.343 1.503-7.918 7.164-23.588 11.071-47.631 11.752-72.339.439-15.94 1.175-31.869.883-47.816-.135-7.349-.713-14.689-1.017-22.035-.079-1.904-.585-4.219 1.649-5.228 2.881-1.303 5.869-2.744 8.935-3.124 1.857-.23 1.946 2.462 2.041 4.123.375 6.608.608 13.204 1.521 19.793 2.655 19.174 4.258 38.488 7.696 57.559.26 1.445.739 2.857.927 4.309.402 3.117 2.278 3.935 5.143 3.8 5.638-.267 11.306-.105 16.922-.581 16.373-1.385 32.75-2.618 49.157-3.561 7.275-.419 6.321.832 8.103-7.576.353-1.667.548-3.395.577-5.1.438-25.026 1.171-50.056-.617-75.063-.143-1.998-.031-3.947.714-5.789 1.159-2.868 3.184-4.404 6.361-3.299 5.001 1.74 9.522 3.984 10.393 10.099.932 6.54 1.955 13.07 3.101 19.576 2.983 16.913 8.22 33.297 11.834 50.068 3.56 16.519 6.504 33.178 11.673 49.34 1.718 5.372.579 11.222.688 16.854.024 1.249-.172 2.603-1.261 3.307-5.664 3.661-4.859 9.829-5.814 15.205-.812 4.569-1.053 9.257-1.307 13.906-1.527 27.91-.023 55.818 1.427 83.796.206 4.033-.733 14.118-2.425 18.828Zm-20.074 330.623c.072-11.076-1.242-22.018-3.574-32.813-11.488-53.175-25.622-105.681-40.341-158.032-.863-3.07-1.274-6.223-2.243-9.223-.571-1.768-1.249-4.176-3.492-4.314-2.596-.161-1.609 1.393-2.655 3.841-.568 1.33 2.229 2.826 2.044 4.275-.71 5.587-1.571 11.169-1.945 16.782-2.086 31.345-5.624 62.742-4.975 94.133.522 25.235-1 50.448-.315 75.682 1.091 40.189-1.057 80.443 2.065 120.585 1.217 15.65.478 31.37 2.308 46.99.452 3.86.711 7.8-.785 11.63-.511 1.31-.622 2.94-.394 4.34.461 2.83 1.945 5.24 4.99 5.62 2.749.34 3.706-2.15 4.442-4.18 1.671-4.6 3.02-9.32 4.626-13.94 13.262-38.22 25.154-76.836 34.055-116.338 3.35-14.861 6.132-29.748 6.189-45.038Z"/><path fill="#7191EB" d="M1188.35 592.248c5.41-4.936 10.43-6.632 8.84-14.453-.14-.706-.04-1.471 0-2.204.16-2.482 1.16-4.301 3.93-4.381 2.43-.072 3.47 1.609 3.87 3.674.76 3.845 1.38 7.716 2.04 11.578 3.11 18.154 4.62 36.485 5.83 54.835 1.36 20.814 4.2 41.455 6.63 62.149 1.72 14.608 2.42 29.331 3.84 43.976 1.53 15.86 3.43 31.687 5.08 47.536 1.21 11.708 2.02 23.462 3.49 35.136 2.02 16.051 4.61 32.031 6.73 48.072 1.42 10.689 3.1 21.405 3.5 32.152.69 18.477 4.86 36.442 6.91 54.69 2.99 26.607 10.28 52.452 13.25 79.032.98 8.77 1.99 17.57 2.22 26.38.63 24.81 3.32 49.39 6.84 73.94 1.71 11.87 2.08 23.93 2.9 35.92 1.04 15.42 3.46 30.71 3.98 46.17.25 7.49-.13 7.68-7.29 8.94-9.21 1.63-18.6 1.12-27.8 2.62-1.75.28-3.43.2-4.73-1.28-1.11-1.25-2.57-1.16-4.08-1.11-5.74.2-5.85.19-6.72-5.73-6.32-42.67-14.44-85.05-21.12-127.67-3.31-21.07-8.04-41.88-11.07-63-2.86-19.89-5.27-39.856-8.62-59.664-4.01-23.702-6.7-47.567-9.71-71.387-2.96-23.338-5.82-46.693-8.08-70.123-2.31-23.898-4.35-47.833-8.17-71.58-2.57-15.959-3.77-32.139-6.33-48.102-2.99-18.627-6.59-37.164-10.31-55.662-2.19-10.907-6.63-21.01-12.78-30.35-4.03-6.113-9.08-10.877-15.94-13.652-6.6-2.668-13.14-5.494-20.16-6.934-1.67-.342-3.36-.68-5.05-.799-.92-.065-1.98.164-2.27 1.395-.25 1.05.02 2.044.79 2.657 1.53 1.223 3.2 2.26 4.81 3.393 4.19 2.963 10.18 1.564 12.15 6.049 1.99 4.511-1.29 12.98-2.27 17.971-6.94 35.359-14.4 70.629-19.61 106.294-2.83 19.4-4.66 38.946-7.59 58.346-3.25 21.575-6.2 43.195-9.5 64.762-2.49 16.259-3.26 32.69-5.29 48.993-1.21 9.732-2.29 19.48-3.33 29.231-.88 8.289-2.04 16.579-2.33 24.893-.76 21.603-3.42 43.009-5.76 64.469-1.47 13.41-2.49 26.89-2.17 40.4.85 35.58 1.51 71.15 1.83 106.74.08 8.55 1.44 17.09 2.31 25.63.58 5.64 1.02 11.24-.93 16.74-1.27 3.56-3.51 5.85-7.41 6.2-12.44 1.09-24.89 2.17-37.33 3.24-1.22.1-2.46-.04-3.68.03-3.504.22-4.952-1.46-4.665-4.87.582-6.89-.515-13.71-1.035-20.55-2.369-31.13-1.216-62.31-1.471-93.47-.287-35.11.898-70.19 1.691-105.28.787-34.816 2.108-69.655 4.46-104.398 2.32-34.228 4.28-68.514 8.69-102.579 4.32-33.298 8.35-66.635 12.8-99.914 4.48-33.514 9.32-66.978 14.03-100.462.02-.193.27-.356.79-.992 2.6 1.453 2.98 4.733 5.04 6.592 2.31 2.091 4.55 3.89 7.8 2.464 1.4-.611 2.78-1.896.92-3.226-3.43-2.452-3.06-5.839-2.91-9.286.43-10.048.83-20.097 1.26-30.145.04-.981.04-1.977.21-2.936.48-2.591 1.5-4.965 4.66-4.539 2.56.345 3.54 2.372 3.45 4.886-.26 7.602-.29 15.224-.87 22.802-.41 5.395-.48 10.758-.5 16.066 2.26 1.123 3.37-.66 4.61-1.613 9.31-7.206 15.48-14.512 24.75-21.768 1.96-1.532 6.65-3.352 7.97-5.448.39-.618 1.16-1.688 1-1.86-3.66-3.99-.54-10.06-4.61-14.081-3.08-3.052-2.86-4.28.76-6.93 1.57-1.15 2.43-2.061 2.51-3.963.37-8.579.75-17.158 1.28-25.726.22-3.411-.85-4.995-4.49-4.856-5.15.196-10.32.238-15.47.001-3.9-.179-4.82-2.9-3.48-5.625 1.16-2.367 2.29-2.547 4.55-2.57 4.91-.05 9.83-.184 14.73-.089 3 .058 4.72-.93 4.55-4.164-.01-.244.02-.49.04-.735.26-3.032.62-6.492 4.44-6.503 4.15-.012 4.04 3.62 3.84 6.577-.23 3.482 1.05 4.845 4.62 4.761a643.08 643.08 0 0 1 25.04-.09c3.58.056 4.6-1.499 4.65-4.848.12-9.321-.03-18.661 1.03-27.949.4-3.527-1.16-4.919-4.63-4.756-4.41.207-8.83.206-13.25.286-1.23.022-2.46.064-3.68.008-2.64-.121-5.28-.916-5.36-3.883-.1-3.487 2.86-4.211 5.69-4.327 4.17-.171 8.34-.135 12.52-.205 9.86-.162 8.89.9 9.2-9.188.29-9.564.89-19.119 1.16-28.683.14-5.213-.21-5.534-5.24-5.607-7.85-.113-15.71.104-23.57-.049-3.78-.074-5.23 1.401-5.16 5.176.09 5.642-.1 11.295-.36 16.934-.23 5.111-1.83 7.687-4.42 7.218-4.46-.807-3.78-4.458-3.75-7.59.05-5.401.08-10.805.32-16.199.16-3.523-.73-5.597-4.8-5.514-7.85.16-15.71.109-23.57.042-3.12-.027-4.42 1.393-4.39 4.44.02 2.697-.05 5.405-.28 8.091-.18 2.147-1.3 3.818-3.65 3.856-2.35.037-3.37-1.623-3.91-3.701-.57-2.199-.24-4.365-.07-6.573.44-5.672.19-5.898-5.3-6.094-3.19-.114-6.39-.004-9.56-.292-2.59-.236-5.06-1.305-4.75-4.457.26-2.658 2.51-3.384 4.92-3.401 3.44-.024 6.88-.148 10.31-.008 3.27.133 4.98-.803 4.96-4.509-.05-8.345.15-16.694.41-25.036.11-3.526-1.43-4.746-4.81-4.722-9.33.066-18.69.358-27.97-.283-4.28-.295-5.23 2.347-8.88 1.987-3.15-.31-3.93-2.438-8.03-2.034-6.08.598-12.299.522-18.384-.049-3.757-.352-5.519 2.335-8.662 2.072-3.042-.255-5.017-2.673-8.684-2.051-2.385.404-4.904.157-7.351.012-4.584-.272-6.725-1.76-6.327-4.418.541-3.6 3.367-3.702 6.169-3.705 2.701-.003 5.41-.147 8.1.019 3.439.212 4.752-1.179 4.848-4.663.284-10.298.913-20.587 1.283-30.884.228-6.344.876-6.994 7.321-6.858 7.118.15 14.237.274 21.357.228 5.36-.035 5.59-.246 5.84-5.202.42-8.821.67-17.651.99-26.477.11-2.978-.07-5.509-2.88-7.775-2.74-2.212-2.28-4.916.81-6.45 3.2-1.588 6.39-5.353 10.52-1.288.72.707 2.32.711 3.51.706 9.82-.045 19.63.182 29.44-.54 3.54-.261 4.57-1.758 4.73-4.988.41-8.319 1.62-16.581 1.57-24.943-.03-5.313 1.15-6.586 6.33-6.887 3.9-.227 7.85-.029 11.75.273 2.31.178 4.47 1.274 4.45 4.01-.02 2.763-2.14 3.415-4.53 3.807-3.23.531-7.36-1.778-9.54 1.686-1.65 2.634-.7 6.24-.89 9.415-.29 4.65-.53 9.305-.88 13.949-.29 3.74 1.68 5.97 5.07 5.633 8.11-.805 16.13.338 24.2.294 3.85-.021 4.32-2.532 4.42-5.379.3-8.586.63-17.173.76-25.763.1-6.523.45-7.067 7.05-7.117 5.65-.043 11.3.072 16.94.131 1.72.018 3.45-.029 5.05.755 1.4.68 2.49 1.607 2.57 3.274.1 2.067-1.21 3.119-2.94 3.728-2.87 1.01-5.84.454-8.77.436-13.76-.083-11.21-1.325-11.93 10.92-.29 4.896-.63 9.791-1.06 14.678-.26 3.117.93 4.456 4.15 4.412 8.35-.113 16.7-.136 25.04.008 3.41.059 4.88-1.131 4.84-4.656-.07-5.151.13-10.312.39-15.459.17-3.134-.02-6.79 4.29-7.437 2.65-.397 3.88 2.023 3.86 7.354-.02 5.155-.04 10.317-.31 15.462-.18 3.525 1.25 4.782 4.7 4.757 11.04-.082 22.09.065 33.14.042 6.65-.014 7.95 1.087 7.36 7.501-1.04 11.266-.62 22.568-1.06 33.848-.22 5.689.11 5.901 5.6 6.057 5.89.168 11.78.018 17.67.209 5.04.163 7.72 1.811 7.26 4.382-.8 4.451-4.45 3.759-7.59 3.761-6.38.004-12.77.064-19.15-.121-3.41-.099-4.88 1.124-4.88 4.642 0 7.364-.19 14.729-.44 22.089-.12 3.303.99 4.998 4.56 5.036 8.34.089 16.68.315 25.01.638 3.56.138 5.51-.847 5.49-4.866-.01-4.651.49-9.303.74-13.955.16-2.744.98-4.946 4.28-4.677 2.95.241 3.31 2.51 3.3 4.835-.03 4.419-.03 8.842-.23 13.254-.16 3.405.42 5.903 4.66 5.455.72-.076 1.48.056 2.2.185 1.87.336 3.22 1.373 3.34 3.345.16 2.381-1.35 3.457-3.5 3.952-2.09.479-4.75-.758-6.21 1.338-1.45 2.082-.72 4.761-.85 7.179-.38 6.858-.58 13.726-1.01 20.58-.23 3.536 1.22 4.831 4.69 4.7 4.66-.177 9.33-.066 13.99-.024 1.47.013 2.99-.019 4.38.369 1.77.494 3 1.787 2.76 3.799-.23 1.946-1.56 3.143-3.45 3.244-3.91.208-7.84.213-11.77.259-12.33.146-10.51-1.332-10.96 10.376-.33 8.58-.68 17.159-1.14 25.733-.18 3.433.44 5.735 4.67 5.506 2.35-.127 4.61 1.01 4.77 3.622.18 3.024-2.12 4.515-4.8 4.363-3.4-.194-4.41 1.564-5.72 4.277-1.7 3.532-5.17 3.581-6.5-.088-1.54-4.255-4.28-3.959-7.48-3.843-8.09.295-16.18.67-24.27.822-3.21.06-4.96.891-5.05 4.552-.23 9.564-.86 19.117-1.13 28.681-.14 5.017.26 5.217 5.44 5.472 1.96.096 3.95-.009 5.86.329 1.54.272 2.53 1.536 2.69 3.132.19 1.977-.9 3.508-2.7 3.838-2.38.437-4.88.392-7.32.375-2.55-.017-4.22.627-4.33 3.623-.34 9.071-.73 18.141-1.27 27.201-.21 3.622 1.35 4.826 4.75 4.636 2.44-.136 4.92-.084 7.35.163 2.44.249 4.2 1.529 4.04 4.288-.14 2.356-1.79 3.485-3.91 3.661-2.93.244-5.88.196-8.82.251-1.91.036-3.46.594-3.57 2.801-.43 9.147-.81 15.23-1.21 24.38Zm-4.91 7.676c-5.71-2.455-2.76-2.456-2.74-7.5.02-7.352.32-14.703.33-22.054.01-5.143-.16-5.213-5.4-5.431-5.87-.243-11.74-.653-17.61-.625-15.83.076-13.51-2.122-14.06 13.391-.16 4.62 1.21 9.665-1.2 13.742-2.16 3.647-1.32 5.677 1.34 8.129 2.16 1.984 4.06 4.254 6.01 6.454 4.08 4.599 8.67 8.653 13.29 12.683 1.83 1.601 3.88 2.456 5.66.018 4.93-6.74 8.85-11.582 14.38-18.807Zm-15.32-175.791c-4.66 0-9.31-.081-13.97.021-5.18.113-5.2.185-5.45 5.417-.52 11.006.1 22.044-1.18 33.039-.56 4.899.02 5.288 5.3 5.291 7.6.003 15.2-.11 22.79-.272 2.19-.046 4.38-.425 6.57-.663 2.07-.225 2.91-1.485 2.98-3.473.44-11.744.87-23.488 1.39-35.228.15-3.305-1.47-4.246-4.46-4.172-4.65.117-9.31.032-13.97.04Zm61.85 4.138c.12-2.771-.51-4.178-3.47-4.161-9.55.052-19.09.047-28.64.028-2.39-.005-3.58 1.056-3.67 3.494-.41 11.728-.85 23.455-1.32 35.181-.11 2.816 1.16 3.955 3.93 3.907 9.3-.163 18.6-.299 27.9-.328 3.57-.011 4.63-1.871 4.58-5.095-.09-5.382.45-27.41.69-33.026Zm-187.25-133.878v-.145c-5.14 0-10.28.018-15.41-.008-2.37-.012-3.64 1.014-3.67 3.469-.14 10.272-.26 20.544-.46 30.815-.05 2.798 1.23 3.931 3.96 3.937 10.03.023 20.06.093 30.09.219 2.75.035 4.01-1.081 4.03-3.885.08-10.028.21-20.056.43-30.082.07-3.112-1.16-4.434-4.3-4.354-4.89.126-9.78.034-14.67.034Zm110.35 20.952c-.42 4.88-.28 9.767-1.13 14.615-.47 2.654.6 4.148 3.54 4.148 10.26-.002 20.53.077 30.79.147 2.47.017 3.42-1.232 3.51-3.613.36-10.244.76-20.488 1.25-30.726.16-3.213-1.24-4.298-4.31-4.274-9.78.08-19.55.063-29.33-.037-3.11-.032-4.41 1.251-4.35 4.349.1 5.129.03 10.261.03 15.391Zm11.28 198.452v-.108c4.66 0 9.32-.127 13.97.042 3.59.13 5.28-.932 5.39-4.929.27-10.038-.31-20.111 1.01-30.115.35-2.652-1.14-3.462-3.48-3.434-10.05.123-20.11.264-30.16.328-2.78.018-3.88 1.291-3.97 4.016-.34 10.036.08 20.1-1.19 30.103-.42 3.313 1.48 4.202 4.45 4.128 4.66-.117 9.32-.031 13.98-.031ZM1110 316.927c0 3.357.05 8.007-.02 12.657-.04 2.62.78 4.172 3.72 4.175 9.06.01 18.11.12 27.17.185 2.04.015 3.2-.945 3.24-3.059.2-10.513 1.6-20.975 1.27-31.513-.07-2.308-.75-3.689-3.33-3.772-8.78-.285-17.57-.603-26.35-1.028-3.13-.151-4.29 1.356-4.77 4.214-.94 5.598-.37 11.24-.93 18.141Zm-40.64-2.872h-.46c0 4.903.06 9.805-.03 14.706-.05 2.739 1.04 3.974 3.86 4.044 7.83.197 15.66.682 23.49.805 4.98.079 5.62-.307 5.87-5.292.5-9.54.44-19.108.72-28.661.07-2.765-1.1-3.75-3.79-4.209-8.53-1.454-17.12-.748-25.68-.965-2.83-.072-3.95 1.567-3.97 4.13-.05 5.148-.01 10.296-.01 15.442Zm93.25 242.544v.036c4.91 0 9.82-.115 14.72.041 3.4.108 4.85-1.122 4.84-4.672-.01-8.587.13-17.18.5-25.758.18-4.03-1.59-5.031-5.22-4.959-8.83.175-17.67.187-26.5.086-3.66-.042-5.32 1.255-5.41 5.102-.19 8.573.25 17.178-1.02 25.714-.46 3.061.85 4.542 4.1 4.445 4.66-.138 9.33-.035 13.99-.035ZM1040.22 373.93v.096c4.91 0 9.82-.097 14.72.034 3.22.086 5.07-.752 5.05-4.467-.04-8.345.12-16.693.33-25.036.08-3.246-1.47-4.282-4.46-4.277-9.58.016-19.15-.038-28.72-.154-2.68-.032-3.88.935-4.27 3.739-1.21 8.806-.58 17.648-.88 26.467-.09 2.454 1.05 3.612 3.5 3.603 4.91-.018 9.82-.005 14.73-.005Zm127.57 42.574v-.038c5.13 0 10.26-.002 15.39.001 1.89.001 3.47-.489 3.58-2.723.43-9.262.82-18.526 1.2-27.79.11-2.582-1.47-3.311-3.74-3.311-10.02-.003-20.03.001-30.05-.078-2.75-.021-3.99 1.139-4.02 3.903-.1 8.55-.24 17.101-.48 25.647-.08 3.047 1 4.506 4.2 4.421 4.64-.124 9.28-.032 13.92-.032Zm1.75-41.566v.052c4.91 0 9.82-.007 14.73.003 2.16.004 3.88-.441 4-3.118.37-8.324.78-16.646 1.19-24.968.12-2.575-.65-4.195-3.63-4.269-9.8-.243-19.61-.502-29.4-.966-4.06-.193-4.87 1.76-4.97 5.315-.23 7.84.34 15.711-.81 23.518-.48 3.219 1.09 4.48 4.17 4.448 4.91-.053 9.81-.015 14.72-.015Zm-50.95 181.605v.018h13.98c2.07 0 4.13-.166 4.14-2.915.03-9.559 1.63-19.047 1.25-28.628-.1-2.449-1.12-3.581-3.57-3.537-9.31.168-18.63-.307-27.92.777-2.43.285-3.4 1.406-3.49 3.746-.31 8.566-.18 17.154-1.31 25.68-.44 3.29.72 5.087 4.42 4.906 4.16-.202 8.34-.047 12.5-.047Zm93.51-140.064v-.019c4.89 0 9.78-.055 14.67.02 2.76.043 3.96-1.169 3.98-3.931.07-8.553.21-17.106.39-25.658.06-2.676-.87-4.116-3.76-4.109-9.29.022-18.58-.041-27.86-.093-2.28-.012-3.76.795-3.82 3.318-.2 8.787-.22 17.581-1.2 26.333-.36 3.264 1.41 4.252 4.41 4.17 4.39-.12 8.79-.031 13.19-.031Zm-85.01-74.827v-.242c-4.64 0-9.29.061-13.94-.024-2.7-.05-4.08.96-4.11 3.811-.07 8.561-.21 17.123-.4 25.682-.07 2.807 1.15 3.978 3.92 3.968 8.8-.03 17.61.008 26.42.056 2.32.012 3.51-.875 3.78-3.364.92-8.772 1.09-17.564 1.1-26.37.01-2.465-1.13-3.548-3.56-3.528-4.4.037-8.8.011-13.21.011Zm-1.14 40.902v-.03c-4.39 0-8.79.1-13.19-.034-3.1-.095-4.07 1.245-4.44 4.275-1.06 8.526-.65 17.075-.96 25.608-.09 2.606.66 4.188 3.64 4.166 8.79-.065 17.59-.086 26.38 0 2.84.028 3.68-1.266 4-3.926 1-8.271.97-16.571 1.05-24.867.05-5.012-.08-5.058-5.48-5.178-3.67-.08-7.33-.014-11-.014Zm-25.9 4.035c.02-2.138-.33-4.018-3.02-4.034-8.81-.053-17.62-.056-26.43-.069-2.08-.003-3.1 1.06-3.18 3.133-.35 9.04-.71 18.079-1.09 27.118-.12 2.844 1.26 3.877 4 3.852 8.32-.078 16.65-.103 24.97-.01 3.08.034 4.48-1.13 4.4-4.29-.11-4.403.33-21.539.35-25.7Zm-16.45-12.525c0-.047.01-.093.01-.14 4.15.281 8.31.57 12.46.841 3.28.214 5-1.042 5-4.621-.01-8.091.1-16.186.37-24.272.12-3.604-1.46-4.656-4.82-4.616-7.84.094-15.69.018-23.54-.143-3.1-.064-4.15 1.199-4.52 4.258-.96 8.068-.67 16.155-.94 24.233-.1 3.053 1 4.574 4.21 4.485 3.92-.108 7.84-.025 11.77-.025Zm-69.31-16.831h.32c0-4.415-.05-8.831.02-13.245.05-2.778-1.2-4.007-3.95-4.002-6.38.011-12.759-.056-19.136-.092-1.998-.011-3.308.79-3.403 2.949-.4 9.057-.351 18.135-1.396 27.162-.326 2.821 1.17 3.93 3.923 3.903 6.377-.062 12.762-.124 19.132.058 3.69.106 4.62-1.729 4.52-4.961-.12-3.92-.03-7.848-.03-11.772Zm121.76 233.25c.14-8.433.3-15.891.38-23.351.03-2.173-1.41-2.895-3.38-2.897-9.51-.011-19.03-.029-28.55-.039-2.6-.002-3.23 1.594-3.22 3.85.01 2.057.81 3.374 2.97 3.199 4.33-.348 7.23 2.178 10.42 4.516 6.62 4.848 13.08 9.953 21.38 14.722Z"/><path fill="#F8DC88" d="M545.003 167.179c.223-4.693 1.34-8.43 2.691-12.041 1.789-4.782 2.081-9.681.987-14.495-2.54-11.168-.937-21.955 2.514-32.569 2.011-6.186 6.224-11.079 10.655-15.698 2.887-3.008 5.455-6.064 7.42-9.892 3.778-7.36 9.948-12.702 17.078-16.822 12.015-6.94 24.631-10.206 38.727-7.75 6.526 1.136 13.22 4.414 20.166.921.945-.475 2.792.58 4.114 1.17 3.613 1.61 7.09 3.673 9.673 6.592 10.214 11.546 21.418 22.273 29.856 35.308 1.586 2.451 3.086 5.099 3.913 7.869 1.43 4.792-2.225 8.229-7.081 6.999-.706-.178-1.375-.527-2.043-.836-13.506-6.257-27.803-5.308-41.972-4.106-7.762.658-15.557 2.174-23.073 4.257-17.179 4.764-33.345 11.61-45.934 24.999-6.892 7.331-13.993 14.467-21.089 21.603-1.638 1.649-2.885 3.971-6.602 4.491ZM1045.4 117.378c.11-12.128 1.66-23.733 8.59-34.328 9.69-14.805 24.17-21.788 40.41-25.882 21.08-5.312 40.81-1.678 60.41 7.864 12.28 5.98 20.06 14.238 24.11 26.786 1.06 3.257 2.2 6.515 3.65 9.607 4.9 10.411 4.37 21.446 4.07 32.482-.07 2.288-.75 4.373-2.04 6.2-2.77 3.948-6.48 4.472-10.83 1.297-4.74-3.461-9.12-7.438-13.96-10.746-24.9-17.022-51.93-27.6-82.64-25.025-10.21.856-20.21 3.769-28.54 10.467-.99.793-1.99 1.425-3.32 1.202l.09.076ZM607.722 450.372c2.509.189 3.185 1.877 4.163 3.261 7.484 10.602 15.015 21.17 22.479 31.786 16.48 23.437 32.919 46.902 49.396 70.341 3.87 5.506 3.835 5.721-1.838 9.418-4.922 3.208-9.92 6.322-14.633 9.817-2.958 2.193-4.512 1.493-6.483-1.27-7.25-10.165-14.761-20.144-22.09-30.253-17.386-23.982-34.723-48.003-52.086-72.002-3.764-5.203-3.836-5.282 1.56-8.881 5.5-3.668 11.126-7.148 16.714-10.683 1.01-.64 2.103-1.148 2.818-1.534ZM1144.33 1291.03c.79-3.59 2.86-4.46 4.7-5.51 7.73-4.43 15.97-7.2 24.79-8.65 11.84-1.95 23.45-5.01 34.62-9.44 9.04-3.58 16.92-8.95 22.54-17.02 2.23-3.2 4.7-4.37 8.54-4.31 13.2.23 26.44.45 39.43-2.6 2.73-.64 3.97.67 4.94 3.05 1.52 3.71 1.59 7.67 2.19 11.51.97 6.26 1.79 12.6 1.93 18.92.21 9.71-1.87 11.67-11.55 11.67-30.62.03-61.25-.01-91.88-.12-13.19-.05-26.36.02-40.25 2.5ZM1050.62 1245.07c2.2 9.32 3.28 18.52 3.13 27.76-.14 9.06-4.44 13.31-13.63 14.04-5.61.45-11.26.38-16.9.37-18.62-.02-37.237-.12-55.858-.19-19.348-.07-38.615.99-57.748 4.02-1.157.18-2.446.39-3.759-1.47 2.5-3.16 6.171-4.82 9.827-6.47 12.354-5.57 25.546-8.39 38.656-11.29 14.982-3.32 27.804-10.7 39.682-19.91 3.29-2.55 6-3.89 10.43-3.37 10.49 1.24 20.96-.79 31.42-1.69 4.81-.41 9.58-1.16 14.75-1.8ZM529.763 236.651c.488-2.219-.717-3.3-2.871-2.959-1.676.265-3.289.916-4.935 1.379-5.183 1.456-10.317 3.139-15.566 4.295-7.049 1.553-10.526-.235-14.319-6.662-2.932-4.967-2.551-11.355 1.2-15.829 3.356-4.004 7.55-7.006 12.416-8.921 2.492-.981 5.122-1.637 7.722-2.313 9.608-2.497 10.313-3.72 7.168-13.126-.639-1.911-1.447-3.86.358-5.422 1.758-1.522 3.831-1.94 6.167-.992 3.166 1.286 2.613 2.372 6.003 3.248 6.551 25.021 17.924 24.14 29.869 26.295 3.246.586 6.092 1.851 8.607 3.85 4.215 3.349 8.445 6.694 12.459 10.276 5.048 4.503 4.728 8.885-1.091 12.459-4.731 2.905-7.542 13.414-21.227 4.648-4.891 4.991-11.092 8.05-16.977 11.533-4.694 2.779-14.909.064-16.097-1.163-3.109-3.212.535-17.97 1.114-20.596Z"/><path fill="#F8DC88" d="M617.785 127.169c5.706-3.203 11.522-4.246 17.177-5.214 10.414-1.785 20.895-1.692 31.367.349 3.703.722 4.741 2.697 5.118 5.96.418 3.617-1.791 4.785-4.597 5.46-3.539.852-6.987 1.733-10.786.607-3.288-.974-6.663-.504-9.976 1.105-2.816 1.368-6.004 2.068-9.097 2.743-3.36.732-6.839-.109-8.491-3.021-2.363-4.165-6.139-5.96-10.715-7.989ZM562.124 168.412c4.065-8.186 10.014-12.858 15.579-17.817 1.989-1.772 4.283-3.229 6.553-4.645.988-.616 2.328-1.003 3.341.118.785.868.274 1.865-.135 2.707-1.924 3.957-3.487 7.911-3.593 12.493-.049 2.129-2.678 12.919-4.41 15.279-2.087 2.843-5.557 4.704-6.752 1.648-2.292-5.859-6.584-5.183-10.583-9.783ZM1048.38 117.302l-.36 1.834c-1.33-.97 0-1.251.45-1.758l-.09-.076Z"/><path fill="#303030" d="M764.471 712.378c1.33.232 2.389.854 2.968 2.011.656 1.311 1.281 2.663 1.699 4.062 2.528 8.46 4.889 16.972 8.139 25.197.855 2.164 1.61 4.511-1.089 5.709-3.094 1.374-4.397-.971-5.387-3.376-3.934-9.552-6.083-19.664-9.189-29.477-.717-2.264.5-3.763 2.859-4.126ZM635.959 227.78c-7.615.197-13.289-3.255-17.815-8.816-1.819-2.234-1.573-4.752.799-6.39 2.278-1.573 5.245-1.389 6.296 1.241 1.812 4.532 5.024 6.573 9.484 6.672 5.823.129 11.027-1.881 15.311-5.91 1.227-1.154 2.038-2.764 3.3-3.866 1.996-1.741 4.127-1.327 5.861.49 1.782 1.866 1.99 4.346.044 5.865-6.931 5.409-13.959 10.831-23.28 10.714ZM552.712 194.318c0 1.214-.078.935.011.729 2.34-5.408 1.257-9.639-3.983-12.781-1.566-.94-2.062-2.887-.8-4.512 1.272-1.637 3.194-1.457 4.638-.38 6.085 4.538 12.086 9.19 18.05 13.885 1.449 1.14 2.172 2.876 1.074 4.564-1.354 2.081-3.334 1.646-5.173.597-.843-.481-1.514-1.259-2.349-1.76-1.312-.788-2.535-2.93-4.268-.805-1.226 1.504-.771 3.248.114 4.822 1.199 2.131 3.29 2.762 5.499 3.232 2.372.504 4.424 1.631 3.573 4.445-.821 2.714-3.316 2.485-5.549 2.147-6.627-1.003-10.947-6.098-10.837-14.183ZM651.206 184.897c-.072 6.936-2.104 12.807-6.867 17.56-1.248 1.244-2.798 2.26-4.563 1.065-1.995-1.351-2.212-3.552-.764-5.122 8.113-8.802 4.968-18.729 3.151-28.554-.133-.721-.371-1.425-.48-2.149-.395-2.648-2.927-6.195 1.512-7.282 3.62-.887 3.989 2.842 4.732 5.283 1.934 6.346 2.631 12.923 3.279 19.199ZM614.678 144.12c2.108-.049 5.31.978 7.986 3.313 1.51 1.317 2.747 2.937 1.398 5.068-1.292 2.041-3.219 2.22-5.059 1.002-5.202-3.446-9.587-2.311-13.652 1.978-1.649 1.74-3.756 2.729-5.669.549-1.783-2.031-.736-4.14.777-5.897 3.35-3.891 7.563-6.026 14.219-6.013ZM617.502 168.273c-.07 5.647-3.556 10.187-7.608 9.908-3.613-.249-6.302-3.631-6.173-7.764.149-4.754 3.977-8.706 8.28-8.548 3.428.126 5.548 2.595 5.501 6.404ZM671.969 145.792c4.688-.036 8.184 1.314 10.413 5.01.935 1.552 1.057 3.328-.221 4.753-1.38 1.541-3.273 1.382-4.575.107-4.309-4.221-7.722-2.6-11.083 1.24-1.169 1.336-2.76 2.186-4.496.884-1.889-1.416-1.87-3.423-.867-5.237 2.44-4.409 6.405-6.456 10.829-6.757ZM676.87 170.454c-.072 3.627-1.08 6.81-4.567 8.546-1.881.936-3.878.822-5.415-.77-2.738-2.836-2.313-6.317-1.416-9.649.93-3.447 4.089-5.388 7.2-4.866 2.795.469 4.229 2.77 4.198 6.739ZM941.145 488.224c-7.184.582-14.209-.216-21.007-2.636-3.518-1.252-6.665-3.16-8.998-6.149-1.295-1.658-1.934-3.495-.149-5.269 1.514-1.504 3.119-1.024 4.678-.029 2.889 1.843 5.672 3.821 9.016 4.888 5.256 1.679 10.64 1.607 16.038 1.538 3.434-.045 6.866-.197 10.299-.227 2.447-.021 4.661.94 4.861 3.5.214 2.746-2.01 3.592-4.455 3.732-3.429.198-6.856.433-10.283.652ZM1035.28 468.415c5.38 0 10.76-.002 16.14.002 1.76.001 3.64.084 4.09 2.202.53 2.464-1.14 3.538-3.24 4.006-1.42.318-2.89.632-4.33.642-8.56.062-17.11.94-25.66.112-1.46-.141-2.96-.135-4.36-.505-1.97-.521-3.79-1.503-3.36-4.011.36-2.071 2.05-2.562 3.87-2.587 1.46-.02 2.93.158 4.39.167 4.15.025 8.31.009 12.46.009v-.037ZM935.591 470.838c-7.116-.211-14.239-.489-20.857-3.578-4.725-2.206-6.703-4.72-5.111-6.664 2.375-2.901 4.87-.671 7.258.308 5.085 2.085 10.448 2.619 15.859 2.756 3.677.094 7.36-.016 11.04-.058 2.27-.025 4.807-.114 4.928 2.94.104 2.614-2.017 3.967-4.298 4.218-2.908.321-5.876.078-8.819.078ZM1021.87 487.049c-2.27-.194-4.61-.841-4.56-3.695.04-3.032 2.52-3.446 4.77-3.116 9.48 1.393 18.98 1.366 28.5.581.48-.039.98.071 1.45.18 1.77.407 3.36 1.142 3.31 3.263-.05 2.118-1.59 2.972-3.46 3.004-4.88.082-24.9.219-30.01-.217ZM1156.24 180.562c-2.33.202-4.73.058-5.35-2.633-.67-2.842 1.39-3.867 3.82-4.192 3.67-.493 6.59-1.907 7.54-5.879.28-1.193.77-2.511-.29-3.449-1.21-1.069-2.26.011-3.19.707-1.56 1.173-2.96 2.586-4.6 3.632-1.28.816-2.84.96-4-.38-1.13-1.307-.97-2.949.02-4.061 6.02-6.77 13.12-11.743 22.45-12.659 1.87-.183 3.54.443 4.09 2.364.68 2.383-.85 4.121-2.87 4.271-4.9.363-4.91 3.28-4.91 7.078 0 8.835-4.88 14.421-12.71 15.201ZM1092.95 206.117c-7.27.57-13.08-2.643-18.81-5.939-3.31-1.902-4.01-4.806-2.06-7.213 1.84-2.276 5.33-2.453 7.55.408 3.79 4.876 8.86 5.716 14.35 5.602 4.27-.089 8.28-.974 10.57-5.244 1.19-2.209 3.13-2.961 5.56-2.503 1.96.367 2.97 1.703 3.22 3.526.33 2.51-1.25 3.869-3.13 5.296-5.23 3.958-10.76 6.749-17.25 6.067ZM1078.94 167.954c.25-8.576 2.38-15.078 5.32-21.341.94-2.005 2.25-4.321 4.94-2.98 2.57 1.277 1.67 3.717.94 5.85-1.18 3.48-2.76 6.883-3.47 10.457-1.27 6.354-2.04 12.756 4.47 17.283 1.64 1.143 2.77 3.032 1.13 5.069-1.87 2.324-3.94 1.346-5.83-.037-5.34-3.928-8.12-9.098-7.5-14.301ZM1133.22 135.888c-.07 1.289-.58 2.379-1.66 3.085-1.42.924-2.98.779-3.96-.468-4.1-5.219-8.19-4.05-12.46-.299-1.56 1.37-3.44 2.27-5.23.62-2.06-1.9-1.16-3.951.27-5.855 3.81-5.094 12.42-7.27 17.8-4.489 3.05 1.576 5.35 4.817 5.24 7.406ZM1064.37 127.467c4.25.131 7.8 1.517 10.35 4.876 1.27 1.671 1.87 3.553.15 5.276-1.43 1.431-3.31 1.326-4.66.097-4.67-4.268-8.76-2.996-12.87.851-1.56 1.465-3.58 1.91-5.25.204-1.68-1.721-1-3.654.35-5.263 3.13-3.742 7.12-5.87 11.93-6.041ZM1126.01 151.445c-.13 4.341-2.97 7.651-6.36 7.401-3.03-.223-5.31-3.6-5.16-7.645.14-3.892 2.79-6.931 6.04-6.923 3.37.008 5.59 2.92 5.48 7.167ZM1067.45 152.05c.05 4.31-2.15 7.161-5.49 7.1-2.93-.052-5.53-2.97-5.72-6.414-.21-3.702 2.34-7.206 5.43-7.463 3.37-.28 5.72 2.478 5.78 6.777Z"/><path fill="#303030" d="M796.817 725.306c4.804-6.562 2.098-13.213.292-19.72-2.621-9.448-5.969-18.698-8.48-28.171-7.039-26.549-13.082-53.356-21.121-79.648-8.272-27.05-13.811-54.741-16.818-82.817-4.677-43.672-11.108-87.104-16.615-130.661-3.255-25.747-10.683-49.828-25.596-71.3-11.195-16.119-25.166-28.742-44.236-34.884-7.937-2.556-15.859-5.165-23.829-7.613-3.406-1.046-4.889-2.661-3.648-6.44 1.22-3.715 2.305-7.576 2.662-11.445.46-4.986 3.11-6.854 7.595-8.397 43.537-14.981 64.468-62.295 46.544-104.643-.84-1.985-2.406-3.765-2.088-6.151 6.111-2.499 7.434-4.555 7.16-10.937-.196-4.578-1.939-8.605-4.492-12.277-5.874-8.449-11.216-17.197-16.487-26.049-8.777-14.742-20.74-26.288-38.883-28.685-5.897-.779-11.428-2.467-16.919-4.565-4.638-1.77-9.463-2.742-14.433-2.117-17.712 2.226-33.908 7.828-46.581 21.182-2.689 2.833-21.908 30.808-23.676 34.313-6.932 13.734-7.71 28.212-5.336 43.074.504 3.155 1.542 6.361.428 9.45-2.225 6.174-3.694 12.237-.361 18.493.792 1.485.083 2.907-.835 4.091-1.298 1.673-2.685.436-3.871-.189-5.71-3.007-11.82-3.259-17.952-2.331-8.6 1.301-12.607 7.731-10.395 16.068 1.395 5.255 1.386 5.234-3.652 7.573-5.813 2.699-11.467 5.653-15.69 10.685-5.508 6.562-7.075 13.921-4.025 21.996 2.862 7.578 8.607 11.607 16.503 12.947 8.007 1.357 15.584-.447 23.162-2.654 1.967-.573 3.868-2.078 6.078-1.211 0 2.29-.108 4.231.017 6.157.824 12.762 11.127 19.774 23.284 15.822 4.517-1.469 8.469-4.001 11.656-7.486 2.488-2.72 4.536-4.114 8.717-2.582 5.657 2.072 11.102-.038 15.683-3.944 2.069-1.765 3.777-3.852 5.198-6.17 1.07-1.744 2.103-3.315 4.637-2.221 2.431 1.05 3.331 2.682 2.708 5.234-1.105 4.525-2.36 9.025-3.221 13.597-.983 5.219-3.976 7.848-9.053 9.279-9.671 2.726-19.135 6.175-28.763 9.06-24.112 7.223-44.364 20.52-61.767 38.514-37.716 39.001-67.828 83.222-91.029 132.203-2.944 6.216-4.888 12.801-6.828 19.408-4.107 13.991-1.033 26.633 6.432 38.603 1.298 2.079 2.779 4.045 4.205 6.041 23.069 32.295 52.617 57.398 86.441 77.718 8.204 4.93 16.654 9.431 25.38 13.393 1.991.903 4.215 1.534 4.372 4.341.393 7.072 1.533 14.166-4.999 19.66-3.154 2.653-5.546 6.215-8.278 9.368-3.858 4.453-7.825 8.817-11.532 13.392-3.424 4.226-3.211 5.756.869 9.178 2.254 1.891 4.635 3.639 7.034 5.346 5.1 3.629 6.14 3.43 10.649-.891 2.334-2.237 3.821-5.597 7.737-6.576.194 1.899.403 3.346.48 4.799 1.79 33.816 2.941 67.661 5.159 101.463 1.993 30.358 3.035 60.78 4.391 91.179 1.903 42.657 3.925 85.297 7.357 127.872 3.056 37.91 4.931 75.91 8.015 113.81 2.248 27.63 4.615 55.25 6.656 82.9.229 3.11.778 5.96-3.621 6.41-3.367.35-4.361 2.87-4.433 5.8-.083 3.43-.168 6.88.1 10.3.406 5.19 1.658 6.2 7.095 5.98 2.935-.11 5.889-.4 8.779-.91 3.219-.58 4.402.57 4.575 3.79 1.096 20.33 3.852 40.56 3.834 60.95-.005 5.58 1.324 10.66 3.881 15.51 1.172 2.23 4.259 4.33 5.95 4.33l146.4-.08c3.545 0 2.734-7.9 2.488-8.88-1.808-7.22-5.878-12.41-13.541-13.88-6.021-1.16-12.068-2.25-18.146-3.03-6.699-.86-12.271-3.66-16.232-9.07-8.991-12.29-18.421-24.21-28.224-35.85-1.25-1.49-2.276-3.22-3.112-4.98-1.672-3.52-2.646-7.19-1.567-11.73 5.008 1.85 9.526 3.65 14.13 5.18 4.589 1.54 6.215.8 8.033-3.61 1.121-2.71 1.907-5.56 2.802-8.37 3.038-9.52 3.724-11.16-6.289-15.06-.228-.09-.428-.25-.659-.33-2.994-1.01-3.476-3.08-2.538-5.83.554-1.63.962-3.3 1.425-4.95 12.803-45.83 26.7-91.34 40.255-136.95 10.061-33.85 20.729-67.524 26.364-102.534 3.727-23.149 5.688-46.433 2.904-69.667-3.707-30.917-8.773-61.672-13.363-92.482-4.048-27.173-8.577-54.277-12.291-81.495-4.642-34.027-9.185-68.091-11.198-102.402-1.164-19.824-1.586-39.692-2.394-60.897 2.457 2.298 2.689 4.035 3.089 5.637 2.62 10.468 5.449 20.894 7.693 31.444 6.177 29.034 13.6 57.768 20.652 86.589 7.895 32.267 21.263 62.682 32.319 93.879.244.691.506 1.386.856 2.028 1.027 1.89 2.471 3.168 4.753 2.291 1.99-.765 2.093-2.585 1.789-4.334-.251-1.437-.728-2.848-1.232-4.224-3.46-9.444-6.871-18.905-10.452-28.303-7.69-20.179-15.391-40.387-20.538-61.377-11.739-47.878-22.717-95.944-34.742-143.747-4.527-17.998-4.363-35.903-3.157-54.041.325-4.886-.337-10.276 1.548-14.501 2.071-4.644 8.22-5.754 12.408-8.692 6.793-4.766 13.669-9.411 19.748-14.76 1.681 1.164 1.98 2.341 2.143 3.572 3.154 23.83 7.047 47.565 9.29 71.514 2.885 30.815 7.216 61.416 14.793 91.446 4.438 17.592 9.863 34.931 14.627 52.445 6.626 24.357 11.123 49.298 20.18 72.996.887 2.322 2.282 4.869 1.244 7.706-2.641-.681-3.422-2.914-4.354-4.823-2.486-5.094-6.125-8.795-11.562-10.675-3.11-1.076-5.634-2.973-7.156-5.993-1.222-2.427-2.904-4.429-5.702-2.538-2.559 1.729-1.717 4.294-.439 6.565 1.854 3.289 4.423 5.907 7.844 7.531 1.996.947 3.006 2.073 2.775 4.509-.179 1.886.246 3.919.797 5.769 2.662 8.932 5.441 17.829 8.226 26.723.362 1.157.865 2.311 1.527 3.32.88 1.346 2.264 1.861 3.831 1.353 1.687-.547 2.174-2.02 1.936-3.526-.305-1.921-.909-3.805-1.494-5.672-1.956-6.237-3.96-12.46-6.242-19.618 5.559 4.005 8.151 8.492 9.351 13.981.677 3.099 1.753 6.125 2.855 9.107.549 1.485 1.98 2.344 3.552 1.934 1.562-.409 2.226-1.774 2.249-3.418.039-2.766-1.174-5.248-1.729-7.877-.343-1.629-1.804-3.4-.695-4.917ZM663.876 290.093a1056.904 1056.904 0 0 0 3.584 18.766c1.259 6.287 1.301 6.281-5.273 7.158-.971.129-1.945.227-2.919.335-2.115.238-3.337-.705-3.344-2.831-.038-9.979-.018-19.959-.018-30 7.054 1.232 7.002 1.241 7.97 6.572Zm-3.971 33.503c2.193-.078 4.38-.495 6.555-.845 3.1-.497 4.412.873 4.875 3.895.454 2.965-.952 4.016-3.458 4.465-2.41.432-4.807.951-7.226 1.324-4.088.63-4.757.026-4.714-4.294-.259-2.646.698-4.428 3.968-4.545ZM679.461 103.6c-5.416-.959-8.399-3.334-10.477-7.803-4.342-9.34-10.186-17.795-17.148-25.443-.912-1.002-2.306-1.779-2.183-4.458 15.346 8.466 22.944 22.313 29.808 37.704Zm-55.231 9.283c10.638-9.072 38.783-10.102 50.998-1.224-25.755-3.755-24.525-3.092-50.998 1.224Zm42.444 18.442c-2.635 1.414-4.79.258-6.667-1.413-1.449-1.289-2.486-3.03-3.888-4.386-2.789-2.699-5.017-2.595-7.28.58-1.983 2.784-3.51 5.88-6.404 7.942-6.56 4.674-12.084 3.316-15.446-3.855-3.013-6.428-3.014-6.428-9.568-4.162-1.162.402-2.321.761-4.543-.69 7.071-3.85 14.208-5.269 21.297-6.755 10.631-2.229 21.332-3.027 32.08-.816 2.078.427 4.498.503 5.055 3.379.637 3.283-1.782 8.644-4.636 10.176Zm-86.592-67.106c22.555-11.508 43.067-10.873 62.904 7.598 6.879 6.404 12.265 13.987 16.848 22.16.591 1.057 1.323 2.082.494 4.271-14.057-1.069-27.414 1.603-40.204 7.049-3.392 1.445-5.347.844-7.195-2.299-3.23-5.495-7.014-10.633-11.066-15.569-6.91-8.42-14.984-15.35-25.139-19.34.114-2.642 1.957-3.155 3.358-3.87Zm-6.102 11.104c4.346 1.025 8.103 3.354 11.531 6.162 8.602 7.045 15.311 15.69 21.081 25.118.255.416.522.824.753 1.253.816 1.515.661 2.84-.966 3.655-1.332.668-2.345.032-3.007-1.149-.836-1.489-1.559-3.041-2.39-4.533-3.474-6.242-7.867-11.747-13.237-16.469-6.578-5.786-14.02-9.678-24.298-10.318 3.39-4.555 6.93-4.569 10.533-3.719Zm-36.045 86.18c1.855-4.461 1.783-8.963.98-13.679-2.393-14.062-1.461-27.713 5-40.803 3.211-6.508 7.605-11.909 12.71-16.904 3.51-3.433 7.677-4.422 12.183-3.049 13.945 4.247 22.234 14.496 28.132 27.146.708 1.519.332 2.847-1.073 3.829-.802.561-1.614 1.108-2.412 1.675-17.667 12.536-33.763 26.671-46.061 44.755-2.165 3.185-6.307 3.275-9.73 5.671-1.716-3.625-.764-6.153.271-8.641Zm39.174 7.722c.551 1.584.029 3.352-1.206 5.219-3.49-.608-5.298-4.033-8.401-5.195-3.179-1.19-6.266-2.626-9.393-3.955 2.209-6.752 14.936-19.03 26.407-25.092 1.057 6.865-.53 12.48-4.259 17.084-3.02 3.727-4.815 7.148-3.148 11.939Zm2.124 71.544c-1.871 2.658-4.011 4.982-7.129 6.151-3.847 1.443-5.649.773-7.358-3.198-.823-1.915-1.408-3.709-3.862-3.701-2.424.008-3.251 1.918-4.107 3.684-2.776 5.721-6.925 10.105-12.7 12.794-3.939 1.835-8.119 2.723-11.781-.393-3.476-2.96-4.137-7.006-3.325-11.418.54-2.936 1.705-5.613 2.811-8.342.938-2.314 1.713-4.821-.767-6.673-2.265-1.691-4.126-.004-5.998 1.132-9.448 5.736-19.564 9.154-30.747 8.188-7.934-.685-12.99-5.938-12.997-13.357-.005-5.588 2.912-9.85 7.316-12.952 5.85-4.12 12.103-7.508 19.401-8.276 2.269-.238 4.541-.352 5.287-3.015.735-2.622-1.003-4.081-2.86-5.408-.2-.142-.404-.281-.595-.434-2.768-2.204-5.603-4.646-4.086-8.582 1.524-3.954 5.599-3.273 8.567-3.83 9.273-.122 13.578 3.177 16.21 12.02 4.264 14.327 13.778 22.833 28.539 25.24 2.302.376 4.178.948 5.754 2.725 3.924 4.426 8.337 8.341 13.29 11.571 2.689 1.751 2.873 3.609 1.137 6.074Zm4.541 36.344c.085 3.485-3.22 7.921 1.909 9.069 3.952.885 4.671-3.56 5.707-6.426 3.836-10.617 7.234-21.381 8.818-32.596 1.138-8.055.827-8.287-6.36-11.888-7.046-3.532-13.65-7.751-19.446-13.138-1.472-1.369-2.998-2.76-.612-4.761 1.705-1.429 2.253-3.38.787-5.207-1.536-1.913-3.457-.8-5.385-.31-14.353 3.647-27.53-3.914-31.381-17.891-3.699-13.424 6.049-23.681 19.612-20.727 4.198.915 7.997 2.622 10.968 5.643 6.35 6.456 14.31 3.688 15.284-6.374.563-5.813 2.107-10.621 4.926-15.57 3.061-5.371 4.444-11.461 3.28-17.739-.525-2.836.152-4.561 2.72-6.012 4.992-2.821 9.641-5.778 15.359-1.174 2.794 2.25 6.982.123 9.87 1.359 2.93 1.256 3.538 5.629 6.514 7.673 5.757 3.955 13.256 3.774 19.962-.928 1.791-1.255 3.329-2.881 4.927-4.395.966-.917 1.965-1.57 3.196-.642 4.028 3.039 8.224 5.473 13.543 3.794 4.784-1.51 7.297-5.506 9.547-9.3 2.652-.19 3.184 1.733 4.06 3.069 27.774 42.333 1.034 100.953-49.095 107.645-3.397.453-6.78.949-10.25.836-2.518-.082-5.386.492-5.08 3.813.269 2.889 2.795 3.769 5.505 3.699 1.716-.045 3.48.066 5.135-.292 5.95-1.288 5.652 1.283 4.57 5.612-2.198 8.802-4.444 17.592-7.717 26.077-.617 1.599-1.349 3.177-1.745 4.833-.363 1.518.142 2.94 1.641 3.737 1.85.985 3.575.391 4.426-1.26 1.452-2.817 2.514-5.836 3.703-8.786.682-1.693 1.419-3.261 3.699-2.371 2.159.843 5.199.719 5.177 4.162-.01 1.449-.327 2.921-.676 4.341-4.734 19.249-26.505 31.65-45.397 25.882-11.594-3.541-19.657-13.856-19.747-25.622-.046-6.093 1.244-8.484 8.046-7.835Zm25.259 41.939c14.458-1.577 25.895-8.508 33.875-20.832 1.187-1.833 2.311-3.708 3.496-5.543.105-.164.445-.176 1.452-.537.814 7.935.741 15.692.597 23.45-.008.473-.085 1.112-.39 1.386-6.017 5.421-2.711 12.389-3.09 18.723-.07 1.165.11 2.796.851 3.482 3.789 3.511 2.962 8.021 3.038 12.342.109 6.129.232 12.259.183 18.388-.04 5.219-.165 5.393-5.311 5.669-12.239.656-24.487 1.148-36.729 1.734-7.589.363-15.184.669-22.76 1.22-3.297.24-4.965-.716-5.392-4.193-1.31-10.7-3.621-21.349-3.95-32.067-.174-5.627 1.665-11.401.295-17.193-.335-1.422-.228-3.157-1.021-4.232-6.609-8.951-3.964-19.723-6.149-29.526 7.676 19.699 22.031 29.798 41.005 27.729Zm-43.783 10.237c.248 2.328-.41 3.786-2.898 4.152-3.396.5-6.782 1.064-10.17 1.62-2.393.394-4.966 1.446-5.296-2.614-.353-4.362.288-5.462 4.189-5.85 1.708-.17 3.43-.201 5.146-.295l-.004-.078c1.715-.092 3.43-.188 5.145-.275 2.354-.121 3.629.897 3.888 3.34Zm-14.852-42.113c2.576-.68 4.934-2.137 8.458-2.184 2.304 9.832 2.818 19.579 4.464 29.141.48 2.787-.723 4.15-3.535 4.137-.487-.002-.975.019-1.46.052-11.146.768-11.097.767-11.56-10.472-.19-4.622-.391-9.269-1.035-13.84-.56-3.971 1.118-5.897 4.668-6.834Zm-4.483 85.426c.162-8.095.703-16.183.862-24.278.062-3.171.968-4.749 4.401-5.435 15.363-3.071 15.389-3.197 17.691 11.903 1.22 8.002 2.155 16.047 3.353 24.052.979 6.554 1.563 7.236 7.862 6.972 23.293-.978 46.581-2.094 69.865-3.281 5.258-.268 6.253-1.403 6.29-6.916.066-9.573-.147-19.147-.185-28.721-.023-5.996.025-5.997 5.63-7.214 11.955-2.597 11.973-2.602 14.891 9.102 2.966 11.9 5.802 23.832 8.858 35.708 5.16 20.05 4.75 40.377 2.98 60.73-1.257 14.458-1.274 28.932-1.26 43.409.017 19.392.31 38.784.434 58.177.016 2.409.629 4.883-.679 7.785-3.115-1.514-4.174-4.114-5.71-6.219-25.029-34.303-50.005-68.644-74.994-102.976-.866-1.191-1.714-2.395-2.604-3.568-4.595-6.056-5.666-6.227-11.912-1.918-1.009.697-2.044 1.373-2.98 2.16-2.267 1.908-4.301 2.082-6.236-.491-.88-1.171-1.919-2.234-2.963-3.269-2.457-2.435-5.021-2.657-7.868-.505-8.812 6.66-17.763 13.137-26.488 19.909-4.493 3.489-4.622 6.05-.937 11.329 14.333 20.526 28.743 40.999 43.124 61.492.987 1.406 1.914 2.857 2.962 4.216 1.394 1.809 1.464 3.453-.056 5.28a4479.43 4479.43 0 0 0-22.499 27.256c-1.496 1.828-3.083 2.158-5.138 1.062-11.506-6.13-22.504-13.019-32.623-21.292-2.548-2.081-2.327-4.687-2.245-7.349.528-17.172 1.061-34.343 1.677-51.512.414-11.526 1.009-23.045 1.431-34.57.109-3.007.932-5.552 2.443-8.251 4.619-8.248 6.127-17.578 7.848-26.705a278.78 278.78 0 0 0 4.775-46.072Zm134.424 193.373a864.847 864.847 0 0 0-18.419 13.443c-2.356 1.766-3.989 1.169-5.473-1.037-.684-1.017-1.431-1.991-2.152-2.982-25.682-35.294-51.381-70.576-77.036-105.891-5.025-6.918-5.519-5.932 1.549-11.122 4.744-3.482 9.51-6.934 14.281-10.38.983-.711 2.032-1.331 2.743-1.793 1.503-.032 2.245.569 2.849 1.365a300.596 300.596 0 0 1 3.508 4.724c25.26 34.691 50.518 69.385 75.775 104.078 1.01 1.389 1.938 2.843 3.029 4.164 1.729 2.092 1.73 3.739-.654 5.431Zm-84.367-20.908c1.184.479 1.48.508 1.625.671 9.641 10.831 9.636 10.829-.467 21.267-4.075 4.208-8.097 8.465-12.198 12.647-4.135 4.216-4.167 4.193-9.197 1.537-1.078-.569-2.107-1.229-3.193-1.784-2.454-1.258-3.142-2.717-1.122-5.099 8.198-9.66 16.304-19.399 24.552-29.239ZM452.444 373.912c17.184-22.709 34.754-45.067 56.583-63.636 6.363-5.414 13.132-10.293 20.545-14.176 2.52-1.32 4.945-3.263 8.714-2.686.658 7.695 1.585 15.415 1.325 23.228-.024.725.022 1.685-.397 2.13-4.854 5.156-2.867 11.583-3.349 17.539-.181 2.239-.102 4.504 1.751 6.123 1.894 1.656 2.073 3.779 1.981 6.027-.944 23.26-1.174 46.577-5.365 69.583-.324 1.783.198 4.042-2.914 5.444 0-2.673.006-4.979-.001-7.286-.054-18.392-.042-36.785-.237-55.176-.03-2.806 1.558-7.511-3.295-7.405-4.169.091-2.592 4.485-2.827 7.14-.28 3.166-.463 6.408-.105 9.551 1.036 9.115-1.975 16.668-7.642 23.692-6.462 8.01-12.47 16.391-18.531 24.714-1.974 2.71-3.802 3.213-6.729 1.363-15.996-10.111-29.277-22.939-39.575-38.844-1.64-2.534-1.926-4.689.068-7.325Zm68.06 163.574c-3.897-.452-5.401-2.558-7.187-4.118-9.25-8.074-17.97-16.64-25.569-26.356-6.336-8.1-12.648-16.302-20.88-22.672-2.433-1.884-2.635-3.705-.891-6.22 2.795-4.025 5.18-8.337 8.024-12.324 15.52-21.756 31.129-43.449 46.698-65.171.555-.774.999-1.628 2.281-2.127 2.393 46.419-1.653 92.377-2.476 138.988Zm-56.537 27.939c-19.462-15.092-37.463-31.7-52.08-51.694-2.027-2.772-4.117-5.504-6.033-8.352-7.406-11.015-9.473-22.946-5.97-35.797 2.137-7.837 5.138-15.343 8.707-22.624 10.166-20.739 21.958-40.541 34.618-59.839.528-.806 1.206-1.514 2.09-2.609 2.724 1.347 3.487 3.546 4.711 5.289 9.984 14.236 22.202 26.136 36.758 35.654 4.653 3.042 4.631 3.115 1.539 7.717-9.026 13.44-19.42 25.938-27.656 39.916-2.008 3.409-4.034 3.447-7.139 1.6-7.108-4.227-15.181-5.408-23.15-6.839-.96-.171-1.966-.398-2.908-.273-1.997.266-4.033.803-4.054 3.367-.017 2.158 1.569 2.843 3.438 3.049.244.027.488.051.732.072 21.294 1.807 35.999 14.353 48.447 30.199 8.981 11.432 18.852 21.975 29.595 31.712 14.933 13.536 30.494 26.259 48.3 35.955 1.493.814 3.477 1.568 4.153 2.897 3.495 6.876 10.111 9.745 16.224 13.3 6.356 3.697 5.985 3.652 2.67 10.642-2.182 4.6-6.408 7.318-8.794 11.633-1.428 2.582-4.493 2.876-7.23 2.695-1.927-.128-3.837-.756-5.721-1.284-33.492-9.406-63.807-25.108-91.247-46.386Zm45.659 92.311c-2.238 2.453-3.958 1.961-6.17.152-2.743-2.242-.839-3.785.604-5.394 10.446-11.645 20.876-23.305 31.403-34.878 3.391-3.729 3.518-3.614 10.867.321-12.551 13.584-24.69 26.635-36.704 39.799ZM572 1211.85c-.306-3.41 1.161-4.94 4.461-5.27 10.984-1.09 21.96-2.26 33.214-3.42 5.622-.3 6.034-.06 6.568 5.73.63 6.83.686 13.73 2.877 20.34.654 1.97-.393 3.28-1.654 4.53-2.467 2.43-5.303 4.38-8.337 6-8.656 4.64-18.052 6.2-27.724 6.12-5.669-.04-6.48-.74-7.05-6.17-.971-9.27-1.523-18.57-2.355-27.86Zm45.36-320.807c-.609-35.815-.86-71.628-.659-107.442.087-15.415.988-30.827 1.523-46.355 2.529.599 2.364 2.56 2.745 4.125 9.836 40.488 19.574 80.999 29.511 121.463 4.846 19.732 3.9 39.368.015 59.07-7.08 35.904-18.239 70.695-28.724 105.666-.333 1.11-.45 2.45-2.551 3.76-1.201-6.68-1.024-12.78-1.063-18.85-.255-40.483-.108-80.967-.797-121.437Zm69.758 380.627c7.057.81 14.123 1.82 20.99 3.76 6.288 1.77 12.192 3.96 11.966 11.36l-139.883.09c-.172-.44-.378-.88-.612-1.3-3.283-5.84-3.375-12.17-3.244-18.59.065-3.19-.112-6.38-.233-9.57-.187-4.99-.2-5.22 4.493-5.08 15.465.45 29.791-2.55 41.737-13.15 1.621-1.44 2.824-1.12 4.45.12 4.914 3.72 5.073 4.46.757 8.89-2.054 2.11-4.25 4.08-6.372 6.12-1.058 1.02-2.198 1.98-3.108 3.11-.763.96-1.233 2.12-.47 3.39.915 1.52 2.408 1.89 3.807 1.27 1.533-.67 2.957-1.74 4.214-2.87 3.279-2.96 6.482-6 9.638-9.09 2.64-2.59 4.402-.39 6.308 1.03 2.211 1.65 1.427 3.37-.031 4.98-2.304 2.55-4.717 5-6.997 7.57-1.187 1.33-2.038 2.91-.56 4.58 1.732 1.96 3.582 1.22 5.154-.18 2.198-1.95 4.45-3.91 6.299-6.18 4.367-5.35 4.196-5.25 10.091-1.46 9.686 6.23 20.171 9.89 31.606 11.2Zm-46.739-57.53c.586 2.93-.678 3.93-3.521 3.95-3.484.03-6.792-.72-10.081-1.67-2.054-.6-3.005-1.97-3.534-4.15-2.208-9.08 1.242-13.12 10.621-12.14 3.986.42 5.739 2.34 6.023 6.7.079 1.21.012 2.44.012 2.79.214 2.09.243 3.32.48 4.52Zm24.46 35.78c1.938 2.75 3.873 5.52 5.909 8.42-4.953.31-12.544-3.69-19.518-10.08 8.043-6.27 8.043-6.27 13.609 1.66Zm-13.436-14.74c1.402-.64 2.2.49 2.704 1.93-.343.49-.61 1.31-1.158 1.6-2.807 1.49-5.657 2.91-8.557 4.2-1.002.45-1.892-.27-2.454-1.1-.799-1.19.2-1.81.993-2.25 2.785-1.53 5.575-3.08 8.472-4.38Zm-4.544-7.39c.556 1.89-1.196 2.45-2.341 3.22-1.008.69-2.131 1.2-3.221 1.75-8.549 4.33-13.445 1.65-15.604-8.8 5.889-.34 11.617 1.79 17.486.85 1.925-.32 3.168 1.25 3.68 2.98Zm53.045-543.025c6.135 45.701 14.122 91.135 19.992 136.878 1.685 13.133 4.582 26.08 6.074 39.259 2.674 23.607 1.169 46.996-2.542 70.375-5.403 34.043-15.71 66.79-25.531 99.693-13.889 46.53-27.39 93.17-41.07 139.76-.68 2.31-.777 4.89-3.249 7.06-8.881-4.16-17.937-8.48-27.066-12.64-2.785-1.27-2.856-3.52-3.161-6.03-1.597-13.19-1.499-26.46-2.126-39.69-.779-16.42-.439-32.88-1.59-49.3-.415-5.92.277-11.64 2.023-17.38 8.844-29.1 17.694-58.192 26.088-87.415 5.01-17.44 9.076-35.161 11.688-53.136 2.488-17.115 2.338-34.199-1.881-51.152C646.774 817.738 637.31 774.056 625 731.19c-6.796-23.665-4.375-45.886 1.029-68.684.79-3.331 2.043-6.55 3.031-9.836 2.641-8.791 7.474-15.869 15.466-20.729 3.341-2.031 6.375-4.574 9.492-6.959 1.2-.918 2.218-2.149 1.382-3.773-.892-1.737-2.401-2.371-4.324-1.679-.462.166-.954.305-1.355.572-11.249 7.514-22.438 14.816-27.073 28.847-4.57 13.837-7.774 27.87-9.081 42.335-1.724 19.069-2.209 38.207-3.062 57.329-1.904 42.699-1.468 85.417-.688 128.101.86 47.124.302 94.254 1.293 141.366.944 44.89 2.791 89.77 4.323 134.65.234 6.86.875 13.71 1.405 20.56.247 3.19-.671 4.94-4.261 5.37-15.584 1.88-31.131 4.06-46.71 5.99-5.001.61-4.997.4-5.848-4.88-1.607-9.97-1.303-20.07-2.143-30.1-3.672-43.76-6.859-87.55-9.913-131.36-3.873-55.565-7.939-111.1-10.13-166.764-1.187-30.156-2.351-60.326-4.36-90.435-2.239-33.551-3.312-67.148-5.025-100.719-.113-2.205-.031-4.427-.255-6.619-.353-3.45.916-6.061 3.294-8.538 6.97-7.256 13.817-14.635 20.587-22.079 2.16-2.376 4.176-3.578 7.646-2.643 4.857 1.309 9.582-.515 12.74-3.955a130.126 130.126 0 0 0 14.552-19.181c.921-1.479 1.849-3.315 1.084-4.873-2.033-4.141.665-6.306 3.062-8.774 6.33-6.512 12.643-13.041 18.898-19.626 4.923-5.184 5.065-6.682.858-12.692-17.594-25.13-35.25-50.217-52.881-75.321-1.833-2.611-3.69-5.208-5.472-7.853-3.065-4.549-3.079-4.608 1.405-8.035 5.461-4.172 10.984-8.262 16.488-12.376a62.076 62.076 0 0 1 3.01-2.114c1.635-1.075 2.723-.126 3.739 1.061 1.156 1.352 1.188 2.653-.278 3.763-3.326 2.519-6.774 4.884-10.011 7.51-3.668 2.978-3.776 4.136-1.304 8.03.656 1.033 1.458 1.974 2.18 2.966 27.733 38.096 55.464 76.193 83.196 114.29.578.794 1.139 1.6 1.74 2.376 4.172 5.393 5.002 5.563 10.752 1.493 6.211-4.394 12.292-8.97 18.505-13.36 1.715-1.212 3.119-3.201 6.262-2.879.569 7.92 1.178 15.884 1.708 23.854 2.003 30.127 5.938 60.049 9.951 89.948Zm25.358-277.226c-7.565 7.07-15.981 12.939-24.646 18.507-.822.528-1.703.979-3.182.237-.369-6.248-.79-12.768-1.128-19.293-.458-8.85-2.199-17.478-4.326-26.05-3.245-13.069-6.404-26.159-9.7-39.216-.671-2.657-1.032-4.829.501-7.607 2.263-4.098-1.235-16.061-5.086-19.317-1.168-.987-2.187-1.854-2.524-3.403-1.554-7.124-3.146-14.241-4.835-21.855 4.091-.297 6.135 1.967 8.402 3.497 15.51 10.471 25.622 25.346 34.005 41.672 6.799 13.241 10.492 27.388 12.73 41.989 1.077 7.019 1.978 14.067 3.165 21.067.674 3.986-.352 6.946-3.376 9.772ZM1289.97 1278.24c.32-15.78-2.5-31.27-4.25-46.86-2.52-22.42-5.56-44.8-7.77-67.26-3.3-33.45-6.49-66.92-10.91-100.24-6.85-51.56-12.12-103.313-18.82-154.893-3.66-28.22-7.09-56.472-10.91-84.671-4.72-34.769-9.16-69.565-12.67-104.476-2.36-23.434-4.56-46.885-6.87-70.323-2.2-22.217-5.08-44.367-6.65-66.648-1.68-23.74-3.52-47.467-5.12-71.212-.41-6.113-.11-12.271-.26-18.405-.08-2.895 1.16-4.488 3.91-5.322 5.17-1.564 10.31-3.206 15.39-5.017 12.62-4.499 24.22-10.692 33.71-20.412 7.22-7.397 11.19-15.94 10.39-26.511-.4-5.174-1.35-10.194-2.67-15.186-13.03-49.173-36.74-92.889-67.8-132.852-3.79-4.867-8.17-9.135-12.8-13.188-10.76-9.404-23.64-15.435-36.84-19.559-14.31-4.467-20.55-15.852-28.27-26.395-1.79-2.444-.9-4.31 2.12-5.638 7.39-3.245 15.72-3.878 22.66-8.314.54-.345 1.45-.193 2.18-.148 6.77.421 10.95-3.294 14.23-8.673 2.08-3.402 3.6-7.021 4.4-10.864 1.01-4.844 3.61-7.923 7.77-10.794 9.58-6.601 15.66-15.793 14.78-27.917-.35-4.84-1.88-9.339 1.35-13.874.97-1.357.48-3.808.52-5.761.16-8.363-.54-16.689-1.5-24.977-1.5-12.954-5.64-24.856-14.76-34.592-3.69-3.936-8.12-7.411-10.91-11.905-4.82-7.763-11.94-12.266-19.71-15.988-14.75-7.066-30.13-8.634-45.83-3.694-5.59 1.759-11.02 3.945-16.7 5.579-20.78 5.99-44.65 22.499-46.72 50.824-.48 6.567-1.02 13.311-4.18 19.305-2.71 5.143-1.88 9.373 2.29 13.204 1.05.966 2.51 1.936 1.96 3.63-.74 2.265-2.82 1.366-4.41 1.488-8.33.638-12.97 4.677-14.66 12.809-3.29 15.83 7.04 35.641 22.02 41.861 2.58 1.072 4.63 2.329 6.28 4.691 7.36 10.521 17.1 18.127 28.86 23.26 5.74 2.503 7.24 9.723 2.92 14.34-5.53 5.915-11.34 11.572-17.01 17.351-1.26 1.276-2.8 1.9-4.49 2.37-17.64 4.914-31.53 15.433-43.51 28.921-11.641 13.106-21.186 27.664-29.811 42.828-8.004 14.072-15.996 28.185-22.17 43.192-1.893 4.602-4.731 5.982-9.63 5.799-17.169-.642-34.356-.902-51.538-1.136-7.595-.103-8.86 1.526-6.734 8.766 3.526 12.002 7.239 23.952 11.081 35.857 1.41 4.365 1.749 8.32-.292 12.698-7.236 15.519-5.767 31.621-2.122 47.615 2.574 11.292 9.813 18.825 21.353 20.73 5.488.905 7.137 3.621 8.518 8.288 5.358 18.111 11.059 36.121 16.68 54.155 2.657 8.527 2.706 8.561 11.866 8.393 5.152-.094 10.3-.436 15.452-.566 15.216-.384 30.427-.775 45.647-1.043 5.15-.091 5.43.345 4.87 5.491-.42 3.901-.94 7.793-1.47 11.682-3.44 25.031-7.54 49.971-9.92 75.147-1.78 18.806-3.44 37.646-5.99 56.355-8.599 63.007-14.851 126.245-18.2 189.73-2.588 49.02-4.563 98.085-5.862 147.155-1.541 58.17-.569 116.37-.785 174.55-.016 4.23.763 7.56 5.477 8.7-6.032 7.14-11.182 10.6-19.708 13.29-20.584 6.5-41.178 12.97-61.774 19.42-3.531 1.1-6.933 2.47-10.038 4.5-3.273 2.15-5.233 5.1-5.563 9.06-.019.22-.746 7.75 4.444 7.75 1.275 0 41.186.46 54.165-.02 33.815-.01 98.164-.03 101.944-.03 3.79 0 4.36-6.02 4.91-10.09 1.31-9.75 1.85-19.54 1.59-29.38-.99-37.3-2.64-74.6-2.79-111.9-.19-48.84.51-97.7 4.26-146.444 1.09-14.191 2.02-28.395 3.25-42.573 2.41-27.627 6.21-55.092 9.74-82.589 3.56-27.74 6.49-55.577 10.8-83.199 8.03-51.376 17.26-102.555 27.8-153.486.27-1.338.23-3.02 2.57-3.361 7 5.29 10.98 12.782 13.42 21.136 4.67 16.038 7.95 32.41 10.49 48.896 3.54 23.031 6.73 46.115 9.44 69.272 3.77 32.16 8.62 64.192 12.34 96.357 5.99 51.928 14.17 103.545 21.47 155.281 6.69 47.37 14.59 94.55 23 141.65 3.88 21.73 7.92 43.44 11.86 65.16.68 3.74 1.63 7.2 5.74 8.69 1.32.48 2.8.96 3.27 2.59-5.75 8.26-12.8 12.95-24.37 16.54-16.41 5.09-33.06 9.26-49.72 13.44a68.578 68.578 0 0 0-15.75 6.08c-4.35 2.32-7.29 5.82-7.65 10.95-.17 2.3-.08 6.95 5.45 6.95 3.7 0 123.55-.04 115.96-.04-7.6 0 27.49-.01 32.27-.01 4.78 0 6.65-2.52 7.63-4.07 2.42-3.81 2.33-8.48 2.39-11.27ZM1023.15 152.632c.92-2.663 2.39-4.887 5.4-5.464 1.9-.366 3.69.045 3.51 2.418-.86 11.252-.65 22.408 3.83 34.381-10.27-6.937-15.91-22.07-12.74-31.335Zm107.58 100.835c1.21 1.42 1.46 3.024.93 4.794-3.62 11.932-8.59 23.206-16.25 34.496-2.89-4.446-5.17-8.089-7.59-11.634-2.89-4.232-5.83-8.432-8.89-12.545-1.49-2.009-2.35-3.573.36-5.346 8.6-5.615 14.86-13.263 19.2-23.725 5.27 4.618 8.47 9.546 12.24 13.96Zm33.98-176.981c10.85 10.639 16.51 23.51 17.43 38.582.37 6.115.29 12.262 1.46 18.32-.15 1.725-.12 3.466-.48 5.121-.36 1.622-1.51 2.567-3.26 1.748-2.61-1.226-5.54-1.615-7.76-3.902-11.73-12.047-25.38-21.541-40.11-29.55-4.95-2.689-4.88-2.763-3.45-7.934 2.56-9.222 7.28-17.171 14.51-23.415 8.24-7.125 13.91-6.573 21.66 1.03Zm-45.15 23.596c-2.08-11.882 10.9-30.92 23.07-34.046-11.97 8.428-18.02 20.899-23.07 34.046Zm20.49-43.372c-14.95 7.824-23.17 20.837-28.16 36.224-1 3.072-2.11 4.569-5.71 3.529-13.66-3.945-27.48-4.863-41.44-1.488-.37.09-.86-.306-1.3-.475 5.79-34.342 51.79-57.298 76.61-37.79Zm-35.88 47.718c-8.3 0-16.6-.171-24.89.048-8.31.22-16.47 1.52-24.23 4.665 15.42-11.37 32.1-9.933 49.12-4.713Zm-34.73-39.052c-7.08 10.179-12.17 21.133-15.81 32.974-1.62 5.276-7.54 7.763-11.7 12.05-1.52-18.001 10.64-37.996 27.51-45.024Zm-19.51 59.679c3.62-5.055 8.6-7.916 14.16-10.075 2.42-.942 4.32-.675 4.74 2.488.24 1.836 1.44 3.682 3.07 3.776 4.25.243 6.23 2.993 8.49 5.969 2.24 2.946 5.63 3.979 9.26 3.046 2.59-.668 5.2-1.55 7.56-2.791 4.51-2.367 8.6-5.343 14.27-4.659 2.57.31 4.97-1.729 7.24-3.265 5.53-3.733 14.61-.044 18.49 5.391 4.15 5.805 5.49 11.22 3.84 17.994-.7 2.898 1.06 5.7 3.09 7.982 3.41 3.835 5.89 4.272 10.15 1.306 3.88-2.706 7.88-4.995 12.64-5.607 10.63-1.367 16.9 5.843 14.19 16.27-2.82 10.843-12.68 19.083-23.78 19.867-6.13.432-6.06.442-7.02 7.473-.19 1.372-1.02 2.747-1.84 3.928-7.17 10.413-16.66 17.939-28.53 22.293-7.54 2.766-7.6 2.621-7.37 10.752.34 13.302-6.28 22.78-16.58 30.27-2.86 2.079-4.3.945-5.38-1.948-2.95-7.858-4.47-16.05-5.84-24.278-.43-2.607.15-4.422 3.45-3.767 1.95.385 3.89.345 5.76-.549 1.73-.825 2.78-2.08 2.58-4.019-.17-1.626-1.32-2.604-2.84-3.004-.93-.246-1.94-.231-2.91-.361-44.83-5.965-67.19-57.717-40.89-94.482Zm16.39 130.934c4.21-4.047 8.45-8.063 13.22-12.609 1.74 5.602 2.74 11.165 5.18 15.997 2.53 4.998 1.98 8.822-.73 13.415-2.59 4.394-4.16 9.393-6.15 14.14-.54 1.304-.5 2.992-3.07 3.495-1.76-10.357-5.18-20.225-9.47-29.793-.83-1.852-.33-3.349 1.02-4.645Zm-92.886 100.269c8.332-15.008 16.504-30.117 26.097-44.399 7.419-11.042 15.559-21.46 25.299-30.543 8.17-7.618 17.48-13.451 28.17-16.888 5.38-1.727 5.37-1.616 7.68 3.46 4.09 9.022 5.75 18.719 7.95 28.269.55 2.386 1.14 4.775 1.94 7.086.75 2.191 2.18 4.003 4.73 3.977 2.18-.023 3.62-1.567 4.38-3.458 1.36-3.409 2.57-6.883 3.73-10.369 2.39-7.201 4.85-14.362 9-20.651 2.48-.015 3.03 1.86 3.87 3.2 5.05 8.099 11 15.678 14.45 24.728.79 2.088 1.85 4.122 4.61 4.06 2.62-.06 3.79-1.991 4.84-3.966 6.25-11.674 12.78-23.206 16.84-35.921 2.02-6.315 2.28-6.567 8.08-4.263 19.82 7.876 37.9 17.914 51.07 35.76 27.94 37.864 50.23 78.432 62.64 124.066.19.71.36 1.427.55 2.138 5.68 20.645 2.42 29.945-14.8 42.507-6.42 4.682-13.55 7.99-20.97 10.559-22.25 7.717-44.82 14.372-68.03 18.668-1.19.219-2.37.562-3.59-.228-1.2-1.957.18-3.778.53-5.575 2.28-11.637 1.62-23.008-3.27-33.87-1.6-3.538-.64-4.815 2.74-5.638 14.15-3.441 27.26-9.619 40.49-15.477 9.97-4.418 20.63-6.192 31.23-8.171 1.93-.36 3.87-.646 5.79-1.065 2.13-.468 3.72-1.675 3.26-4.052-.45-2.294-2.38-3.102-4.51-2.857-3.65.423-7.38.711-10.87 1.755-3.75 1.123-5.58-.276-7.93-3.078-17.45-20.855-30.78-44.26-42.98-68.395-3.77-7.465-6.61-15.299-9.44-23.148-.58-1.614-1.05-3.28-1.77-4.828-.7-1.495-2.04-2.067-3.66-1.587-1.36.404-1.79 1.552-1.9 2.836-.23 2.793.86 5.315 1.78 7.834 10.56 29.006 24.83 56.011 43.65 80.544 2.24 2.92 4.48 5.841 6.78 8.717 1.7 2.141 2.23 3.79-1.16 4.767-10.65 3.066-20.36 8.491-30.64 12.482-23.81 9.243-48.21 14.845-74.04 12.51-18.05-1.632-33.52-8.728-46.9-20.72-.71-.633-1.47-1.439-1.72-2.306-2.84-9.591-7.07-18.678-8.31-28.855-3.19-26.125-3.8-52.344-4.22-78.596-.04-2.499.76-6.371-3.07-6.318-4.37.06-3.14 4.168-3.1 6.835.28 18.645-.75 37.314.8 55.93.29 3.536-.55 4.891-4.25 4.795-20.09-.523-40.192-.887-61.823-1.338 3.68-7.786 6.447-14.566 9.977-20.923Zm118.896 204.791c-4.43-14.013-9.13-27.944-13.72-41.907-.38-1.164-.81-2.315-1.18-3.481-2.36-7.371-2.36-7.357 5.81-7.458 15.94-.197 31.84-.891 47.68-2.921 20.2-2.588 40.24-5.909 59.77-11.841 1.4-.428 2.85-.724 4.25-1.166 2.99-.943 3.95.352 4.01 3.219.13 6.616.39 13.229.67 19.841.54 12.735 5.17 49.387-.24 56.237-8.05 10.189-20.11 25.562-27.79 36.039-4.3 5.858-4.33 5.888-9.66 1.32-15.82-13.566-31.62-27.157-47.44-40.737-1.11-.959-2.2-1.95-3.35-2.872-4.71-3.791-5.28-3.754-9.94.132-15.44 12.878-30.9 25.739-46.35 38.606-1.13.942-2.29 1.854-3.41 2.808-1.59 1.357-2.99 1.378-4.33-.393-5.33-7.032-11.05-13.806-15.91-21.155-2.67-4.04-.81-9.072.03-13.556.36-1.899 2.79-1.597 4.48-1.64 7.59-.195 15.2-.289 22.79-.526 9.56-.298 19.12-.612 28.67-1.088 5.89-.292 6.98-1.727 5.16-7.461Zm21.29-100.661c-1.12-4.367-.96-4.811 3.29-5.029 6.39-.327 12.7-1.151 18.95-2.39 3.02-.6 4.72.52 5.9 2.963 6 12.381 6.11 25.002 1.42 37.789-.64 1.758-1.92 2.722-3.82 2.965-6.32.803-12.63 1.661-18.94 2.506-3.09.414-3.82-1.149-3.47-3.9.3-2.427.37-4.884.43-5.664.29-11.07-1.43-20.192-3.76-29.24ZM960.367 565.235c-6.172.177-6.29.207-7.959-5.169a7320.022 7320.022 0 0 1-15.525-50.646c-1.751-5.789-1.566-5.92 4.804-6.117 3.188-.099 6.385-.046 9.565-.258 2.11-.141 3.888-1.114 3.94-3.539.056-2.555-1.839-3.31-3.94-3.386-3.185-.115-6.379-.087-9.565 0-6.146.169-12.267.09-18.338-1.07-7.573-1.447-13.324-5.44-15.748-12.823-4.111-12.516-5.497-25.349-2.618-38.404.157-.714.362-1.438.686-2.089.201-.403.664-.675 1.388-1.369 1.903 1.296 1.757 3.678 2.453 5.506 1.365 3.59 3.935 5.697 7.602 6.106 7.099.794 14.223.395 21.312-.31 2.306-.23 4.531-1.331 4.255-4.077-.29-2.881-2.786-3.037-5.072-2.944-5.149.208-10.3.413-15.441.762-3.421.233-5.45-1.002-6.487-4.435-5.314-17.609-10.826-35.159-16.136-52.768-1.295-4.295-.627-4.937 4.307-4.852 24.539.426 49.078.886 73.616 1.362 13.987.271 27.974.588 41.954.902 7.17.161 7.22.163 9.36 6.579 6.36 19.08 12.68 38.172 18.98 57.27.53 1.591 1.31 3.17.91 5.288-6.21 2.79-12.8 1.711-19.34 1.212-3.66-.28-7.32-.754-10.98-.953-1.82-.099-3.49.622-3.81 2.693-.39 2.527 1.4 3.728 3.42 3.94 10.23 1.066 20.46 3.034 30.73.482 7.49-1.859 9.34-5.569 6.76-12.976-1.02-2.923-2.36-5.791-2.53-8.894 2.12-.686 3.13.626 4.28 1.372 12.66 8.161 26.48 12.811 41.53 13.282 4.36.136 6.81 1.577 8 5.81 3.02 10.741 4.52 21.613 3.24 32.745-.73 6.396-1.38 6.631-7.82 7.141-24.48 1.938-48.46-1.437-72.3-6.494-2.4-.508-4.78-1.2-7.26-.658-1.31.286-2.18 1.09-2.32 2.468-.14 1.374.46 2.46 1.77 2.842 2.36.682 4.74 1.26 7.14 1.759 11.52 2.4 23.04 4.83 34.6 7.067 2.16.419 3.62 1.078 4.3 3.254 5.15 16.357 11.33 32.378 15.74 48.973.05.216-.08.48-.23 1.371-7.36.375-14.87.894-22.4 1.122-33.61 1.021-67.215 1.958-100.823 2.923Zm-58.685 721.075c-.939-.22-1.847-.57-3.431-1.08 2.17-3.56 5.115-4.37 7.799-5.24 14.925-4.82 29.925-9.41 44.85-14.24 3.279-1.06 5.086-.22 6.259 2.92.94 2.51 2.027 5 3.343 7.33.774 1.38 2.344 1.76 3.875 1.05 1.284-.59 1.527-1.84 1.451-3.1-.184-3.01-1.648-5.63-2.719-8.35-.719-1.83-.773-3.3 1.335-4.21 2.127-.92 3.267.28 4.069 1.92 1.18 2.43 2.189 4.93 3.316 7.38.682 1.48 1.908 2.33 3.526 2.04 2.163-.41 2.421-2.18 2.317-3.98-.173-3.03-1.867-5.54-2.944-8.26-.225-.57-.161-1.53.186-2 .709-.96 1.777-.57 2.584-.04 2.769 1.84 4.087 4.83 5.774 7.52 1.303 2.07 2.334 4.32 3.728 6.32.67.97 1.905 1.58 3.242.95 1.226-.58 1.812-1.63 1.784-2.95-.086-3.91-2.383-6.89-4.337-9.97-4.461-7.05-4.486-7.03 1.53-12.51 1.449-1.32 2.875-2.67 4.23-4.09 1.475-1.54 3.178-2.15 5.297-1.8 15.274 2.52 30.304.36 45.304-2.34 5.24-.94 5.39-.92 5.61 4.4.43 10.3.64 20.61-.45 30.89-.71 6.67-1.41 7.31-7.98 8.22-8.76 1.21-17.55 1.83-26.4 1.72-21.931-.28-43.819.83-65.711 1.77-15.38.01-30.716.01-46.003.02-.478-.1-.957-.17-1.434-.29Zm319.868-61.6c-7.45-38.03-13.8-76.26-20.39-114.44-9.05-52.46-16.02-105.23-23.89-157.866-7.3-48.772-12.55-97.799-19.09-146.66-4.85-36.219-8.63-72.59-14.68-108.64-2.59-15.471-5.68-30.868-9.9-46.011-3.89-13.941-11.93-24.603-24.59-31.661-6-3.345-12.11-6.477-18.19-9.681-2.06-1.089-4.29-1.951-5.63.832-1.09 2.271.51 3.747 2.29 4.75 4.06 2.286 8.1 4.66 12.33 6.578 4.08 1.848 5.26 4.618 4.28 8.817-2.01 8.596-4.06 17.189-5.77 25.846-5.78 29.108-10.89 58.337-16.2 87.531-9.1 50.001-13.94 100.57-20.94 150.848-5.08 36.478-7.85 73.154-10.36 109.877-3.53 51.71-4.01 103.48-3.64 155.26.16 21.35 1.22 42.69 1.94 64.02.22 6.69.34 6.85-6.31 8.2-15.2 3.07-30.46 5.48-45.996 2.52-7.879-1.51-7.932-1.54-7.913-9.4.126-52.28-.091-104.57.562-156.85.389-31.16 2.133-62.3 3.319-93.441.719-18.883 1.333-37.773 2.352-56.64 1.956-36.257 4.559-72.464 8.116-108.612 3.72-37.848 9.38-75.465 13.19-113.286 3.15-31.249 6.65-62.438 10.88-93.552.3-2.138.1-4.415 2.36-7.447 4.62 6.104 8.7 11.562 12.86 16.965 4.66 6.062 5.91 6.257 11.76 1.422 15.13-12.514 30.16-25.144 45.31-37.64 7.81-6.44 5.62-6.415 13.53.325 15.69 13.373 31.29 26.861 46.92 40.301.56.48 1.12.965 1.68 1.436 5.83 4.853 7.33 4.746 11.76-1.135 3.85-5.095 7.57-10.276 11.35-15.419 4.5-6.133 8.97-12.296 13.54-18.376 1.12-1.488 1.77-3.59 4.63-3.944 1.78 7.887 1.73 16.006 2.57 23.978 4.51 42.689 8.73 85.408 13.12 128.11 6.48 62.963 15.93 125.555 23.64 188.363 4.79 38.954 8.96 77.984 13.86 116.922 3.84 30.42 7.66 60.84 10.95 91.33 2.26 20.97 4.19 41.98 6.43 62.96 1.19 11.21 2.62 22.41 4.15 33.58.48 3.55-.37 5.54-4.09 6.24-14.52 2.77-29.06 4.76-43.84 2-6.47-1.21-6.93-1.57-8.26-8.31Zm-81.11 55.94c3.62-1.51 7.25-2.97 11.08-3.95 12.12-3.08 24.22-6.24 36.3-9.5 6.84-1.84 6.82-1.96 10.47 3.69.8 1.23 1.41 2.61 2.34 3.73.8.97 2.01 1.37 3.32.89 1.36-.49 1.69-1.64 1.77-2.92.18-2.66-1.42-4.6-2.69-6.69-.63-1.03-1.3-2.27.04-3.22 1.06-.75 2.31-.72 3.46-.01 3.07 1.91 4.82 4.79 6.03 8.11.72 1.94 1.86 3.76 4.3 2.86 2.33-.86 2.09-3.05 1.79-5.04-.56-3.8-3.37-6.46-5.3-10.02 5.77-3.9 5.76-3.9 8.64.93 1.37 2.31 2.69 4.67 4.24 6.85.71 1 2.02 1.42 3.3.79 1.48-.71 2.39-1.99 1.85-3.56-.7-2.07-1.7-4.07-2.76-5.99-4.18-7.6-4.04-7.46 1.14-14.28 1.97-2.59 3.93-3.14 6.89-2.65 6.58 1.1 13.2.84 19.8-.03 6.08-.8 12.2-1.4 18.23-2.47 3.06-.55 4.64-.12 4.88 3.28.75 10.52 3.36 20.8 3.29 31.45-.07 10.22-.04 10.68-9.78 12.77-1.79.38-3.63.56-5.46.77-44.58.02-89.27.03-133.92.05 1.09-3.07 3.77-4.59 6.75-5.84Z"/><defs><radialGradient id="a" cx="0" cy="0" r="1" gradientTransform="translate(1020 840) scale(880.909)" gradientUnits="userSpaceOnUse"><stop stop-color="#F7C6A3"/><stop offset="1" stop-color="#ED6267"/></radialGradient><radialGradient id="b" cx="0" cy="0" r="1" gradientTransform="translate(960.001 840) scale(721.11)" gradientUnits="userSpaceOnUse"><stop stop-color="#ED6695"/><stop offset="1" stop-color="#984AA1"/></radialGradient><radialGradient id="c" cx="0" cy="0" r="1" gradientTransform="translate(940.001 880) scale(841.576)" gradientUnits="userSpaceOnUse"><stop stop-color="#ED6FB7"/><stop offset="1" stop-color="#7F68F6"/></radialGradient></defs></svg>